{"glyphs":{"0":{"ha":1217,"x_min":0,"x_max":0,"o":"m 38 314 l 38 476 l 485 476 l 485 478 l 485 490 b 485 491 485 491 485 491 l 485 493 b 486 499 485 495 486 497 b 487 505 487 501 487 503 b 487 509 487 506 487 507 b 489 514 487 510 488 512 b 540 591 497 545 514 571 b 628 621 565 611 595 621 b 700 602 654 621 678 615 b 752 550 722 589 739 571 b 771 478 765 528 771 504 l 771 476 l 1217 476 l 1217 314 m 695 361 b 743 410 715 373 731 389 b 761 476 755 430 761 452 b 743 542 761 500 755 522 b 695 590 731 562 715 578 b 629 607 675 601 653 607 b 562 590 605 607 583 601 b 514 542 542 578 526 562 b 497 476 502 522 497 500 b 514 409 497 452 502 430 b 562 361 526 389 542 373 b 629 343 583 349 605 343 b 695 361 653 343 675 349 m 697 570 b 706 564 700 568 703 566 l 548 564 b 566 577 552 568 558 573 b 585 585 574 581 581 584 b 628 594 596 591 611 594 b 672 585 642 594 657 591 l 689 575 b 697 570 692 573 694 572 m 745 476 b 739 435 745 461 743 448 b 718 399 736 425 729 413 l 563 399 l 716 555 b 745 476 736 529 745 503 m 539 395 b 516 433 529 408 521 421 b 509 476 511 447 509 461 b 510 494 509 484 509 490 b 517 517 511 503 513 510 b 537 550 521 530 528 541 l 694 550 l 539 395 m 90 423 l 90 347 l 119 347 l 119 423 l 145 423 l 145 450 l 64 450 l 64 423 m 196 379 l 208 356 b 220 347 211 350 215 347 l 246 347 l 228 379 b 210 389 222 386 216 389 l 213 389 b 228 397 218 389 223 392 b 236 414 233 401 236 407 b 225 439 236 424 232 433 b 199 450 218 446 209 450 l 157 450 l 157 347 l 187 347 l 187 379 m 286 450 l 257 450 l 257 347 l 286 347 m 296 347 l 320 347 b 333 357 325 347 329 350 l 336 364 l 371 364 l 376 357 b 388 347 379 350 383 347 l 411 347 l 367 450 l 341 450 m 487 347 l 487 374 l 450 374 l 450 450 l 422 450 l 422 347 m 809 435 b 795 397 799 425 795 412 b 809 359 795 381 799 369 b 847 344 819 349 832 344 b 886 359 863 344 876 349 b 901 397 896 369 901 381 b 886 435 901 412 896 425 b 847 450 876 445 863 450 b 809 435 832 450 819 445 m 980 412 b 983 392 980 404 981 398 l 951 438 b 946 445 950 442 948 444 b 939 447 945 447 942 447 l 914 447 l 914 346 l 945 346 l 945 386 b 942 405 945 389 944 396 l 976 352 b 989 346 980 348 984 346 l 1010 346 l 1010 447 l 980 447 l 980 412 m 1095 346 l 1095 373 l 1059 373 l 1059 447 l 1030 447 l 1030 346 m 1153 376 b 1155 386 1153 380 1154 384 l 1192 447 l 1164 447 b 1153 441 1159 447 1155 445 l 1141 421 b 1139 412 1140 418 1139 415 b 1136 405 1138 409 1137 407 b 1133 421 1136 410 1135 416 l 1122 441 b 1110 447 1119 445 1115 447 l 1083 447 l 1120 386 b 1122 376 1121 384 1122 381 l 1122 346 l 1153 346 l 1153 376 m 197 421 b 205 414 202 421 205 419 b 203 408 205 412 204 410 b 198 406 201 407 200 406 l 187 406 l 187 421 l 197 421 m 830 379 b 823 397 825 384 823 390 b 830 414 823 403 825 409 b 847 421 835 419 840 421 b 864 414 854 421 859 419 b 870 397 868 409 870 403 b 864 379 870 390 868 384 b 847 373 859 375 854 373 b 830 379 840 373 835 375 m 349 398 b 352 405 350 399 351 401 b 353 417 353 409 353 413 l 355 417 b 358 398 355 408 356 402 l 364 385 l 344 385 l 349 398 m 706 386 b 689 373 696 378 690 374 b 681 369 687 372 684 371 b 672 364 678 366 675 365 b 662 362 669 364 666 363 b 649 359 658 361 653 360 b 628 356 642 357 635 356 b 586 364 612 356 598 359 b 550 386 574 369 562 377 m 50 218 l 50 247 l 78 247 l 78 254 l 50 254 l 50 277 l 84 277 l 84 285 l 43 285 l 43 218 m 108 230 b 102 244 104 233 102 238 l 102 285 l 95 285 l 95 244 b 102 224 95 236 97 229 b 121 217 107 219 113 217 b 141 224 129 217 136 219 b 149 244 146 230 149 236 l 149 285 l 140 285 l 140 244 b 135 229 140 238 138 233 b 121 224 132 226 127 224 b 108 230 115 224 111 226 m 202 218 l 202 225 l 174 225 l 174 285 l 166 285 l 166 218 m 254 218 l 254 225 l 223 225 l 223 285 l 217 285 l 217 218 m 343 284 b 342 282 342 284 342 283 l 321 233 b 320 226 321 231 320 228 l 319 226 b 318 233 319 228 319 231 l 296 282 b 291 285 296 284 295 285 l 286 285 l 316 218 l 323 218 l 351 285 l 346 285 b 343 284 345 285 344 285 m 403 225 l 368 225 l 368 248 l 397 248 l 397 256 l 368 256 l 368 277 l 403 277 l 403 285 l 362 285 l 362 218 l 403 218 m 435 246 l 455 221 b 463 218 458 219 460 218 l 467 218 l 447 245 b 444 247 447 246 446 247 l 444 247 b 455 253 448 248 451 250 b 461 265 459 256 461 260 b 455 279 461 271 459 275 b 441 285 451 283 446 285 l 417 285 l 417 218 l 426 218 l 426 246 m 482 220 b 493 217 486 218 489 217 b 509 222 500 217 505 218 b 514 237 512 226 514 231 b 495 257 514 247 508 253 b 484 268 488 260 484 264 b 494 278 484 275 487 278 b 506 275 498 278 502 277 b 510 277 507 274 509 275 l 511 279 b 494 285 508 283 502 285 b 481 281 489 285 484 284 b 475 268 477 278 475 274 b 493 250 475 261 481 255 b 508 237 503 246 508 242 b 504 227 508 233 506 230 b 493 224 501 225 497 224 b 479 230 488 225 484 227 b 476 230 479 230 478 231 b 473 228 475 230 474 229 l 472 227 b 482 220 474 224 478 222 m 536 285 l 530 285 l 530 218 l 536 218 m 561 275 b 551 251 554 268 551 260 b 561 227 551 241 554 233 b 586 217 568 220 576 217 b 611 226 596 217 604 220 b 621 251 617 233 621 241 b 611 276 621 261 617 269 b 586 285 604 282 596 285 b 561 275 576 285 568 282 m 680 235 b 681 230 680 233 681 231 l 646 283 b 640 285 644 284 642 285 l 634 285 l 634 218 l 642 218 l 642 270 l 641 275 l 680 220 b 682 218 680 219 681 218 l 689 218 l 689 285 l 680 285 l 680 235 m 567 232 b 558 251 561 238 558 244 b 566 270 558 258 561 265 b 586 278 572 275 579 278 b 605 270 593 278 599 275 b 613 251 610 265 613 258 b 605 232 613 244 610 238 b 586 224 599 227 593 224 b 567 232 579 224 573 227 m 441 277 b 449 274 444 277 446 276 b 453 265 451 271 453 269 b 449 257 453 262 451 259 b 441 254 446 255 444 254 l 426 254 l 426 277 l 441 277 m 1178 273 l 1176 270 b 1177 264 1174 268 1174 266 l 1186 255 l 727 255 l 727 248 l 1185 248 l 1177 239 b 1176 233 1175 237 1175 235 l 1178 230 l 1196 248 b 1198 252 1197 248 1198 250 b 1196 256 1198 253 1197 255 m 479 170 b 464 134 469 161 464 149 b 478 99 464 120 469 108 b 514 84 487 89 499 84 b 551 99 529 84 541 89 b 566 134 561 108 566 120 b 551 170 566 148 561 160 b 514 184 541 179 529 184 b 479 170 500 184 488 179 m 800 84 b 826 93 811 84 819 87 b 836 116 832 99 836 107 b 806 149 836 134 826 145 b 796 155 799 151 796 153 b 800 158 796 157 797 158 b 806 157 801 158 803 158 b 812 155 809 156 811 155 b 825 163 818 155 822 158 l 830 172 b 817 181 827 176 822 179 b 800 184 811 183 805 184 b 776 176 791 184 782 181 b 767 155 770 171 767 164 b 775 136 767 147 769 141 b 800 123 780 132 788 127 b 806 116 804 122 806 119 b 800 111 806 113 804 111 b 791 113 797 111 794 111 b 786 116 788 114 787 115 b 778 118 784 117 781 118 b 765 111 774 118 769 116 l 761 100 b 800 84 773 90 786 84 m 897 99 b 932 84 906 89 918 84 b 954 90 940 84 947 86 b 969 104 961 94 966 98 l 963 113 b 953 117 960 116 957 117 b 944 114 949 117 946 116 b 931 111 939 112 935 111 b 916 117 925 111 920 113 b 910 134 912 122 910 127 b 916 151 910 141 912 146 b 931 158 920 155 925 158 b 939 156 934 158 937 157 b 944 154 941 155 943 154 b 952 151 946 152 949 151 b 963 155 957 151 960 152 l 969 164 b 954 178 966 170 961 174 b 932 184 947 182 940 184 b 897 170 918 184 906 179 b 883 134 887 160 883 148 b 897 99 883 120 887 108 m 991 170 b 976 134 981 161 976 149 b 991 99 976 120 981 108 b 1027 84 1000 89 1013 84 b 1063 99 1042 84 1054 89 b 1078 134 1073 108 1078 120 b 1063 170 1078 149 1073 161 b 1027 184 1054 179 1042 184 b 991 170 1013 184 1000 179 m 116 113 l 89 113 b 75 108 84 113 79 111 l 113 158 b 116 170 115 161 116 165 l 116 183 l 41 183 l 41 157 l 69 157 b 78 161 73 157 76 158 l 43 111 b 38 106 41 109 39 107 b 37 99 38 104 37 102 l 37 85 l 116 85 m 196 113 l 157 113 l 157 122 l 189 122 l 189 146 l 157 146 l 157 157 l 196 157 l 196 183 l 130 183 l 130 85 l 196 85 m 228 157 l 228 85 l 256 85 l 256 157 l 279 157 l 279 183 l 202 183 l 202 157 m 270 85 l 292 85 b 299 88 295 85 297 86 b 304 96 301 90 303 93 l 307 102 l 342 102 l 345 96 b 351 88 346 93 348 90 b 358 85 353 86 356 85 l 380 85 l 338 183 l 313 183 m 417 85 l 417 119 l 449 119 l 449 143 l 417 143 l 417 157 l 455 157 l 455 183 l 388 183 l 388 85 m 640 149 b 643 131 640 141 641 135 l 614 174 b 609 181 612 177 611 180 b 601 183 608 182 605 183 l 579 183 l 579 85 l 608 85 l 608 125 b 604 142 608 131 607 137 l 605 142 l 638 91 b 649 85 641 87 644 85 l 669 85 l 669 183 l 640 183 l 640 149 m 704 157 l 704 85 l 733 85 l 733 157 l 759 157 l 759 183 l 680 183 l 680 157 m 1153 139 b 1150 128 1151 136 1150 133 l 1148 128 b 1145 139 1148 133 1147 136 l 1129 174 b 1123 180 1127 176 1125 179 b 1116 183 1122 182 1119 183 l 1092 183 l 1092 85 l 1120 85 l 1120 128 b 1116 143 1120 132 1119 137 l 1118 143 l 1136 102 b 1150 94 1138 97 1143 94 b 1161 102 1154 94 1158 97 l 1180 143 b 1178 136 1179 141 1179 138 b 1178 128 1178 133 1178 131 l 1178 85 l 1205 85 l 1205 183 l 1181 183 b 1170 174 1177 183 1173 180 m 498 117 b 492 134 494 122 492 127 b 498 151 492 141 494 146 b 514 158 503 155 508 158 b 530 151 521 158 526 155 b 536 134 534 147 536 141 b 530 117 536 127 534 122 b 514 111 526 113 521 111 b 498 117 508 111 503 113 m 1011 117 b 1005 134 1007 122 1005 127 b 1011 151 1005 141 1007 147 b 1027 158 1016 155 1021 158 b 1044 151 1033 158 1039 155 b 1051 134 1048 146 1051 141 b 1044 117 1051 127 1048 122 b 1027 111 1039 113 1033 111 b 1011 117 1021 111 1016 113 m 321 134 b 324 152 323 139 324 145 l 326 152 b 329 134 326 143 327 137 l 335 120 l 316 120 l 321 134 m 848 88 b 859 84 851 86 854 84 b 869 88 863 84 866 86 b 873 99 872 91 873 95 b 869 110 873 103 872 107 b 859 114 866 113 863 114 b 848 110 854 114 851 113 b 844 99 845 107 844 103 b 848 88 844 95 845 91 "},"1":{"ha":1217,"x_min":0,"x_max":0,"o":"m 38 314 l 38 476 l 485 476 l 485 478 l 485 490 b 485 491 485 491 485 491 l 485 493 b 486 499 485 495 486 497 b 487 505 487 501 487 503 b 487 509 487 506 487 507 b 489 514 487 510 488 512 b 540 591 497 545 514 571 b 628 621 565 611 595 621 b 700 602 654 621 678 615 b 752 550 722 589 739 571 b 771 478 765 528 771 504 l 771 476 l 1217 476 l 1217 314 m 695 361 b 743 410 715 373 731 389 b 761 476 755 430 761 452 b 743 542 761 500 755 522 b 695 590 731 562 715 578 b 629 607 675 601 653 607 b 562 590 605 607 583 601 b 514 542 542 578 526 562 b 497 476 502 522 497 500 b 514 409 497 452 502 430 b 562 361 526 389 542 373 b 629 343 583 349 605 343 b 695 361 653 343 675 349 m 697 570 b 706 564 700 568 703 566 l 548 564 b 566 577 552 568 558 573 b 585 585 574 581 581 584 b 628 594 596 591 611 594 b 672 585 642 594 657 591 l 689 575 b 697 570 692 573 694 572 m 745 476 b 739 435 745 461 743 448 b 718 399 736 425 729 413 l 563 399 l 716 555 b 745 476 736 529 745 503 m 539 395 b 516 433 529 408 521 421 b 509 476 511 447 509 461 b 510 494 509 484 509 490 b 517 517 511 503 513 510 b 537 550 521 530 528 541 l 694 550 l 539 395 m 90 423 l 90 347 l 119 347 l 119 423 l 145 423 l 145 450 l 64 450 l 64 423 m 196 379 l 208 356 b 220 347 211 350 215 347 l 246 347 l 228 379 b 210 389 222 386 216 389 l 213 389 b 228 397 218 389 223 392 b 236 414 233 401 236 407 b 225 439 236 424 232 433 b 199 450 218 446 209 450 l 157 450 l 157 347 l 187 347 l 187 379 m 286 450 l 257 450 l 257 347 l 286 347 m 296 347 l 320 347 b 333 357 325 347 329 350 l 336 364 l 371 364 l 376 357 b 388 347 379 350 383 347 l 411 347 l 367 450 l 341 450 m 487 347 l 487 374 l 450 374 l 450 450 l 422 450 l 422 347 m 809 435 b 795 397 799 425 795 412 b 809 359 795 381 799 369 b 847 344 819 349 832 344 b 886 359 863 344 876 349 b 901 397 896 369 901 381 b 886 435 901 412 896 425 b 847 450 876 445 863 450 b 809 435 832 450 819 445 m 980 412 b 983 392 980 404 981 398 l 951 438 b 946 445 950 442 948 444 b 939 447 945 447 942 447 l 914 447 l 914 346 l 945 346 l 945 386 b 942 405 945 389 944 396 l 976 352 b 989 346 980 348 984 346 l 1010 346 l 1010 447 l 980 447 l 980 412 m 1095 346 l 1095 373 l 1059 373 l 1059 447 l 1030 447 l 1030 346 m 1153 376 b 1155 386 1153 380 1154 384 l 1192 447 l 1164 447 b 1153 441 1159 447 1155 445 l 1141 421 b 1139 412 1140 418 1139 415 b 1136 405 1138 409 1137 407 b 1133 421 1136 410 1135 416 l 1122 441 b 1110 447 1119 445 1115 447 l 1083 447 l 1120 386 b 1122 376 1121 384 1122 381 l 1122 346 l 1153 346 l 1153 376 m 197 421 b 205 414 202 421 205 419 b 203 408 205 412 204 410 b 198 406 201 407 200 406 l 187 406 l 187 421 l 197 421 m 830 379 b 823 397 825 384 823 390 b 830 414 823 403 825 409 b 847 421 835 419 840 421 b 864 414 854 421 859 419 b 870 397 868 409 870 403 b 864 379 870 390 868 384 b 847 373 859 375 854 373 b 830 379 840 373 835 375 m 349 398 b 352 405 350 399 351 401 b 353 417 353 409 353 413 l 355 417 b 358 398 355 408 356 402 l 364 385 l 344 385 l 349 398 m 706 386 b 689 373 696 378 690 374 b 681 369 687 372 684 371 b 672 364 678 366 675 365 b 662 362 669 364 666 363 b 649 359 658 361 653 360 b 628 356 642 357 635 356 b 586 364 612 356 598 359 b 550 386 574 369 562 377 m 50 218 l 50 247 l 78 247 l 78 254 l 50 254 l 50 277 l 84 277 l 84 285 l 43 285 l 43 218 m 108 230 b 102 244 104 233 102 238 l 102 285 l 95 285 l 95 244 b 102 224 95 236 97 229 b 121 217 107 219 113 217 b 141 224 129 217 136 219 b 149 244 146 230 149 236 l 149 285 l 140 285 l 140 244 b 135 229 140 238 138 233 b 121 224 132 226 127 224 b 108 230 115 224 111 226 m 202 218 l 202 225 l 174 225 l 174 285 l 166 285 l 166 218 m 254 218 l 254 225 l 223 225 l 223 285 l 217 285 l 217 218 m 343 284 b 342 282 342 284 342 283 l 321 233 b 320 226 321 231 320 228 l 319 226 b 318 233 319 228 319 231 l 296 282 b 291 285 296 284 295 285 l 286 285 l 316 218 l 323 218 l 351 285 l 346 285 b 343 284 345 285 344 285 m 403 225 l 368 225 l 368 248 l 397 248 l 397 256 l 368 256 l 368 277 l 403 277 l 403 285 l 362 285 l 362 218 l 403 218 m 435 246 l 455 221 b 463 218 458 219 460 218 l 467 218 l 447 245 b 444 247 447 246 446 247 l 444 247 b 455 253 448 248 451 250 b 461 265 459 256 461 260 b 455 279 461 271 459 275 b 441 285 451 283 446 285 l 417 285 l 417 218 l 426 218 l 426 246 m 482 220 b 493 217 486 218 489 217 b 509 222 500 217 505 218 b 514 237 512 226 514 231 b 495 257 514 247 508 253 b 484 268 488 260 484 264 b 494 278 484 275 487 278 b 506 275 498 278 502 277 b 510 277 507 274 509 275 l 511 279 b 494 285 508 283 502 285 b 481 281 489 285 484 284 b 475 268 477 278 475 274 b 493 250 475 261 481 255 b 508 237 503 246 508 242 b 504 227 508 233 506 230 b 493 224 501 225 497 224 b 479 230 488 225 484 227 b 476 230 479 230 478 231 b 473 228 475 230 474 229 l 472 227 b 482 220 474 224 478 222 m 536 285 l 530 285 l 530 218 l 536 218 m 561 275 b 551 251 554 268 551 260 b 561 227 551 241 554 233 b 586 217 568 220 576 217 b 611 226 596 217 604 220 b 621 251 617 233 621 241 b 611 276 621 261 617 269 b 586 285 604 282 596 285 b 561 275 576 285 568 282 m 680 235 b 681 230 680 233 681 231 l 646 283 b 640 285 644 284 642 285 l 634 285 l 634 218 l 642 218 l 642 270 l 641 275 l 680 220 b 682 218 680 219 681 218 l 689 218 l 689 285 l 680 285 l 680 235 m 567 232 b 558 251 561 238 558 244 b 566 270 558 258 561 265 b 586 278 572 275 579 278 b 605 270 593 278 599 275 b 613 251 610 265 613 258 b 605 232 613 244 610 238 b 586 224 599 227 593 224 b 567 232 579 224 573 227 m 441 277 b 449 274 444 277 446 276 b 453 265 451 271 453 269 b 449 257 453 262 451 259 b 441 254 446 255 444 254 l 426 254 l 426 277 l 441 277 m 1178 273 l 1176 270 b 1177 264 1174 268 1174 266 l 1186 255 l 727 255 l 727 248 l 1185 248 l 1177 239 b 1176 233 1175 237 1175 235 l 1178 230 l 1196 248 b 1198 252 1197 248 1198 250 b 1196 256 1198 253 1197 255 m 479 170 b 464 134 469 161 464 149 b 478 99 464 120 469 108 b 514 84 487 89 499 84 b 551 99 529 84 541 89 b 566 134 561 108 566 120 b 551 170 566 148 561 160 b 514 184 541 179 529 184 b 479 170 500 184 488 179 m 800 84 b 826 93 811 84 819 87 b 836 116 832 99 836 107 b 806 149 836 134 826 145 b 796 155 799 151 796 153 b 800 158 796 157 797 158 b 806 157 801 158 803 158 b 812 155 809 156 811 155 b 825 163 818 155 822 158 l 830 172 b 817 181 827 176 822 179 b 800 184 811 183 805 184 b 776 176 791 184 782 181 b 767 155 770 171 767 164 b 775 136 767 147 769 141 b 800 123 780 132 788 127 b 806 116 804 122 806 119 b 800 111 806 113 804 111 b 791 113 797 111 794 111 b 786 116 788 114 787 115 b 778 118 784 117 781 118 b 765 111 774 118 769 116 l 761 100 b 800 84 773 90 786 84 m 897 99 b 932 84 906 89 918 84 b 954 90 940 84 947 86 b 969 104 961 94 966 98 l 963 113 b 953 117 960 116 957 117 b 944 114 949 117 946 116 b 931 111 939 112 935 111 b 916 117 925 111 920 113 b 910 134 912 122 910 127 b 916 151 910 141 912 146 b 931 158 920 155 925 158 b 939 156 934 158 937 157 b 944 154 941 155 943 154 b 952 151 946 152 949 151 b 963 155 957 151 960 152 l 969 164 b 954 178 966 170 961 174 b 932 184 947 182 940 184 b 897 170 918 184 906 179 b 883 134 887 160 883 148 b 897 99 883 120 887 108 m 991 170 b 976 134 981 161 976 149 b 991 99 976 120 981 108 b 1027 84 1000 89 1013 84 b 1063 99 1042 84 1054 89 b 1078 134 1073 108 1078 120 b 1063 170 1078 149 1073 161 b 1027 184 1054 179 1042 184 b 991 170 1013 184 1000 179 m 116 113 l 89 113 b 75 108 84 113 79 111 l 113 158 b 116 170 115 161 116 165 l 116 183 l 41 183 l 41 157 l 69 157 b 78 161 73 157 76 158 l 43 111 b 38 106 41 109 39 107 b 37 99 38 104 37 102 l 37 85 l 116 85 m 196 113 l 157 113 l 157 122 l 189 122 l 189 146 l 157 146 l 157 157 l 196 157 l 196 183 l 130 183 l 130 85 l 196 85 m 228 157 l 228 85 l 256 85 l 256 157 l 279 157 l 279 183 l 202 183 l 202 157 m 270 85 l 292 85 b 299 88 295 85 297 86 b 304 96 301 90 303 93 l 307 102 l 342 102 l 345 96 b 351 88 346 93 348 90 b 358 85 353 86 356 85 l 380 85 l 338 183 l 313 183 m 417 85 l 417 119 l 449 119 l 449 143 l 417 143 l 417 157 l 455 157 l 455 183 l 388 183 l 388 85 m 640 149 b 643 131 640 141 641 135 l 614 174 b 609 181 612 177 611 180 b 601 183 608 182 605 183 l 579 183 l 579 85 l 608 85 l 608 125 b 604 142 608 131 607 137 l 605 142 l 638 91 b 649 85 641 87 644 85 l 669 85 l 669 183 l 640 183 l 640 149 m 704 157 l 704 85 l 733 85 l 733 157 l 759 157 l 759 183 l 680 183 l 680 157 m 1153 139 b 1150 128 1151 136 1150 133 l 1148 128 b 1145 139 1148 133 1147 136 l 1129 174 b 1123 180 1127 176 1125 179 b 1116 183 1122 182 1119 183 l 1092 183 l 1092 85 l 1120 85 l 1120 128 b 1116 143 1120 132 1119 137 l 1118 143 l 1136 102 b 1150 94 1138 97 1143 94 b 1161 102 1154 94 1158 97 l 1180 143 b 1178 136 1179 141 1179 138 b 1178 128 1178 133 1178 131 l 1178 85 l 1205 85 l 1205 183 l 1181 183 b 1170 174 1177 183 1173 180 m 498 117 b 492 134 494 122 492 127 b 498 151 492 141 494 146 b 514 158 503 155 508 158 b 530 151 521 158 526 155 b 536 134 534 147 536 141 b 530 117 536 127 534 122 b 514 111 526 113 521 111 b 498 117 508 111 503 113 m 1011 117 b 1005 134 1007 122 1005 127 b 1011 151 1005 141 1007 147 b 1027 158 1016 155 1021 158 b 1044 151 1033 158 1039 155 b 1051 134 1048 146 1051 141 b 1044 117 1051 127 1048 122 b 1027 111 1039 113 1033 111 b 1011 117 1021 111 1016 113 m 321 134 b 324 152 323 139 324 145 l 326 152 b 329 134 326 143 327 137 l 335 120 l 316 120 l 321 134 m 848 88 b 859 84 851 86 854 84 b 869 88 863 84 866 86 b 873 99 872 91 873 95 b 869 110 873 103 872 107 b 859 114 866 113 863 114 b 848 110 854 114 851 113 b 844 99 845 107 844 103 b 848 88 844 95 845 91 "},"2":{"ha":1217,"x_min":0,"x_max":0,"o":"m 38 314 l 38 476 l 485 476 l 485 478 l 485 490 b 485 491 485 491 485 491 l 485 493 b 486 499 485 495 486 497 b 487 505 487 501 487 503 b 487 509 487 506 487 507 b 489 514 487 510 488 512 b 540 591 497 545 514 571 b 628 621 565 611 595 621 b 700 602 654 621 678 615 b 752 550 722 589 739 571 b 771 478 765 528 771 504 l 771 476 l 1217 476 l 1217 314 m 695 361 b 743 410 715 373 731 389 b 761 476 755 430 761 452 b 743 542 761 500 755 522 b 695 590 731 562 715 578 b 629 607 675 601 653 607 b 562 590 605 607 583 601 b 514 542 542 578 526 562 b 497 476 502 522 497 500 b 514 409 497 452 502 430 b 562 361 526 389 542 373 b 629 343 583 349 605 343 b 695 361 653 343 675 349 m 697 570 b 706 564 700 568 703 566 l 548 564 b 566 577 552 568 558 573 b 585 585 574 581 581 584 b 628 594 596 591 611 594 b 672 585 642 594 657 591 l 689 575 b 697 570 692 573 694 572 m 745 476 b 739 435 745 461 743 448 b 718 399 736 425 729 413 l 563 399 l 716 555 b 745 476 736 529 745 503 m 539 395 b 516 433 529 408 521 421 b 509 476 511 447 509 461 b 510 494 509 484 509 490 b 517 517 511 503 513 510 b 537 550 521 530 528 541 l 694 550 l 539 395 m 90 423 l 90 347 l 119 347 l 119 423 l 145 423 l 145 450 l 64 450 l 64 423 m 196 379 l 208 356 b 220 347 211 350 215 347 l 246 347 l 228 379 b 210 389 222 386 216 389 l 213 389 b 228 397 218 389 223 392 b 236 414 233 401 236 407 b 225 439 236 424 232 433 b 199 450 218 446 209 450 l 157 450 l 157 347 l 187 347 l 187 379 m 286 450 l 257 450 l 257 347 l 286 347 m 296 347 l 320 347 b 333 357 325 347 329 350 l 336 364 l 371 364 l 376 357 b 388 347 379 350 383 347 l 411 347 l 367 450 l 341 450 m 487 347 l 487 374 l 450 374 l 450 450 l 422 450 l 422 347 m 809 435 b 795 397 799 425 795 412 b 809 359 795 381 799 369 b 847 344 819 349 832 344 b 886 359 863 344 876 349 b 901 397 896 369 901 381 b 886 435 901 412 896 425 b 847 450 876 445 863 450 b 809 435 832 450 819 445 m 980 412 b 983 392 980 404 981 398 l 951 438 b 946 445 950 442 948 444 b 939 447 945 447 942 447 l 914 447 l 914 346 l 945 346 l 945 386 b 942 405 945 389 944 396 l 976 352 b 989 346 980 348 984 346 l 1010 346 l 1010 447 l 980 447 l 980 412 m 1095 346 l 1095 373 l 1059 373 l 1059 447 l 1030 447 l 1030 346 m 1153 376 b 1155 386 1153 380 1154 384 l 1192 447 l 1164 447 b 1153 441 1159 447 1155 445 l 1141 421 b 1139 412 1140 418 1139 415 b 1136 405 1138 409 1137 407 b 1133 421 1136 410 1135 416 l 1122 441 b 1110 447 1119 445 1115 447 l 1083 447 l 1120 386 b 1122 376 1121 384 1122 381 l 1122 346 l 1153 346 l 1153 376 m 197 421 b 205 414 202 421 205 419 b 203 408 205 412 204 410 b 198 406 201 407 200 406 l 187 406 l 187 421 l 197 421 m 830 379 b 823 397 825 384 823 390 b 830 414 823 403 825 409 b 847 421 835 419 840 421 b 864 414 854 421 859 419 b 870 397 868 409 870 403 b 864 379 870 390 868 384 b 847 373 859 375 854 373 b 830 379 840 373 835 375 m 349 398 b 352 405 350 399 351 401 b 353 417 353 409 353 413 l 355 417 b 358 398 355 408 356 402 l 364 385 l 344 385 l 349 398 m 706 386 b 689 373 696 378 690 374 b 681 369 687 372 684 371 b 672 364 678 366 675 365 b 662 362 669 364 666 363 b 649 359 658 361 653 360 b 628 356 642 357 635 356 b 586 364 612 356 598 359 b 550 386 574 369 562 377 m 50 218 l 50 247 l 78 247 l 78 254 l 50 254 l 50 277 l 84 277 l 84 285 l 43 285 l 43 218 m 108 230 b 102 244 104 233 102 238 l 102 285 l 95 285 l 95 244 b 102 224 95 236 97 229 b 121 217 107 219 113 217 b 141 224 129 217 136 219 b 149 244 146 230 149 236 l 149 285 l 140 285 l 140 244 b 135 229 140 238 138 233 b 121 224 132 226 127 224 b 108 230 115 224 111 226 m 202 218 l 202 225 l 174 225 l 174 285 l 166 285 l 166 218 m 254 218 l 254 225 l 223 225 l 223 285 l 217 285 l 217 218 m 343 284 b 342 282 342 284 342 283 l 321 233 b 320 226 321 231 320 228 l 319 226 b 318 233 319 228 319 231 l 296 282 b 291 285 296 284 295 285 l 286 285 l 316 218 l 323 218 l 351 285 l 346 285 b 343 284 345 285 344 285 m 403 225 l 368 225 l 368 248 l 397 248 l 397 256 l 368 256 l 368 277 l 403 277 l 403 285 l 362 285 l 362 218 l 403 218 m 435 246 l 455 221 b 463 218 458 219 460 218 l 467 218 l 447 245 b 444 247 447 246 446 247 l 444 247 b 455 253 448 248 451 250 b 461 265 459 256 461 260 b 455 279 461 271 459 275 b 441 285 451 283 446 285 l 417 285 l 417 218 l 426 218 l 426 246 m 482 220 b 493 217 486 218 489 217 b 509 222 500 217 505 218 b 514 237 512 226 514 231 b 495 257 514 247 508 253 b 484 268 488 260 484 264 b 494 278 484 275 487 278 b 506 275 498 278 502 277 b 510 277 507 274 509 275 l 511 279 b 494 285 508 283 502 285 b 481 281 489 285 484 284 b 475 268 477 278 475 274 b 493 250 475 261 481 255 b 508 237 503 246 508 242 b 504 227 508 233 506 230 b 493 224 501 225 497 224 b 479 230 488 225 484 227 b 476 230 479 230 478 231 b 473 228 475 230 474 229 l 472 227 b 482 220 474 224 478 222 m 536 285 l 530 285 l 530 218 l 536 218 m 561 275 b 551 251 554 268 551 260 b 561 227 551 241 554 233 b 586 217 568 220 576 217 b 611 226 596 217 604 220 b 621 251 617 233 621 241 b 611 276 621 261 617 269 b 586 285 604 282 596 285 b 561 275 576 285 568 282 m 680 235 b 681 230 680 233 681 231 l 646 283 b 640 285 644 284 642 285 l 634 285 l 634 218 l 642 218 l 642 270 l 641 275 l 680 220 b 682 218 680 219 681 218 l 689 218 l 689 285 l 680 285 l 680 235 m 567 232 b 558 251 561 238 558 244 b 566 270 558 258 561 265 b 586 278 572 275 579 278 b 605 270 593 278 599 275 b 613 251 610 265 613 258 b 605 232 613 244 610 238 b 586 224 599 227 593 224 b 567 232 579 224 573 227 m 441 277 b 449 274 444 277 446 276 b 453 265 451 271 453 269 b 449 257 453 262 451 259 b 441 254 446 255 444 254 l 426 254 l 426 277 l 441 277 m 1178 273 l 1176 270 b 1177 264 1174 268 1174 266 l 1186 255 l 727 255 l 727 248 l 1185 248 l 1177 239 b 1176 233 1175 237 1175 235 l 1178 230 l 1196 248 b 1198 252 1197 248 1198 250 b 1196 256 1198 253 1197 255 m 479 170 b 464 134 469 161 464 149 b 478 99 464 120 469 108 b 514 84 487 89 499 84 b 551 99 529 84 541 89 b 566 134 561 108 566 120 b 551 170 566 148 561 160 b 514 184 541 179 529 184 b 479 170 500 184 488 179 m 800 84 b 826 93 811 84 819 87 b 836 116 832 99 836 107 b 806 149 836 134 826 145 b 796 155 799 151 796 153 b 800 158 796 157 797 158 b 806 157 801 158 803 158 b 812 155 809 156 811 155 b 825 163 818 155 822 158 l 830 172 b 817 181 827 176 822 179 b 800 184 811 183 805 184 b 776 176 791 184 782 181 b 767 155 770 171 767 164 b 775 136 767 147 769 141 b 800 123 780 132 788 127 b 806 116 804 122 806 119 b 800 111 806 113 804 111 b 791 113 797 111 794 111 b 786 116 788 114 787 115 b 778 118 784 117 781 118 b 765 111 774 118 769 116 l 761 100 b 800 84 773 90 786 84 m 897 99 b 932 84 906 89 918 84 b 954 90 940 84 947 86 b 969 104 961 94 966 98 l 963 113 b 953 117 960 116 957 117 b 944 114 949 117 946 116 b 931 111 939 112 935 111 b 916 117 925 111 920 113 b 910 134 912 122 910 127 b 916 151 910 141 912 146 b 931 158 920 155 925 158 b 939 156 934 158 937 157 b 944 154 941 155 943 154 b 952 151 946 152 949 151 b 963 155 957 151 960 152 l 969 164 b 954 178 966 170 961 174 b 932 184 947 182 940 184 b 897 170 918 184 906 179 b 883 134 887 160 883 148 b 897 99 883 120 887 108 m 991 170 b 976 134 981 161 976 149 b 991 99 976 120 981 108 b 1027 84 1000 89 1013 84 b 1063 99 1042 84 1054 89 b 1078 134 1073 108 1078 120 b 1063 170 1078 149 1073 161 b 1027 184 1054 179 1042 184 b 991 170 1013 184 1000 179 m 116 113 l 89 113 b 75 108 84 113 79 111 l 113 158 b 116 170 115 161 116 165 l 116 183 l 41 183 l 41 157 l 69 157 b 78 161 73 157 76 158 l 43 111 b 38 106 41 109 39 107 b 37 99 38 104 37 102 l 37 85 l 116 85 m 196 113 l 157 113 l 157 122 l 189 122 l 189 146 l 157 146 l 157 157 l 196 157 l 196 183 l 130 183 l 130 85 l 196 85 m 228 157 l 228 85 l 256 85 l 256 157 l 279 157 l 279 183 l 202 183 l 202 157 m 270 85 l 292 85 b 299 88 295 85 297 86 b 304 96 301 90 303 93 l 307 102 l 342 102 l 345 96 b 351 88 346 93 348 90 b 358 85 353 86 356 85 l 380 85 l 338 183 l 313 183 m 417 85 l 417 119 l 449 119 l 449 143 l 417 143 l 417 157 l 455 157 l 455 183 l 388 183 l 388 85 m 640 149 b 643 131 640 141 641 135 l 614 174 b 609 181 612 177 611 180 b 601 183 608 182 605 183 l 579 183 l 579 85 l 608 85 l 608 125 b 604 142 608 131 607 137 l 605 142 l 638 91 b 649 85 641 87 644 85 l 669 85 l 669 183 l 640 183 l 640 149 m 704 157 l 704 85 l 733 85 l 733 157 l 759 157 l 759 183 l 680 183 l 680 157 m 1153 139 b 1150 128 1151 136 1150 133 l 1148 128 b 1145 139 1148 133 1147 136 l 1129 174 b 1123 180 1127 176 1125 179 b 1116 183 1122 182 1119 183 l 1092 183 l 1092 85 l 1120 85 l 1120 128 b 1116 143 1120 132 1119 137 l 1118 143 l 1136 102 b 1150 94 1138 97 1143 94 b 1161 102 1154 94 1158 97 l 1180 143 b 1178 136 1179 141 1179 138 b 1178 128 1178 133 1178 131 l 1178 85 l 1205 85 l 1205 183 l 1181 183 b 1170 174 1177 183 1173 180 m 498 117 b 492 134 494 122 492 127 b 498 151 492 141 494 146 b 514 158 503 155 508 158 b 530 151 521 158 526 155 b 536 134 534 147 536 141 b 530 117 536 127 534 122 b 514 111 526 113 521 111 b 498 117 508 111 503 113 m 1011 117 b 1005 134 1007 122 1005 127 b 1011 151 1005 141 1007 147 b 1027 158 1016 155 1021 158 b 1044 151 1033 158 1039 155 b 1051 134 1048 146 1051 141 b 1044 117 1051 127 1048 122 b 1027 111 1039 113 1033 111 b 1011 117 1021 111 1016 113 m 321 134 b 324 152 323 139 324 145 l 326 152 b 329 134 326 143 327 137 l 335 120 l 316 120 l 321 134 m 848 88 b 859 84 851 86 854 84 b 869 88 863 84 866 86 b 873 99 872 91 873 95 b 869 110 873 103 872 107 b 859 114 866 113 863 114 b 848 110 854 114 851 113 b 844 99 845 107 844 103 b 848 88 844 95 845 91 "},"3":{"ha":1217,"x_min":0,"x_max":0,"o":"m 38 314 l 38 476 l 485 476 l 485 478 l 485 490 b 485 491 485 491 485 491 l 485 493 b 486 499 485 495 486 497 b 487 505 487 501 487 503 b 487 509 487 506 487 507 b 489 514 487 510 488 512 b 540 591 497 545 514 571 b 628 621 565 611 595 621 b 700 602 654 621 678 615 b 752 550 722 589 739 571 b 771 478 765 528 771 504 l 771 476 l 1217 476 l 1217 314 m 695 361 b 743 410 715 373 731 389 b 761 476 755 430 761 452 b 743 542 761 500 755 522 b 695 590 731 562 715 578 b 629 607 675 601 653 607 b 562 590 605 607 583 601 b 514 542 542 578 526 562 b 497 476 502 522 497 500 b 514 409 497 452 502 430 b 562 361 526 389 542 373 b 629 343 583 349 605 343 b 695 361 653 343 675 349 m 697 570 b 706 564 700 568 703 566 l 548 564 b 566 577 552 568 558 573 b 585 585 574 581 581 584 b 628 594 596 591 611 594 b 672 585 642 594 657 591 l 689 575 b 697 570 692 573 694 572 m 745 476 b 739 435 745 461 743 448 b 718 399 736 425 729 413 l 563 399 l 716 555 b 745 476 736 529 745 503 m 539 395 b 516 433 529 408 521 421 b 509 476 511 447 509 461 b 510 494 509 484 509 490 b 517 517 511 503 513 510 b 537 550 521 530 528 541 l 694 550 l 539 395 m 90 423 l 90 347 l 119 347 l 119 423 l 145 423 l 145 450 l 64 450 l 64 423 m 196 379 l 208 356 b 220 347 211 350 215 347 l 246 347 l 228 379 b 210 389 222 386 216 389 l 213 389 b 228 397 218 389 223 392 b 236 414 233 401 236 407 b 225 439 236 424 232 433 b 199 450 218 446 209 450 l 157 450 l 157 347 l 187 347 l 187 379 m 286 450 l 257 450 l 257 347 l 286 347 m 296 347 l 320 347 b 333 357 325 347 329 350 l 336 364 l 371 364 l 376 357 b 388 347 379 350 383 347 l 411 347 l 367 450 l 341 450 m 487 347 l 487 374 l 450 374 l 450 450 l 422 450 l 422 347 m 809 435 b 795 397 799 425 795 412 b 809 359 795 381 799 369 b 847 344 819 349 832 344 b 886 359 863 344 876 349 b 901 397 896 369 901 381 b 886 435 901 412 896 425 b 847 450 876 445 863 450 b 809 435 832 450 819 445 m 980 412 b 983 392 980 404 981 398 l 951 438 b 946 445 950 442 948 444 b 939 447 945 447 942 447 l 914 447 l 914 346 l 945 346 l 945 386 b 942 405 945 389 944 396 l 976 352 b 989 346 980 348 984 346 l 1010 346 l 1010 447 l 980 447 l 980 412 m 1095 346 l 1095 373 l 1059 373 l 1059 447 l 1030 447 l 1030 346 m 1153 376 b 1155 386 1153 380 1154 384 l 1192 447 l 1164 447 b 1153 441 1159 447 1155 445 l 1141 421 b 1139 412 1140 418 1139 415 b 1136 405 1138 409 1137 407 b 1133 421 1136 410 1135 416 l 1122 441 b 1110 447 1119 445 1115 447 l 1083 447 l 1120 386 b 1122 376 1121 384 1122 381 l 1122 346 l 1153 346 l 1153 376 m 197 421 b 205 414 202 421 205 419 b 203 408 205 412 204 410 b 198 406 201 407 200 406 l 187 406 l 187 421 l 197 421 m 830 379 b 823 397 825 384 823 390 b 830 414 823 403 825 409 b 847 421 835 419 840 421 b 864 414 854 421 859 419 b 870 397 868 409 870 403 b 864 379 870 390 868 384 b 847 373 859 375 854 373 b 830 379 840 373 835 375 m 349 398 b 352 405 350 399 351 401 b 353 417 353 409 353 413 l 355 417 b 358 398 355 408 356 402 l 364 385 l 344 385 l 349 398 m 706 386 b 689 373 696 378 690 374 b 681 369 687 372 684 371 b 672 364 678 366 675 365 b 662 362 669 364 666 363 b 649 359 658 361 653 360 b 628 356 642 357 635 356 b 586 364 612 356 598 359 b 550 386 574 369 562 377 m 50 218 l 50 247 l 78 247 l 78 254 l 50 254 l 50 277 l 84 277 l 84 285 l 43 285 l 43 218 m 108 230 b 102 244 104 233 102 238 l 102 285 l 95 285 l 95 244 b 102 224 95 236 97 229 b 121 217 107 219 113 217 b 141 224 129 217 136 219 b 149 244 146 230 149 236 l 149 285 l 140 285 l 140 244 b 135 229 140 238 138 233 b 121 224 132 226 127 224 b 108 230 115 224 111 226 m 202 218 l 202 225 l 174 225 l 174 285 l 166 285 l 166 218 m 254 218 l 254 225 l 223 225 l 223 285 l 217 285 l 217 218 m 343 284 b 342 282 342 284 342 283 l 321 233 b 320 226 321 231 320 228 l 319 226 b 318 233 319 228 319 231 l 296 282 b 291 285 296 284 295 285 l 286 285 l 316 218 l 323 218 l 351 285 l 346 285 b 343 284 345 285 344 285 m 403 225 l 368 225 l 368 248 l 397 248 l 397 256 l 368 256 l 368 277 l 403 277 l 403 285 l 362 285 l 362 218 l 403 218 m 435 246 l 455 221 b 463 218 458 219 460 218 l 467 218 l 447 245 b 444 247 447 246 446 247 l 444 247 b 455 253 448 248 451 250 b 461 265 459 256 461 260 b 455 279 461 271 459 275 b 441 285 451 283 446 285 l 417 285 l 417 218 l 426 218 l 426 246 m 482 220 b 493 217 486 218 489 217 b 509 222 500 217 505 218 b 514 237 512 226 514 231 b 495 257 514 247 508 253 b 484 268 488 260 484 264 b 494 278 484 275 487 278 b 506 275 498 278 502 277 b 510 277 507 274 509 275 l 511 279 b 494 285 508 283 502 285 b 481 281 489 285 484 284 b 475 268 477 278 475 274 b 493 250 475 261 481 255 b 508 237 503 246 508 242 b 504 227 508 233 506 230 b 493 224 501 225 497 224 b 479 230 488 225 484 227 b 476 230 479 230 478 231 b 473 228 475 230 474 229 l 472 227 b 482 220 474 224 478 222 m 536 285 l 530 285 l 530 218 l 536 218 m 561 275 b 551 251 554 268 551 260 b 561 227 551 241 554 233 b 586 217 568 220 576 217 b 611 226 596 217 604 220 b 621 251 617 233 621 241 b 611 276 621 261 617 269 b 586 285 604 282 596 285 b 561 275 576 285 568 282 m 680 235 b 681 230 680 233 681 231 l 646 283 b 640 285 644 284 642 285 l 634 285 l 634 218 l 642 218 l 642 270 l 641 275 l 680 220 b 682 218 680 219 681 218 l 689 218 l 689 285 l 680 285 l 680 235 m 567 232 b 558 251 561 238 558 244 b 566 270 558 258 561 265 b 586 278 572 275 579 278 b 605 270 593 278 599 275 b 613 251 610 265 613 258 b 605 232 613 244 610 238 b 586 224 599 227 593 224 b 567 232 579 224 573 227 m 441 277 b 449 274 444 277 446 276 b 453 265 451 271 453 269 b 449 257 453 262 451 259 b 441 254 446 255 444 254 l 426 254 l 426 277 l 441 277 m 1178 273 l 1176 270 b 1177 264 1174 268 1174 266 l 1186 255 l 727 255 l 727 248 l 1185 248 l 1177 239 b 1176 233 1175 237 1175 235 l 1178 230 l 1196 248 b 1198 252 1197 248 1198 250 b 1196 256 1198 253 1197 255 m 479 170 b 464 134 469 161 464 149 b 478 99 464 120 469 108 b 514 84 487 89 499 84 b 551 99 529 84 541 89 b 566 134 561 108 566 120 b 551 170 566 148 561 160 b 514 184 541 179 529 184 b 479 170 500 184 488 179 m 800 84 b 826 93 811 84 819 87 b 836 116 832 99 836 107 b 806 149 836 134 826 145 b 796 155 799 151 796 153 b 800 158 796 157 797 158 b 806 157 801 158 803 158 b 812 155 809 156 811 155 b 825 163 818 155 822 158 l 830 172 b 817 181 827 176 822 179 b 800 184 811 183 805 184 b 776 176 791 184 782 181 b 767 155 770 171 767 164 b 775 136 767 147 769 141 b 800 123 780 132 788 127 b 806 116 804 122 806 119 b 800 111 806 113 804 111 b 791 113 797 111 794 111 b 786 116 788 114 787 115 b 778 118 784 117 781 118 b 765 111 774 118 769 116 l 761 100 b 800 84 773 90 786 84 m 897 99 b 932 84 906 89 918 84 b 954 90 940 84 947 86 b 969 104 961 94 966 98 l 963 113 b 953 117 960 116 957 117 b 944 114 949 117 946 116 b 931 111 939 112 935 111 b 916 117 925 111 920 113 b 910 134 912 122 910 127 b 916 151 910 141 912 146 b 931 158 920 155 925 158 b 939 156 934 158 937 157 b 944 154 941 155 943 154 b 952 151 946 152 949 151 b 963 155 957 151 960 152 l 969 164 b 954 178 966 170 961 174 b 932 184 947 182 940 184 b 897 170 918 184 906 179 b 883 134 887 160 883 148 b 897 99 883 120 887 108 m 991 170 b 976 134 981 161 976 149 b 991 99 976 120 981 108 b 1027 84 1000 89 1013 84 b 1063 99 1042 84 1054 89 b 1078 134 1073 108 1078 120 b 1063 170 1078 149 1073 161 b 1027 184 1054 179 1042 184 b 991 170 1013 184 1000 179 m 116 113 l 89 113 b 75 108 84 113 79 111 l 113 158 b 116 170 115 161 116 165 l 116 183 l 41 183 l 41 157 l 69 157 b 78 161 73 157 76 158 l 43 111 b 38 106 41 109 39 107 b 37 99 38 104 37 102 l 37 85 l 116 85 m 196 113 l 157 113 l 157 122 l 189 122 l 189 146 l 157 146 l 157 157 l 196 157 l 196 183 l 130 183 l 130 85 l 196 85 m 228 157 l 228 85 l 256 85 l 256 157 l 279 157 l 279 183 l 202 183 l 202 157 m 270 85 l 292 85 b 299 88 295 85 297 86 b 304 96 301 90 303 93 l 307 102 l 342 102 l 345 96 b 351 88 346 93 348 90 b 358 85 353 86 356 85 l 380 85 l 338 183 l 313 183 m 417 85 l 417 119 l 449 119 l 449 143 l 417 143 l 417 157 l 455 157 l 455 183 l 388 183 l 388 85 m 640 149 b 643 131 640 141 641 135 l 614 174 b 609 181 612 177 611 180 b 601 183 608 182 605 183 l 579 183 l 579 85 l 608 85 l 608 125 b 604 142 608 131 607 137 l 605 142 l 638 91 b 649 85 641 87 644 85 l 669 85 l 669 183 l 640 183 l 640 149 m 704 157 l 704 85 l 733 85 l 733 157 l 759 157 l 759 183 l 680 183 l 680 157 m 1153 139 b 1150 128 1151 136 1150 133 l 1148 128 b 1145 139 1148 133 1147 136 l 1129 174 b 1123 180 1127 176 1125 179 b 1116 183 1122 182 1119 183 l 1092 183 l 1092 85 l 1120 85 l 1120 128 b 1116 143 1120 132 1119 137 l 1118 143 l 1136 102 b 1150 94 1138 97 1143 94 b 1161 102 1154 94 1158 97 l 1180 143 b 1178 136 1179 141 1179 138 b 1178 128 1178 133 1178 131 l 1178 85 l 1205 85 l 1205 183 l 1181 183 b 1170 174 1177 183 1173 180 m 498 117 b 492 134 494 122 492 127 b 498 151 492 141 494 146 b 514 158 503 155 508 158 b 530 151 521 158 526 155 b 536 134 534 147 536 141 b 530 117 536 127 534 122 b 514 111 526 113 521 111 b 498 117 508 111 503 113 m 1011 117 b 1005 134 1007 122 1005 127 b 1011 151 1005 141 1007 147 b 1027 158 1016 155 1021 158 b 1044 151 1033 158 1039 155 b 1051 134 1048 146 1051 141 b 1044 117 1051 127 1048 122 b 1027 111 1039 113 1033 111 b 1011 117 1021 111 1016 113 m 321 134 b 324 152 323 139 324 145 l 326 152 b 329 134 326 143 327 137 l 335 120 l 316 120 l 321 134 m 848 88 b 859 84 851 86 854 84 b 869 88 863 84 866 86 b 873 99 872 91 873 95 b 869 110 873 103 872 107 b 859 114 866 113 863 114 b 848 110 854 114 851 113 b 844 99 845 107 844 103 b 848 88 844 95 845 91 "},"4":{"ha":1217,"x_min":0,"x_max":0,"o":"m 38 314 l 38 476 l 485 476 l 485 478 l 485 490 b 485 491 485 491 485 491 l 485 493 b 486 499 485 495 486 497 b 487 505 487 501 487 503 b 487 509 487 506 487 507 b 489 514 487 510 488 512 b 540 591 497 545 514 571 b 628 621 565 611 595 621 b 700 602 654 621 678 615 b 752 550 722 589 739 571 b 771 478 765 528 771 504 l 771 476 l 1217 476 l 1217 314 m 695 361 b 743 410 715 373 731 389 b 761 476 755 430 761 452 b 743 542 761 500 755 522 b 695 590 731 562 715 578 b 629 607 675 601 653 607 b 562 590 605 607 583 601 b 514 542 542 578 526 562 b 497 476 502 522 497 500 b 514 409 497 452 502 430 b 562 361 526 389 542 373 b 629 343 583 349 605 343 b 695 361 653 343 675 349 m 697 570 b 706 564 700 568 703 566 l 548 564 b 566 577 552 568 558 573 b 585 585 574 581 581 584 b 628 594 596 591 611 594 b 672 585 642 594 657 591 l 689 575 b 697 570 692 573 694 572 m 745 476 b 739 435 745 461 743 448 b 718 399 736 425 729 413 l 563 399 l 716 555 b 745 476 736 529 745 503 m 539 395 b 516 433 529 408 521 421 b 509 476 511 447 509 461 b 510 494 509 484 509 490 b 517 517 511 503 513 510 b 537 550 521 530 528 541 l 694 550 l 539 395 m 90 423 l 90 347 l 119 347 l 119 423 l 145 423 l 145 450 l 64 450 l 64 423 m 196 379 l 208 356 b 220 347 211 350 215 347 l 246 347 l 228 379 b 210 389 222 386 216 389 l 213 389 b 228 397 218 389 223 392 b 236 414 233 401 236 407 b 225 439 236 424 232 433 b 199 450 218 446 209 450 l 157 450 l 157 347 l 187 347 l 187 379 m 286 450 l 257 450 l 257 347 l 286 347 m 296 347 l 320 347 b 333 357 325 347 329 350 l 336 364 l 371 364 l 376 357 b 388 347 379 350 383 347 l 411 347 l 367 450 l 341 450 m 487 347 l 487 374 l 450 374 l 450 450 l 422 450 l 422 347 m 809 435 b 795 397 799 425 795 412 b 809 359 795 381 799 369 b 847 344 819 349 832 344 b 886 359 863 344 876 349 b 901 397 896 369 901 381 b 886 435 901 412 896 425 b 847 450 876 445 863 450 b 809 435 832 450 819 445 m 980 412 b 983 392 980 404 981 398 l 951 438 b 946 445 950 442 948 444 b 939 447 945 447 942 447 l 914 447 l 914 346 l 945 346 l 945 386 b 942 405 945 389 944 396 l 976 352 b 989 346 980 348 984 346 l 1010 346 l 1010 447 l 980 447 l 980 412 m 1095 346 l 1095 373 l 1059 373 l 1059 447 l 1030 447 l 1030 346 m 1153 376 b 1155 386 1153 380 1154 384 l 1192 447 l 1164 447 b 1153 441 1159 447 1155 445 l 1141 421 b 1139 412 1140 418 1139 415 b 1136 405 1138 409 1137 407 b 1133 421 1136 410 1135 416 l 1122 441 b 1110 447 1119 445 1115 447 l 1083 447 l 1120 386 b 1122 376 1121 384 1122 381 l 1122 346 l 1153 346 l 1153 376 m 197 421 b 205 414 202 421 205 419 b 203 408 205 412 204 410 b 198 406 201 407 200 406 l 187 406 l 187 421 l 197 421 m 830 379 b 823 397 825 384 823 390 b 830 414 823 403 825 409 b 847 421 835 419 840 421 b 864 414 854 421 859 419 b 870 397 868 409 870 403 b 864 379 870 390 868 384 b 847 373 859 375 854 373 b 830 379 840 373 835 375 m 349 398 b 352 405 350 399 351 401 b 353 417 353 409 353 413 l 355 417 b 358 398 355 408 356 402 l 364 385 l 344 385 l 349 398 m 706 386 b 689 373 696 378 690 374 b 681 369 687 372 684 371 b 672 364 678 366 675 365 b 662 362 669 364 666 363 b 649 359 658 361 653 360 b 628 356 642 357 635 356 b 586 364 612 356 598 359 b 550 386 574 369 562 377 m 50 218 l 50 247 l 78 247 l 78 254 l 50 254 l 50 277 l 84 277 l 84 285 l 43 285 l 43 218 m 108 230 b 102 244 104 233 102 238 l 102 285 l 95 285 l 95 244 b 102 224 95 236 97 229 b 121 217 107 219 113 217 b 141 224 129 217 136 219 b 149 244 146 230 149 236 l 149 285 l 140 285 l 140 244 b 135 229 140 238 138 233 b 121 224 132 226 127 224 b 108 230 115 224 111 226 m 202 218 l 202 225 l 174 225 l 174 285 l 166 285 l 166 218 m 254 218 l 254 225 l 223 225 l 223 285 l 217 285 l 217 218 m 343 284 b 342 282 342 284 342 283 l 321 233 b 320 226 321 231 320 228 l 319 226 b 318 233 319 228 319 231 l 296 282 b 291 285 296 284 295 285 l 286 285 l 316 218 l 323 218 l 351 285 l 346 285 b 343 284 345 285 344 285 m 403 225 l 368 225 l 368 248 l 397 248 l 397 256 l 368 256 l 368 277 l 403 277 l 403 285 l 362 285 l 362 218 l 403 218 m 435 246 l 455 221 b 463 218 458 219 460 218 l 467 218 l 447 245 b 444 247 447 246 446 247 l 444 247 b 455 253 448 248 451 250 b 461 265 459 256 461 260 b 455 279 461 271 459 275 b 441 285 451 283 446 285 l 417 285 l 417 218 l 426 218 l 426 246 m 482 220 b 493 217 486 218 489 217 b 509 222 500 217 505 218 b 514 237 512 226 514 231 b 495 257 514 247 508 253 b 484 268 488 260 484 264 b 494 278 484 275 487 278 b 506 275 498 278 502 277 b 510 277 507 274 509 275 l 511 279 b 494 285 508 283 502 285 b 481 281 489 285 484 284 b 475 268 477 278 475 274 b 493 250 475 261 481 255 b 508 237 503 246 508 242 b 504 227 508 233 506 230 b 493 224 501 225 497 224 b 479 230 488 225 484 227 b 476 230 479 230 478 231 b 473 228 475 230 474 229 l 472 227 b 482 220 474 224 478 222 m 536 285 l 530 285 l 530 218 l 536 218 m 561 275 b 551 251 554 268 551 260 b 561 227 551 241 554 233 b 586 217 568 220 576 217 b 611 226 596 217 604 220 b 621 251 617 233 621 241 b 611 276 621 261 617 269 b 586 285 604 282 596 285 b 561 275 576 285 568 282 m 680 235 b 681 230 680 233 681 231 l 646 283 b 640 285 644 284 642 285 l 634 285 l 634 218 l 642 218 l 642 270 l 641 275 l 680 220 b 682 218 680 219 681 218 l 689 218 l 689 285 l 680 285 l 680 235 m 567 232 b 558 251 561 238 558 244 b 566 270 558 258 561 265 b 586 278 572 275 579 278 b 605 270 593 278 599 275 b 613 251 610 265 613 258 b 605 232 613 244 610 238 b 586 224 599 227 593 224 b 567 232 579 224 573 227 m 441 277 b 449 274 444 277 446 276 b 453 265 451 271 453 269 b 449 257 453 262 451 259 b 441 254 446 255 444 254 l 426 254 l 426 277 l 441 277 m 1178 273 l 1176 270 b 1177 264 1174 268 1174 266 l 1186 255 l 727 255 l 727 248 l 1185 248 l 1177 239 b 1176 233 1175 237 1175 235 l 1178 230 l 1196 248 b 1198 252 1197 248 1198 250 b 1196 256 1198 253 1197 255 m 479 170 b 464 134 469 161 464 149 b 478 99 464 120 469 108 b 514 84 487 89 499 84 b 551 99 529 84 541 89 b 566 134 561 108 566 120 b 551 170 566 148 561 160 b 514 184 541 179 529 184 b 479 170 500 184 488 179 m 800 84 b 826 93 811 84 819 87 b 836 116 832 99 836 107 b 806 149 836 134 826 145 b 796 155 799 151 796 153 b 800 158 796 157 797 158 b 806 157 801 158 803 158 b 812 155 809 156 811 155 b 825 163 818 155 822 158 l 830 172 b 817 181 827 176 822 179 b 800 184 811 183 805 184 b 776 176 791 184 782 181 b 767 155 770 171 767 164 b 775 136 767 147 769 141 b 800 123 780 132 788 127 b 806 116 804 122 806 119 b 800 111 806 113 804 111 b 791 113 797 111 794 111 b 786 116 788 114 787 115 b 778 118 784 117 781 118 b 765 111 774 118 769 116 l 761 100 b 800 84 773 90 786 84 m 897 99 b 932 84 906 89 918 84 b 954 90 940 84 947 86 b 969 104 961 94 966 98 l 963 113 b 953 117 960 116 957 117 b 944 114 949 117 946 116 b 931 111 939 112 935 111 b 916 117 925 111 920 113 b 910 134 912 122 910 127 b 916 151 910 141 912 146 b 931 158 920 155 925 158 b 939 156 934 158 937 157 b 944 154 941 155 943 154 b 952 151 946 152 949 151 b 963 155 957 151 960 152 l 969 164 b 954 178 966 170 961 174 b 932 184 947 182 940 184 b 897 170 918 184 906 179 b 883 134 887 160 883 148 b 897 99 883 120 887 108 m 991 170 b 976 134 981 161 976 149 b 991 99 976 120 981 108 b 1027 84 1000 89 1013 84 b 1063 99 1042 84 1054 89 b 1078 134 1073 108 1078 120 b 1063 170 1078 149 1073 161 b 1027 184 1054 179 1042 184 b 991 170 1013 184 1000 179 m 116 113 l 89 113 b 75 108 84 113 79 111 l 113 158 b 116 170 115 161 116 165 l 116 183 l 41 183 l 41 157 l 69 157 b 78 161 73 157 76 158 l 43 111 b 38 106 41 109 39 107 b 37 99 38 104 37 102 l 37 85 l 116 85 m 196 113 l 157 113 l 157 122 l 189 122 l 189 146 l 157 146 l 157 157 l 196 157 l 196 183 l 130 183 l 130 85 l 196 85 m 228 157 l 228 85 l 256 85 l 256 157 l 279 157 l 279 183 l 202 183 l 202 157 m 270 85 l 292 85 b 299 88 295 85 297 86 b 304 96 301 90 303 93 l 307 102 l 342 102 l 345 96 b 351 88 346 93 348 90 b 358 85 353 86 356 85 l 380 85 l 338 183 l 313 183 m 417 85 l 417 119 l 449 119 l 449 143 l 417 143 l 417 157 l 455 157 l 455 183 l 388 183 l 388 85 m 640 149 b 643 131 640 141 641 135 l 614 174 b 609 181 612 177 611 180 b 601 183 608 182 605 183 l 579 183 l 579 85 l 608 85 l 608 125 b 604 142 608 131 607 137 l 605 142 l 638 91 b 649 85 641 87 644 85 l 669 85 l 669 183 l 640 183 l 640 149 m 704 157 l 704 85 l 733 85 l 733 157 l 759 157 l 759 183 l 680 183 l 680 157 m 1153 139 b 1150 128 1151 136 1150 133 l 1148 128 b 1145 139 1148 133 1147 136 l 1129 174 b 1123 180 1127 176 1125 179 b 1116 183 1122 182 1119 183 l 1092 183 l 1092 85 l 1120 85 l 1120 128 b 1116 143 1120 132 1119 137 l 1118 143 l 1136 102 b 1150 94 1138 97 1143 94 b 1161 102 1154 94 1158 97 l 1180 143 b 1178 136 1179 141 1179 138 b 1178 128 1178 133 1178 131 l 1178 85 l 1205 85 l 1205 183 l 1181 183 b 1170 174 1177 183 1173 180 m 498 117 b 492 134 494 122 492 127 b 498 151 492 141 494 146 b 514 158 503 155 508 158 b 530 151 521 158 526 155 b 536 134 534 147 536 141 b 530 117 536 127 534 122 b 514 111 526 113 521 111 b 498 117 508 111 503 113 m 1011 117 b 1005 134 1007 122 1005 127 b 1011 151 1005 141 1007 147 b 1027 158 1016 155 1021 158 b 1044 151 1033 158 1039 155 b 1051 134 1048 146 1051 141 b 1044 117 1051 127 1048 122 b 1027 111 1039 113 1033 111 b 1011 117 1021 111 1016 113 m 321 134 b 324 152 323 139 324 145 l 326 152 b 329 134 326 143 327 137 l 335 120 l 316 120 l 321 134 m 848 88 b 859 84 851 86 854 84 b 869 88 863 84 866 86 b 873 99 872 91 873 95 b 869 110 873 103 872 107 b 859 114 866 113 863 114 b 848 110 854 114 851 113 b 844 99 845 107 844 103 b 848 88 844 95 845 91 "},"5":{"ha":1217,"x_min":0,"x_max":0,"o":"m 38 314 l 38 476 l 485 476 l 485 478 l 485 490 b 485 491 485 491 485 491 l 485 493 b 486 499 485 495 486 497 b 487 505 487 501 487 503 b 487 509 487 506 487 507 b 489 514 487 510 488 512 b 540 591 497 545 514 571 b 628 621 565 611 595 621 b 700 602 654 621 678 615 b 752 550 722 589 739 571 b 771 478 765 528 771 504 l 771 476 l 1217 476 l 1217 314 m 695 361 b 743 410 715 373 731 389 b 761 476 755 430 761 452 b 743 542 761 500 755 522 b 695 590 731 562 715 578 b 629 607 675 601 653 607 b 562 590 605 607 583 601 b 514 542 542 578 526 562 b 497 476 502 522 497 500 b 514 409 497 452 502 430 b 562 361 526 389 542 373 b 629 343 583 349 605 343 b 695 361 653 343 675 349 m 697 570 b 706 564 700 568 703 566 l 548 564 b 566 577 552 568 558 573 b 585 585 574 581 581 584 b 628 594 596 591 611 594 b 672 585 642 594 657 591 l 689 575 b 697 570 692 573 694 572 m 745 476 b 739 435 745 461 743 448 b 718 399 736 425 729 413 l 563 399 l 716 555 b 745 476 736 529 745 503 m 539 395 b 516 433 529 408 521 421 b 509 476 511 447 509 461 b 510 494 509 484 509 490 b 517 517 511 503 513 510 b 537 550 521 530 528 541 l 694 550 l 539 395 m 90 423 l 90 347 l 119 347 l 119 423 l 145 423 l 145 450 l 64 450 l 64 423 m 196 379 l 208 356 b 220 347 211 350 215 347 l 246 347 l 228 379 b 210 389 222 386 216 389 l 213 389 b 228 397 218 389 223 392 b 236 414 233 401 236 407 b 225 439 236 424 232 433 b 199 450 218 446 209 450 l 157 450 l 157 347 l 187 347 l 187 379 m 286 450 l 257 450 l 257 347 l 286 347 m 296 347 l 320 347 b 333 357 325 347 329 350 l 336 364 l 371 364 l 376 357 b 388 347 379 350 383 347 l 411 347 l 367 450 l 341 450 m 487 347 l 487 374 l 450 374 l 450 450 l 422 450 l 422 347 m 809 435 b 795 397 799 425 795 412 b 809 359 795 381 799 369 b 847 344 819 349 832 344 b 886 359 863 344 876 349 b 901 397 896 369 901 381 b 886 435 901 412 896 425 b 847 450 876 445 863 450 b 809 435 832 450 819 445 m 980 412 b 983 392 980 404 981 398 l 951 438 b 946 445 950 442 948 444 b 939 447 945 447 942 447 l 914 447 l 914 346 l 945 346 l 945 386 b 942 405 945 389 944 396 l 976 352 b 989 346 980 348 984 346 l 1010 346 l 1010 447 l 980 447 l 980 412 m 1095 346 l 1095 373 l 1059 373 l 1059 447 l 1030 447 l 1030 346 m 1153 376 b 1155 386 1153 380 1154 384 l 1192 447 l 1164 447 b 1153 441 1159 447 1155 445 l 1141 421 b 1139 412 1140 418 1139 415 b 1136 405 1138 409 1137 407 b 1133 421 1136 410 1135 416 l 1122 441 b 1110 447 1119 445 1115 447 l 1083 447 l 1120 386 b 1122 376 1121 384 1122 381 l 1122 346 l 1153 346 l 1153 376 m 197 421 b 205 414 202 421 205 419 b 203 408 205 412 204 410 b 198 406 201 407 200 406 l 187 406 l 187 421 l 197 421 m 830 379 b 823 397 825 384 823 390 b 830 414 823 403 825 409 b 847 421 835 419 840 421 b 864 414 854 421 859 419 b 870 397 868 409 870 403 b 864 379 870 390 868 384 b 847 373 859 375 854 373 b 830 379 840 373 835 375 m 349 398 b 352 405 350 399 351 401 b 353 417 353 409 353 413 l 355 417 b 358 398 355 408 356 402 l 364 385 l 344 385 l 349 398 m 706 386 b 689 373 696 378 690 374 b 681 369 687 372 684 371 b 672 364 678 366 675 365 b 662 362 669 364 666 363 b 649 359 658 361 653 360 b 628 356 642 357 635 356 b 586 364 612 356 598 359 b 550 386 574 369 562 377 m 50 218 l 50 247 l 78 247 l 78 254 l 50 254 l 50 277 l 84 277 l 84 285 l 43 285 l 43 218 m 108 230 b 102 244 104 233 102 238 l 102 285 l 95 285 l 95 244 b 102 224 95 236 97 229 b 121 217 107 219 113 217 b 141 224 129 217 136 219 b 149 244 146 230 149 236 l 149 285 l 140 285 l 140 244 b 135 229 140 238 138 233 b 121 224 132 226 127 224 b 108 230 115 224 111 226 m 202 218 l 202 225 l 174 225 l 174 285 l 166 285 l 166 218 m 254 218 l 254 225 l 223 225 l 223 285 l 217 285 l 217 218 m 343 284 b 342 282 342 284 342 283 l 321 233 b 320 226 321 231 320 228 l 319 226 b 318 233 319 228 319 231 l 296 282 b 291 285 296 284 295 285 l 286 285 l 316 218 l 323 218 l 351 285 l 346 285 b 343 284 345 285 344 285 m 403 225 l 368 225 l 368 248 l 397 248 l 397 256 l 368 256 l 368 277 l 403 277 l 403 285 l 362 285 l 362 218 l 403 218 m 435 246 l 455 221 b 463 218 458 219 460 218 l 467 218 l 447 245 b 444 247 447 246 446 247 l 444 247 b 455 253 448 248 451 250 b 461 265 459 256 461 260 b 455 279 461 271 459 275 b 441 285 451 283 446 285 l 417 285 l 417 218 l 426 218 l 426 246 m 482 220 b 493 217 486 218 489 217 b 509 222 500 217 505 218 b 514 237 512 226 514 231 b 495 257 514 247 508 253 b 484 268 488 260 484 264 b 494 278 484 275 487 278 b 506 275 498 278 502 277 b 510 277 507 274 509 275 l 511 279 b 494 285 508 283 502 285 b 481 281 489 285 484 284 b 475 268 477 278 475 274 b 493 250 475 261 481 255 b 508 237 503 246 508 242 b 504 227 508 233 506 230 b 493 224 501 225 497 224 b 479 230 488 225 484 227 b 476 230 479 230 478 231 b 473 228 475 230 474 229 l 472 227 b 482 220 474 224 478 222 m 536 285 l 530 285 l 530 218 l 536 218 m 561 275 b 551 251 554 268 551 260 b 561 227 551 241 554 233 b 586 217 568 220 576 217 b 611 226 596 217 604 220 b 621 251 617 233 621 241 b 611 276 621 261 617 269 b 586 285 604 282 596 285 b 561 275 576 285 568 282 m 680 235 b 681 230 680 233 681 231 l 646 283 b 640 285 644 284 642 285 l 634 285 l 634 218 l 642 218 l 642 270 l 641 275 l 680 220 b 682 218 680 219 681 218 l 689 218 l 689 285 l 680 285 l 680 235 m 567 232 b 558 251 561 238 558 244 b 566 270 558 258 561 265 b 586 278 572 275 579 278 b 605 270 593 278 599 275 b 613 251 610 265 613 258 b 605 232 613 244 610 238 b 586 224 599 227 593 224 b 567 232 579 224 573 227 m 441 277 b 449 274 444 277 446 276 b 453 265 451 271 453 269 b 449 257 453 262 451 259 b 441 254 446 255 444 254 l 426 254 l 426 277 l 441 277 m 1178 273 l 1176 270 b 1177 264 1174 268 1174 266 l 1186 255 l 727 255 l 727 248 l 1185 248 l 1177 239 b 1176 233 1175 237 1175 235 l 1178 230 l 1196 248 b 1198 252 1197 248 1198 250 b 1196 256 1198 253 1197 255 m 479 170 b 464 134 469 161 464 149 b 478 99 464 120 469 108 b 514 84 487 89 499 84 b 551 99 529 84 541 89 b 566 134 561 108 566 120 b 551 170 566 148 561 160 b 514 184 541 179 529 184 b 479 170 500 184 488 179 m 800 84 b 826 93 811 84 819 87 b 836 116 832 99 836 107 b 806 149 836 134 826 145 b 796 155 799 151 796 153 b 800 158 796 157 797 158 b 806 157 801 158 803 158 b 812 155 809 156 811 155 b 825 163 818 155 822 158 l 830 172 b 817 181 827 176 822 179 b 800 184 811 183 805 184 b 776 176 791 184 782 181 b 767 155 770 171 767 164 b 775 136 767 147 769 141 b 800 123 780 132 788 127 b 806 116 804 122 806 119 b 800 111 806 113 804 111 b 791 113 797 111 794 111 b 786 116 788 114 787 115 b 778 118 784 117 781 118 b 765 111 774 118 769 116 l 761 100 b 800 84 773 90 786 84 m 897 99 b 932 84 906 89 918 84 b 954 90 940 84 947 86 b 969 104 961 94 966 98 l 963 113 b 953 117 960 116 957 117 b 944 114 949 117 946 116 b 931 111 939 112 935 111 b 916 117 925 111 920 113 b 910 134 912 122 910 127 b 916 151 910 141 912 146 b 931 158 920 155 925 158 b 939 156 934 158 937 157 b 944 154 941 155 943 154 b 952 151 946 152 949 151 b 963 155 957 151 960 152 l 969 164 b 954 178 966 170 961 174 b 932 184 947 182 940 184 b 897 170 918 184 906 179 b 883 134 887 160 883 148 b 897 99 883 120 887 108 m 991 170 b 976 134 981 161 976 149 b 991 99 976 120 981 108 b 1027 84 1000 89 1013 84 b 1063 99 1042 84 1054 89 b 1078 134 1073 108 1078 120 b 1063 170 1078 149 1073 161 b 1027 184 1054 179 1042 184 b 991 170 1013 184 1000 179 m 116 113 l 89 113 b 75 108 84 113 79 111 l 113 158 b 116 170 115 161 116 165 l 116 183 l 41 183 l 41 157 l 69 157 b 78 161 73 157 76 158 l 43 111 b 38 106 41 109 39 107 b 37 99 38 104 37 102 l 37 85 l 116 85 m 196 113 l 157 113 l 157 122 l 189 122 l 189 146 l 157 146 l 157 157 l 196 157 l 196 183 l 130 183 l 130 85 l 196 85 m 228 157 l 228 85 l 256 85 l 256 157 l 279 157 l 279 183 l 202 183 l 202 157 m 270 85 l 292 85 b 299 88 295 85 297 86 b 304 96 301 90 303 93 l 307 102 l 342 102 l 345 96 b 351 88 346 93 348 90 b 358 85 353 86 356 85 l 380 85 l 338 183 l 313 183 m 417 85 l 417 119 l 449 119 l 449 143 l 417 143 l 417 157 l 455 157 l 455 183 l 388 183 l 388 85 m 640 149 b 643 131 640 141 641 135 l 614 174 b 609 181 612 177 611 180 b 601 183 608 182 605 183 l 579 183 l 579 85 l 608 85 l 608 125 b 604 142 608 131 607 137 l 605 142 l 638 91 b 649 85 641 87 644 85 l 669 85 l 669 183 l 640 183 l 640 149 m 704 157 l 704 85 l 733 85 l 733 157 l 759 157 l 759 183 l 680 183 l 680 157 m 1153 139 b 1150 128 1151 136 1150 133 l 1148 128 b 1145 139 1148 133 1147 136 l 1129 174 b 1123 180 1127 176 1125 179 b 1116 183 1122 182 1119 183 l 1092 183 l 1092 85 l 1120 85 l 1120 128 b 1116 143 1120 132 1119 137 l 1118 143 l 1136 102 b 1150 94 1138 97 1143 94 b 1161 102 1154 94 1158 97 l 1180 143 b 1178 136 1179 141 1179 138 b 1178 128 1178 133 1178 131 l 1178 85 l 1205 85 l 1205 183 l 1181 183 b 1170 174 1177 183 1173 180 m 498 117 b 492 134 494 122 492 127 b 498 151 492 141 494 146 b 514 158 503 155 508 158 b 530 151 521 158 526 155 b 536 134 534 147 536 141 b 530 117 536 127 534 122 b 514 111 526 113 521 111 b 498 117 508 111 503 113 m 1011 117 b 1005 134 1007 122 1005 127 b 1011 151 1005 141 1007 147 b 1027 158 1016 155 1021 158 b 1044 151 1033 158 1039 155 b 1051 134 1048 146 1051 141 b 1044 117 1051 127 1048 122 b 1027 111 1039 113 1033 111 b 1011 117 1021 111 1016 113 m 321 134 b 324 152 323 139 324 145 l 326 152 b 329 134 326 143 327 137 l 335 120 l 316 120 l 321 134 m 848 88 b 859 84 851 86 854 84 b 869 88 863 84 866 86 b 873 99 872 91 873 95 b 869 110 873 103 872 107 b 859 114 866 113 863 114 b 848 110 854 114 851 113 b 844 99 845 107 844 103 b 848 88 844 95 845 91 "},"6":{"ha":1217,"x_min":0,"x_max":0,"o":"m 38 314 l 38 476 l 485 476 l 485 478 l 485 490 b 485 491 485 491 485 491 l 485 493 b 486 499 485 495 486 497 b 487 505 487 501 487 503 b 487 509 487 506 487 507 b 489 514 487 510 488 512 b 540 591 497 545 514 571 b 628 621 565 611 595 621 b 700 602 654 621 678 615 b 752 550 722 589 739 571 b 771 478 765 528 771 504 l 771 476 l 1217 476 l 1217 314 m 695 361 b 743 410 715 373 731 389 b 761 476 755 430 761 452 b 743 542 761 500 755 522 b 695 590 731 562 715 578 b 629 607 675 601 653 607 b 562 590 605 607 583 601 b 514 542 542 578 526 562 b 497 476 502 522 497 500 b 514 409 497 452 502 430 b 562 361 526 389 542 373 b 629 343 583 349 605 343 b 695 361 653 343 675 349 m 697 570 b 706 564 700 568 703 566 l 548 564 b 566 577 552 568 558 573 b 585 585 574 581 581 584 b 628 594 596 591 611 594 b 672 585 642 594 657 591 l 689 575 b 697 570 692 573 694 572 m 745 476 b 739 435 745 461 743 448 b 718 399 736 425 729 413 l 563 399 l 716 555 b 745 476 736 529 745 503 m 539 395 b 516 433 529 408 521 421 b 509 476 511 447 509 461 b 510 494 509 484 509 490 b 517 517 511 503 513 510 b 537 550 521 530 528 541 l 694 550 l 539 395 m 90 423 l 90 347 l 119 347 l 119 423 l 145 423 l 145 450 l 64 450 l 64 423 m 196 379 l 208 356 b 220 347 211 350 215 347 l 246 347 l 228 379 b 210 389 222 386 216 389 l 213 389 b 228 397 218 389 223 392 b 236 414 233 401 236 407 b 225 439 236 424 232 433 b 199 450 218 446 209 450 l 157 450 l 157 347 l 187 347 l 187 379 m 286 450 l 257 450 l 257 347 l 286 347 m 296 347 l 320 347 b 333 357 325 347 329 350 l 336 364 l 371 364 l 376 357 b 388 347 379 350 383 347 l 411 347 l 367 450 l 341 450 m 487 347 l 487 374 l 450 374 l 450 450 l 422 450 l 422 347 m 809 435 b 795 397 799 425 795 412 b 809 359 795 381 799 369 b 847 344 819 349 832 344 b 886 359 863 344 876 349 b 901 397 896 369 901 381 b 886 435 901 412 896 425 b 847 450 876 445 863 450 b 809 435 832 450 819 445 m 980 412 b 983 392 980 404 981 398 l 951 438 b 946 445 950 442 948 444 b 939 447 945 447 942 447 l 914 447 l 914 346 l 945 346 l 945 386 b 942 405 945 389 944 396 l 976 352 b 989 346 980 348 984 346 l 1010 346 l 1010 447 l 980 447 l 980 412 m 1095 346 l 1095 373 l 1059 373 l 1059 447 l 1030 447 l 1030 346 m 1153 376 b 1155 386 1153 380 1154 384 l 1192 447 l 1164 447 b 1153 441 1159 447 1155 445 l 1141 421 b 1139 412 1140 418 1139 415 b 1136 405 1138 409 1137 407 b 1133 421 1136 410 1135 416 l 1122 441 b 1110 447 1119 445 1115 447 l 1083 447 l 1120 386 b 1122 376 1121 384 1122 381 l 1122 346 l 1153 346 l 1153 376 m 197 421 b 205 414 202 421 205 419 b 203 408 205 412 204 410 b 198 406 201 407 200 406 l 187 406 l 187 421 l 197 421 m 830 379 b 823 397 825 384 823 390 b 830 414 823 403 825 409 b 847 421 835 419 840 421 b 864 414 854 421 859 419 b 870 397 868 409 870 403 b 864 379 870 390 868 384 b 847 373 859 375 854 373 b 830 379 840 373 835 375 m 349 398 b 352 405 350 399 351 401 b 353 417 353 409 353 413 l 355 417 b 358 398 355 408 356 402 l 364 385 l 344 385 l 349 398 m 706 386 b 689 373 696 378 690 374 b 681 369 687 372 684 371 b 672 364 678 366 675 365 b 662 362 669 364 666 363 b 649 359 658 361 653 360 b 628 356 642 357 635 356 b 586 364 612 356 598 359 b 550 386 574 369 562 377 m 50 218 l 50 247 l 78 247 l 78 254 l 50 254 l 50 277 l 84 277 l 84 285 l 43 285 l 43 218 m 108 230 b 102 244 104 233 102 238 l 102 285 l 95 285 l 95 244 b 102 224 95 236 97 229 b 121 217 107 219 113 217 b 141 224 129 217 136 219 b 149 244 146 230 149 236 l 149 285 l 140 285 l 140 244 b 135 229 140 238 138 233 b 121 224 132 226 127 224 b 108 230 115 224 111 226 m 202 218 l 202 225 l 174 225 l 174 285 l 166 285 l 166 218 m 254 218 l 254 225 l 223 225 l 223 285 l 217 285 l 217 218 m 343 284 b 342 282 342 284 342 283 l 321 233 b 320 226 321 231 320 228 l 319 226 b 318 233 319 228 319 231 l 296 282 b 291 285 296 284 295 285 l 286 285 l 316 218 l 323 218 l 351 285 l 346 285 b 343 284 345 285 344 285 m 403 225 l 368 225 l 368 248 l 397 248 l 397 256 l 368 256 l 368 277 l 403 277 l 403 285 l 362 285 l 362 218 l 403 218 m 435 246 l 455 221 b 463 218 458 219 460 218 l 467 218 l 447 245 b 444 247 447 246 446 247 l 444 247 b 455 253 448 248 451 250 b 461 265 459 256 461 260 b 455 279 461 271 459 275 b 441 285 451 283 446 285 l 417 285 l 417 218 l 426 218 l 426 246 m 482 220 b 493 217 486 218 489 217 b 509 222 500 217 505 218 b 514 237 512 226 514 231 b 495 257 514 247 508 253 b 484 268 488 260 484 264 b 494 278 484 275 487 278 b 506 275 498 278 502 277 b 510 277 507 274 509 275 l 511 279 b 494 285 508 283 502 285 b 481 281 489 285 484 284 b 475 268 477 278 475 274 b 493 250 475 261 481 255 b 508 237 503 246 508 242 b 504 227 508 233 506 230 b 493 224 501 225 497 224 b 479 230 488 225 484 227 b 476 230 479 230 478 231 b 473 228 475 230 474 229 l 472 227 b 482 220 474 224 478 222 m 536 285 l 530 285 l 530 218 l 536 218 m 561 275 b 551 251 554 268 551 260 b 561 227 551 241 554 233 b 586 217 568 220 576 217 b 611 226 596 217 604 220 b 621 251 617 233 621 241 b 611 276 621 261 617 269 b 586 285 604 282 596 285 b 561 275 576 285 568 282 m 680 235 b 681 230 680 233 681 231 l 646 283 b 640 285 644 284 642 285 l 634 285 l 634 218 l 642 218 l 642 270 l 641 275 l 680 220 b 682 218 680 219 681 218 l 689 218 l 689 285 l 680 285 l 680 235 m 567 232 b 558 251 561 238 558 244 b 566 270 558 258 561 265 b 586 278 572 275 579 278 b 605 270 593 278 599 275 b 613 251 610 265 613 258 b 605 232 613 244 610 238 b 586 224 599 227 593 224 b 567 232 579 224 573 227 m 441 277 b 449 274 444 277 446 276 b 453 265 451 271 453 269 b 449 257 453 262 451 259 b 441 254 446 255 444 254 l 426 254 l 426 277 l 441 277 m 1178 273 l 1176 270 b 1177 264 1174 268 1174 266 l 1186 255 l 727 255 l 727 248 l 1185 248 l 1177 239 b 1176 233 1175 237 1175 235 l 1178 230 l 1196 248 b 1198 252 1197 248 1198 250 b 1196 256 1198 253 1197 255 m 479 170 b 464 134 469 161 464 149 b 478 99 464 120 469 108 b 514 84 487 89 499 84 b 551 99 529 84 541 89 b 566 134 561 108 566 120 b 551 170 566 148 561 160 b 514 184 541 179 529 184 b 479 170 500 184 488 179 m 800 84 b 826 93 811 84 819 87 b 836 116 832 99 836 107 b 806 149 836 134 826 145 b 796 155 799 151 796 153 b 800 158 796 157 797 158 b 806 157 801 158 803 158 b 812 155 809 156 811 155 b 825 163 818 155 822 158 l 830 172 b 817 181 827 176 822 179 b 800 184 811 183 805 184 b 776 176 791 184 782 181 b 767 155 770 171 767 164 b 775 136 767 147 769 141 b 800 123 780 132 788 127 b 806 116 804 122 806 119 b 800 111 806 113 804 111 b 791 113 797 111 794 111 b 786 116 788 114 787 115 b 778 118 784 117 781 118 b 765 111 774 118 769 116 l 761 100 b 800 84 773 90 786 84 m 897 99 b 932 84 906 89 918 84 b 954 90 940 84 947 86 b 969 104 961 94 966 98 l 963 113 b 953 117 960 116 957 117 b 944 114 949 117 946 116 b 931 111 939 112 935 111 b 916 117 925 111 920 113 b 910 134 912 122 910 127 b 916 151 910 141 912 146 b 931 158 920 155 925 158 b 939 156 934 158 937 157 b 944 154 941 155 943 154 b 952 151 946 152 949 151 b 963 155 957 151 960 152 l 969 164 b 954 178 966 170 961 174 b 932 184 947 182 940 184 b 897 170 918 184 906 179 b 883 134 887 160 883 148 b 897 99 883 120 887 108 m 991 170 b 976 134 981 161 976 149 b 991 99 976 120 981 108 b 1027 84 1000 89 1013 84 b 1063 99 1042 84 1054 89 b 1078 134 1073 108 1078 120 b 1063 170 1078 149 1073 161 b 1027 184 1054 179 1042 184 b 991 170 1013 184 1000 179 m 116 113 l 89 113 b 75 108 84 113 79 111 l 113 158 b 116 170 115 161 116 165 l 116 183 l 41 183 l 41 157 l 69 157 b 78 161 73 157 76 158 l 43 111 b 38 106 41 109 39 107 b 37 99 38 104 37 102 l 37 85 l 116 85 m 196 113 l 157 113 l 157 122 l 189 122 l 189 146 l 157 146 l 157 157 l 196 157 l 196 183 l 130 183 l 130 85 l 196 85 m 228 157 l 228 85 l 256 85 l 256 157 l 279 157 l 279 183 l 202 183 l 202 157 m 270 85 l 292 85 b 299 88 295 85 297 86 b 304 96 301 90 303 93 l 307 102 l 342 102 l 345 96 b 351 88 346 93 348 90 b 358 85 353 86 356 85 l 380 85 l 338 183 l 313 183 m 417 85 l 417 119 l 449 119 l 449 143 l 417 143 l 417 157 l 455 157 l 455 183 l 388 183 l 388 85 m 640 149 b 643 131 640 141 641 135 l 614 174 b 609 181 612 177 611 180 b 601 183 608 182 605 183 l 579 183 l 579 85 l 608 85 l 608 125 b 604 142 608 131 607 137 l 605 142 l 638 91 b 649 85 641 87 644 85 l 669 85 l 669 183 l 640 183 l 640 149 m 704 157 l 704 85 l 733 85 l 733 157 l 759 157 l 759 183 l 680 183 l 680 157 m 1153 139 b 1150 128 1151 136 1150 133 l 1148 128 b 1145 139 1148 133 1147 136 l 1129 174 b 1123 180 1127 176 1125 179 b 1116 183 1122 182 1119 183 l 1092 183 l 1092 85 l 1120 85 l 1120 128 b 1116 143 1120 132 1119 137 l 1118 143 l 1136 102 b 1150 94 1138 97 1143 94 b 1161 102 1154 94 1158 97 l 1180 143 b 1178 136 1179 141 1179 138 b 1178 128 1178 133 1178 131 l 1178 85 l 1205 85 l 1205 183 l 1181 183 b 1170 174 1177 183 1173 180 m 498 117 b 492 134 494 122 492 127 b 498 151 492 141 494 146 b 514 158 503 155 508 158 b 530 151 521 158 526 155 b 536 134 534 147 536 141 b 530 117 536 127 534 122 b 514 111 526 113 521 111 b 498 117 508 111 503 113 m 1011 117 b 1005 134 1007 122 1005 127 b 1011 151 1005 141 1007 147 b 1027 158 1016 155 1021 158 b 1044 151 1033 158 1039 155 b 1051 134 1048 146 1051 141 b 1044 117 1051 127 1048 122 b 1027 111 1039 113 1033 111 b 1011 117 1021 111 1016 113 m 321 134 b 324 152 323 139 324 145 l 326 152 b 329 134 326 143 327 137 l 335 120 l 316 120 l 321 134 m 848 88 b 859 84 851 86 854 84 b 869 88 863 84 866 86 b 873 99 872 91 873 95 b 869 110 873 103 872 107 b 859 114 866 113 863 114 b 848 110 854 114 851 113 b 844 99 845 107 844 103 b 848 88 844 95 845 91 "},"7":{"ha":1217,"x_min":0,"x_max":0,"o":"m 38 314 l 38 476 l 485 476 l 485 478 l 485 490 b 485 491 485 491 485 491 l 485 493 b 486 499 485 495 486 497 b 487 505 487 501 487 503 b 487 509 487 506 487 507 b 489 514 487 510 488 512 b 540 591 497 545 514 571 b 628 621 565 611 595 621 b 700 602 654 621 678 615 b 752 550 722 589 739 571 b 771 478 765 528 771 504 l 771 476 l 1217 476 l 1217 314 m 695 361 b 743 410 715 373 731 389 b 761 476 755 430 761 452 b 743 542 761 500 755 522 b 695 590 731 562 715 578 b 629 607 675 601 653 607 b 562 590 605 607 583 601 b 514 542 542 578 526 562 b 497 476 502 522 497 500 b 514 409 497 452 502 430 b 562 361 526 389 542 373 b 629 343 583 349 605 343 b 695 361 653 343 675 349 m 697 570 b 706 564 700 568 703 566 l 548 564 b 566 577 552 568 558 573 b 585 585 574 581 581 584 b 628 594 596 591 611 594 b 672 585 642 594 657 591 l 689 575 b 697 570 692 573 694 572 m 745 476 b 739 435 745 461 743 448 b 718 399 736 425 729 413 l 563 399 l 716 555 b 745 476 736 529 745 503 m 539 395 b 516 433 529 408 521 421 b 509 476 511 447 509 461 b 510 494 509 484 509 490 b 517 517 511 503 513 510 b 537 550 521 530 528 541 l 694 550 l 539 395 m 90 423 l 90 347 l 119 347 l 119 423 l 145 423 l 145 450 l 64 450 l 64 423 m 196 379 l 208 356 b 220 347 211 350 215 347 l 246 347 l 228 379 b 210 389 222 386 216 389 l 213 389 b 228 397 218 389 223 392 b 236 414 233 401 236 407 b 225 439 236 424 232 433 b 199 450 218 446 209 450 l 157 450 l 157 347 l 187 347 l 187 379 m 286 450 l 257 450 l 257 347 l 286 347 m 296 347 l 320 347 b 333 357 325 347 329 350 l 336 364 l 371 364 l 376 357 b 388 347 379 350 383 347 l 411 347 l 367 450 l 341 450 m 487 347 l 487 374 l 450 374 l 450 450 l 422 450 l 422 347 m 809 435 b 795 397 799 425 795 412 b 809 359 795 381 799 369 b 847 344 819 349 832 344 b 886 359 863 344 876 349 b 901 397 896 369 901 381 b 886 435 901 412 896 425 b 847 450 876 445 863 450 b 809 435 832 450 819 445 m 980 412 b 983 392 980 404 981 398 l 951 438 b 946 445 950 442 948 444 b 939 447 945 447 942 447 l 914 447 l 914 346 l 945 346 l 945 386 b 942 405 945 389 944 396 l 976 352 b 989 346 980 348 984 346 l 1010 346 l 1010 447 l 980 447 l 980 412 m 1095 346 l 1095 373 l 1059 373 l 1059 447 l 1030 447 l 1030 346 m 1153 376 b 1155 386 1153 380 1154 384 l 1192 447 l 1164 447 b 1153 441 1159 447 1155 445 l 1141 421 b 1139 412 1140 418 1139 415 b 1136 405 1138 409 1137 407 b 1133 421 1136 410 1135 416 l 1122 441 b 1110 447 1119 445 1115 447 l 1083 447 l 1120 386 b 1122 376 1121 384 1122 381 l 1122 346 l 1153 346 l 1153 376 m 197 421 b 205 414 202 421 205 419 b 203 408 205 412 204 410 b 198 406 201 407 200 406 l 187 406 l 187 421 l 197 421 m 830 379 b 823 397 825 384 823 390 b 830 414 823 403 825 409 b 847 421 835 419 840 421 b 864 414 854 421 859 419 b 870 397 868 409 870 403 b 864 379 870 390 868 384 b 847 373 859 375 854 373 b 830 379 840 373 835 375 m 349 398 b 352 405 350 399 351 401 b 353 417 353 409 353 413 l 355 417 b 358 398 355 408 356 402 l 364 385 l 344 385 l 349 398 m 706 386 b 689 373 696 378 690 374 b 681 369 687 372 684 371 b 672 364 678 366 675 365 b 662 362 669 364 666 363 b 649 359 658 361 653 360 b 628 356 642 357 635 356 b 586 364 612 356 598 359 b 550 386 574 369 562 377 m 50 218 l 50 247 l 78 247 l 78 254 l 50 254 l 50 277 l 84 277 l 84 285 l 43 285 l 43 218 m 108 230 b 102 244 104 233 102 238 l 102 285 l 95 285 l 95 244 b 102 224 95 236 97 229 b 121 217 107 219 113 217 b 141 224 129 217 136 219 b 149 244 146 230 149 236 l 149 285 l 140 285 l 140 244 b 135 229 140 238 138 233 b 121 224 132 226 127 224 b 108 230 115 224 111 226 m 202 218 l 202 225 l 174 225 l 174 285 l 166 285 l 166 218 m 254 218 l 254 225 l 223 225 l 223 285 l 217 285 l 217 218 m 343 284 b 342 282 342 284 342 283 l 321 233 b 320 226 321 231 320 228 l 319 226 b 318 233 319 228 319 231 l 296 282 b 291 285 296 284 295 285 l 286 285 l 316 218 l 323 218 l 351 285 l 346 285 b 343 284 345 285 344 285 m 403 225 l 368 225 l 368 248 l 397 248 l 397 256 l 368 256 l 368 277 l 403 277 l 403 285 l 362 285 l 362 218 l 403 218 m 435 246 l 455 221 b 463 218 458 219 460 218 l 467 218 l 447 245 b 444 247 447 246 446 247 l 444 247 b 455 253 448 248 451 250 b 461 265 459 256 461 260 b 455 279 461 271 459 275 b 441 285 451 283 446 285 l 417 285 l 417 218 l 426 218 l 426 246 m 482 220 b 493 217 486 218 489 217 b 509 222 500 217 505 218 b 514 237 512 226 514 231 b 495 257 514 247 508 253 b 484 268 488 260 484 264 b 494 278 484 275 487 278 b 506 275 498 278 502 277 b 510 277 507 274 509 275 l 511 279 b 494 285 508 283 502 285 b 481 281 489 285 484 284 b 475 268 477 278 475 274 b 493 250 475 261 481 255 b 508 237 503 246 508 242 b 504 227 508 233 506 230 b 493 224 501 225 497 224 b 479 230 488 225 484 227 b 476 230 479 230 478 231 b 473 228 475 230 474 229 l 472 227 b 482 220 474 224 478 222 m 536 285 l 530 285 l 530 218 l 536 218 m 561 275 b 551 251 554 268 551 260 b 561 227 551 241 554 233 b 586 217 568 220 576 217 b 611 226 596 217 604 220 b 621 251 617 233 621 241 b 611 276 621 261 617 269 b 586 285 604 282 596 285 b 561 275 576 285 568 282 m 680 235 b 681 230 680 233 681 231 l 646 283 b 640 285 644 284 642 285 l 634 285 l 634 218 l 642 218 l 642 270 l 641 275 l 680 220 b 682 218 680 219 681 218 l 689 218 l 689 285 l 680 285 l 680 235 m 567 232 b 558 251 561 238 558 244 b 566 270 558 258 561 265 b 586 278 572 275 579 278 b 605 270 593 278 599 275 b 613 251 610 265 613 258 b 605 232 613 244 610 238 b 586 224 599 227 593 224 b 567 232 579 224 573 227 m 441 277 b 449 274 444 277 446 276 b 453 265 451 271 453 269 b 449 257 453 262 451 259 b 441 254 446 255 444 254 l 426 254 l 426 277 l 441 277 m 1178 273 l 1176 270 b 1177 264 1174 268 1174 266 l 1186 255 l 727 255 l 727 248 l 1185 248 l 1177 239 b 1176 233 1175 237 1175 235 l 1178 230 l 1196 248 b 1198 252 1197 248 1198 250 b 1196 256 1198 253 1197 255 m 479 170 b 464 134 469 161 464 149 b 478 99 464 120 469 108 b 514 84 487 89 499 84 b 551 99 529 84 541 89 b 566 134 561 108 566 120 b 551 170 566 148 561 160 b 514 184 541 179 529 184 b 479 170 500 184 488 179 m 800 84 b 826 93 811 84 819 87 b 836 116 832 99 836 107 b 806 149 836 134 826 145 b 796 155 799 151 796 153 b 800 158 796 157 797 158 b 806 157 801 158 803 158 b 812 155 809 156 811 155 b 825 163 818 155 822 158 l 830 172 b 817 181 827 176 822 179 b 800 184 811 183 805 184 b 776 176 791 184 782 181 b 767 155 770 171 767 164 b 775 136 767 147 769 141 b 800 123 780 132 788 127 b 806 116 804 122 806 119 b 800 111 806 113 804 111 b 791 113 797 111 794 111 b 786 116 788 114 787 115 b 778 118 784 117 781 118 b 765 111 774 118 769 116 l 761 100 b 800 84 773 90 786 84 m 897 99 b 932 84 906 89 918 84 b 954 90 940 84 947 86 b 969 104 961 94 966 98 l 963 113 b 953 117 960 116 957 117 b 944 114 949 117 946 116 b 931 111 939 112 935 111 b 916 117 925 111 920 113 b 910 134 912 122 910 127 b 916 151 910 141 912 146 b 931 158 920 155 925 158 b 939 156 934 158 937 157 b 944 154 941 155 943 154 b 952 151 946 152 949 151 b 963 155 957 151 960 152 l 969 164 b 954 178 966 170 961 174 b 932 184 947 182 940 184 b 897 170 918 184 906 179 b 883 134 887 160 883 148 b 897 99 883 120 887 108 m 991 170 b 976 134 981 161 976 149 b 991 99 976 120 981 108 b 1027 84 1000 89 1013 84 b 1063 99 1042 84 1054 89 b 1078 134 1073 108 1078 120 b 1063 170 1078 149 1073 161 b 1027 184 1054 179 1042 184 b 991 170 1013 184 1000 179 m 116 113 l 89 113 b 75 108 84 113 79 111 l 113 158 b 116 170 115 161 116 165 l 116 183 l 41 183 l 41 157 l 69 157 b 78 161 73 157 76 158 l 43 111 b 38 106 41 109 39 107 b 37 99 38 104 37 102 l 37 85 l 116 85 m 196 113 l 157 113 l 157 122 l 189 122 l 189 146 l 157 146 l 157 157 l 196 157 l 196 183 l 130 183 l 130 85 l 196 85 m 228 157 l 228 85 l 256 85 l 256 157 l 279 157 l 279 183 l 202 183 l 202 157 m 270 85 l 292 85 b 299 88 295 85 297 86 b 304 96 301 90 303 93 l 307 102 l 342 102 l 345 96 b 351 88 346 93 348 90 b 358 85 353 86 356 85 l 380 85 l 338 183 l 313 183 m 417 85 l 417 119 l 449 119 l 449 143 l 417 143 l 417 157 l 455 157 l 455 183 l 388 183 l 388 85 m 640 149 b 643 131 640 141 641 135 l 614 174 b 609 181 612 177 611 180 b 601 183 608 182 605 183 l 579 183 l 579 85 l 608 85 l 608 125 b 604 142 608 131 607 137 l 605 142 l 638 91 b 649 85 641 87 644 85 l 669 85 l 669 183 l 640 183 l 640 149 m 704 157 l 704 85 l 733 85 l 733 157 l 759 157 l 759 183 l 680 183 l 680 157 m 1153 139 b 1150 128 1151 136 1150 133 l 1148 128 b 1145 139 1148 133 1147 136 l 1129 174 b 1123 180 1127 176 1125 179 b 1116 183 1122 182 1119 183 l 1092 183 l 1092 85 l 1120 85 l 1120 128 b 1116 143 1120 132 1119 137 l 1118 143 l 1136 102 b 1150 94 1138 97 1143 94 b 1161 102 1154 94 1158 97 l 1180 143 b 1178 136 1179 141 1179 138 b 1178 128 1178 133 1178 131 l 1178 85 l 1205 85 l 1205 183 l 1181 183 b 1170 174 1177 183 1173 180 m 498 117 b 492 134 494 122 492 127 b 498 151 492 141 494 146 b 514 158 503 155 508 158 b 530 151 521 158 526 155 b 536 134 534 147 536 141 b 530 117 536 127 534 122 b 514 111 526 113 521 111 b 498 117 508 111 503 113 m 1011 117 b 1005 134 1007 122 1005 127 b 1011 151 1005 141 1007 147 b 1027 158 1016 155 1021 158 b 1044 151 1033 158 1039 155 b 1051 134 1048 146 1051 141 b 1044 117 1051 127 1048 122 b 1027 111 1039 113 1033 111 b 1011 117 1021 111 1016 113 m 321 134 b 324 152 323 139 324 145 l 326 152 b 329 134 326 143 327 137 l 335 120 l 316 120 l 321 134 m 848 88 b 859 84 851 86 854 84 b 869 88 863 84 866 86 b 873 99 872 91 873 95 b 869 110 873 103 872 107 b 859 114 866 113 863 114 b 848 110 854 114 851 113 b 844 99 845 107 844 103 b 848 88 844 95 845 91 "},"8":{"ha":1217,"x_min":0,"x_max":0,"o":"m 38 314 l 38 476 l 485 476 l 485 478 l 485 490 b 485 491 485 491 485 491 l 485 493 b 486 499 485 495 486 497 b 487 505 487 501 487 503 b 487 509 487 506 487 507 b 489 514 487 510 488 512 b 540 591 497 545 514 571 b 628 621 565 611 595 621 b 700 602 654 621 678 615 b 752 550 722 589 739 571 b 771 478 765 528 771 504 l 771 476 l 1217 476 l 1217 314 m 695 361 b 743 410 715 373 731 389 b 761 476 755 430 761 452 b 743 542 761 500 755 522 b 695 590 731 562 715 578 b 629 607 675 601 653 607 b 562 590 605 607 583 601 b 514 542 542 578 526 562 b 497 476 502 522 497 500 b 514 409 497 452 502 430 b 562 361 526 389 542 373 b 629 343 583 349 605 343 b 695 361 653 343 675 349 m 697 570 b 706 564 700 568 703 566 l 548 564 b 566 577 552 568 558 573 b 585 585 574 581 581 584 b 628 594 596 591 611 594 b 672 585 642 594 657 591 l 689 575 b 697 570 692 573 694 572 m 745 476 b 739 435 745 461 743 448 b 718 399 736 425 729 413 l 563 399 l 716 555 b 745 476 736 529 745 503 m 539 395 b 516 433 529 408 521 421 b 509 476 511 447 509 461 b 510 494 509 484 509 490 b 517 517 511 503 513 510 b 537 550 521 530 528 541 l 694 550 l 539 395 m 90 423 l 90 347 l 119 347 l 119 423 l 145 423 l 145 450 l 64 450 l 64 423 m 196 379 l 208 356 b 220 347 211 350 215 347 l 246 347 l 228 379 b 210 389 222 386 216 389 l 213 389 b 228 397 218 389 223 392 b 236 414 233 401 236 407 b 225 439 236 424 232 433 b 199 450 218 446 209 450 l 157 450 l 157 347 l 187 347 l 187 379 m 286 450 l 257 450 l 257 347 l 286 347 m 296 347 l 320 347 b 333 357 325 347 329 350 l 336 364 l 371 364 l 376 357 b 388 347 379 350 383 347 l 411 347 l 367 450 l 341 450 m 487 347 l 487 374 l 450 374 l 450 450 l 422 450 l 422 347 m 809 435 b 795 397 799 425 795 412 b 809 359 795 381 799 369 b 847 344 819 349 832 344 b 886 359 863 344 876 349 b 901 397 896 369 901 381 b 886 435 901 412 896 425 b 847 450 876 445 863 450 b 809 435 832 450 819 445 m 980 412 b 983 392 980 404 981 398 l 951 438 b 946 445 950 442 948 444 b 939 447 945 447 942 447 l 914 447 l 914 346 l 945 346 l 945 386 b 942 405 945 389 944 396 l 976 352 b 989 346 980 348 984 346 l 1010 346 l 1010 447 l 980 447 l 980 412 m 1095 346 l 1095 373 l 1059 373 l 1059 447 l 1030 447 l 1030 346 m 1153 376 b 1155 386 1153 380 1154 384 l 1192 447 l 1164 447 b 1153 441 1159 447 1155 445 l 1141 421 b 1139 412 1140 418 1139 415 b 1136 405 1138 409 1137 407 b 1133 421 1136 410 1135 416 l 1122 441 b 1110 447 1119 445 1115 447 l 1083 447 l 1120 386 b 1122 376 1121 384 1122 381 l 1122 346 l 1153 346 l 1153 376 m 197 421 b 205 414 202 421 205 419 b 203 408 205 412 204 410 b 198 406 201 407 200 406 l 187 406 l 187 421 l 197 421 m 830 379 b 823 397 825 384 823 390 b 830 414 823 403 825 409 b 847 421 835 419 840 421 b 864 414 854 421 859 419 b 870 397 868 409 870 403 b 864 379 870 390 868 384 b 847 373 859 375 854 373 b 830 379 840 373 835 375 m 349 398 b 352 405 350 399 351 401 b 353 417 353 409 353 413 l 355 417 b 358 398 355 408 356 402 l 364 385 l 344 385 l 349 398 m 706 386 b 689 373 696 378 690 374 b 681 369 687 372 684 371 b 672 364 678 366 675 365 b 662 362 669 364 666 363 b 649 359 658 361 653 360 b 628 356 642 357 635 356 b 586 364 612 356 598 359 b 550 386 574 369 562 377 m 50 218 l 50 247 l 78 247 l 78 254 l 50 254 l 50 277 l 84 277 l 84 285 l 43 285 l 43 218 m 108 230 b 102 244 104 233 102 238 l 102 285 l 95 285 l 95 244 b 102 224 95 236 97 229 b 121 217 107 219 113 217 b 141 224 129 217 136 219 b 149 244 146 230 149 236 l 149 285 l 140 285 l 140 244 b 135 229 140 238 138 233 b 121 224 132 226 127 224 b 108 230 115 224 111 226 m 202 218 l 202 225 l 174 225 l 174 285 l 166 285 l 166 218 m 254 218 l 254 225 l 223 225 l 223 285 l 217 285 l 217 218 m 343 284 b 342 282 342 284 342 283 l 321 233 b 320 226 321 231 320 228 l 319 226 b 318 233 319 228 319 231 l 296 282 b 291 285 296 284 295 285 l 286 285 l 316 218 l 323 218 l 351 285 l 346 285 b 343 284 345 285 344 285 m 403 225 l 368 225 l 368 248 l 397 248 l 397 256 l 368 256 l 368 277 l 403 277 l 403 285 l 362 285 l 362 218 l 403 218 m 435 246 l 455 221 b 463 218 458 219 460 218 l 467 218 l 447 245 b 444 247 447 246 446 247 l 444 247 b 455 253 448 248 451 250 b 461 265 459 256 461 260 b 455 279 461 271 459 275 b 441 285 451 283 446 285 l 417 285 l 417 218 l 426 218 l 426 246 m 482 220 b 493 217 486 218 489 217 b 509 222 500 217 505 218 b 514 237 512 226 514 231 b 495 257 514 247 508 253 b 484 268 488 260 484 264 b 494 278 484 275 487 278 b 506 275 498 278 502 277 b 510 277 507 274 509 275 l 511 279 b 494 285 508 283 502 285 b 481 281 489 285 484 284 b 475 268 477 278 475 274 b 493 250 475 261 481 255 b 508 237 503 246 508 242 b 504 227 508 233 506 230 b 493 224 501 225 497 224 b 479 230 488 225 484 227 b 476 230 479 230 478 231 b 473 228 475 230 474 229 l 472 227 b 482 220 474 224 478 222 m 536 285 l 530 285 l 530 218 l 536 218 m 561 275 b 551 251 554 268 551 260 b 561 227 551 241 554 233 b 586 217 568 220 576 217 b 611 226 596 217 604 220 b 621 251 617 233 621 241 b 611 276 621 261 617 269 b 586 285 604 282 596 285 b 561 275 576 285 568 282 m 680 235 b 681 230 680 233 681 231 l 646 283 b 640 285 644 284 642 285 l 634 285 l 634 218 l 642 218 l 642 270 l 641 275 l 680 220 b 682 218 680 219 681 218 l 689 218 l 689 285 l 680 285 l 680 235 m 567 232 b 558 251 561 238 558 244 b 566 270 558 258 561 265 b 586 278 572 275 579 278 b 605 270 593 278 599 275 b 613 251 610 265 613 258 b 605 232 613 244 610 238 b 586 224 599 227 593 224 b 567 232 579 224 573 227 m 441 277 b 449 274 444 277 446 276 b 453 265 451 271 453 269 b 449 257 453 262 451 259 b 441 254 446 255 444 254 l 426 254 l 426 277 l 441 277 m 1178 273 l 1176 270 b 1177 264 1174 268 1174 266 l 1186 255 l 727 255 l 727 248 l 1185 248 l 1177 239 b 1176 233 1175 237 1175 235 l 1178 230 l 1196 248 b 1198 252 1197 248 1198 250 b 1196 256 1198 253 1197 255 m 479 170 b 464 134 469 161 464 149 b 478 99 464 120 469 108 b 514 84 487 89 499 84 b 551 99 529 84 541 89 b 566 134 561 108 566 120 b 551 170 566 148 561 160 b 514 184 541 179 529 184 b 479 170 500 184 488 179 m 800 84 b 826 93 811 84 819 87 b 836 116 832 99 836 107 b 806 149 836 134 826 145 b 796 155 799 151 796 153 b 800 158 796 157 797 158 b 806 157 801 158 803 158 b 812 155 809 156 811 155 b 825 163 818 155 822 158 l 830 172 b 817 181 827 176 822 179 b 800 184 811 183 805 184 b 776 176 791 184 782 181 b 767 155 770 171 767 164 b 775 136 767 147 769 141 b 800 123 780 132 788 127 b 806 116 804 122 806 119 b 800 111 806 113 804 111 b 791 113 797 111 794 111 b 786 116 788 114 787 115 b 778 118 784 117 781 118 b 765 111 774 118 769 116 l 761 100 b 800 84 773 90 786 84 m 897 99 b 932 84 906 89 918 84 b 954 90 940 84 947 86 b 969 104 961 94 966 98 l 963 113 b 953 117 960 116 957 117 b 944 114 949 117 946 116 b 931 111 939 112 935 111 b 916 117 925 111 920 113 b 910 134 912 122 910 127 b 916 151 910 141 912 146 b 931 158 920 155 925 158 b 939 156 934 158 937 157 b 944 154 941 155 943 154 b 952 151 946 152 949 151 b 963 155 957 151 960 152 l 969 164 b 954 178 966 170 961 174 b 932 184 947 182 940 184 b 897 170 918 184 906 179 b 883 134 887 160 883 148 b 897 99 883 120 887 108 m 991 170 b 976 134 981 161 976 149 b 991 99 976 120 981 108 b 1027 84 1000 89 1013 84 b 1063 99 1042 84 1054 89 b 1078 134 1073 108 1078 120 b 1063 170 1078 149 1073 161 b 1027 184 1054 179 1042 184 b 991 170 1013 184 1000 179 m 116 113 l 89 113 b 75 108 84 113 79 111 l 113 158 b 116 170 115 161 116 165 l 116 183 l 41 183 l 41 157 l 69 157 b 78 161 73 157 76 158 l 43 111 b 38 106 41 109 39 107 b 37 99 38 104 37 102 l 37 85 l 116 85 m 196 113 l 157 113 l 157 122 l 189 122 l 189 146 l 157 146 l 157 157 l 196 157 l 196 183 l 130 183 l 130 85 l 196 85 m 228 157 l 228 85 l 256 85 l 256 157 l 279 157 l 279 183 l 202 183 l 202 157 m 270 85 l 292 85 b 299 88 295 85 297 86 b 304 96 301 90 303 93 l 307 102 l 342 102 l 345 96 b 351 88 346 93 348 90 b 358 85 353 86 356 85 l 380 85 l 338 183 l 313 183 m 417 85 l 417 119 l 449 119 l 449 143 l 417 143 l 417 157 l 455 157 l 455 183 l 388 183 l 388 85 m 640 149 b 643 131 640 141 641 135 l 614 174 b 609 181 612 177 611 180 b 601 183 608 182 605 183 l 579 183 l 579 85 l 608 85 l 608 125 b 604 142 608 131 607 137 l 605 142 l 638 91 b 649 85 641 87 644 85 l 669 85 l 669 183 l 640 183 l 640 149 m 704 157 l 704 85 l 733 85 l 733 157 l 759 157 l 759 183 l 680 183 l 680 157 m 1153 139 b 1150 128 1151 136 1150 133 l 1148 128 b 1145 139 1148 133 1147 136 l 1129 174 b 1123 180 1127 176 1125 179 b 1116 183 1122 182 1119 183 l 1092 183 l 1092 85 l 1120 85 l 1120 128 b 1116 143 1120 132 1119 137 l 1118 143 l 1136 102 b 1150 94 1138 97 1143 94 b 1161 102 1154 94 1158 97 l 1180 143 b 1178 136 1179 141 1179 138 b 1178 128 1178 133 1178 131 l 1178 85 l 1205 85 l 1205 183 l 1181 183 b 1170 174 1177 183 1173 180 m 498 117 b 492 134 494 122 492 127 b 498 151 492 141 494 146 b 514 158 503 155 508 158 b 530 151 521 158 526 155 b 536 134 534 147 536 141 b 530 117 536 127 534 122 b 514 111 526 113 521 111 b 498 117 508 111 503 113 m 1011 117 b 1005 134 1007 122 1005 127 b 1011 151 1005 141 1007 147 b 1027 158 1016 155 1021 158 b 1044 151 1033 158 1039 155 b 1051 134 1048 146 1051 141 b 1044 117 1051 127 1048 122 b 1027 111 1039 113 1033 111 b 1011 117 1021 111 1016 113 m 321 134 b 324 152 323 139 324 145 l 326 152 b 329 134 326 143 327 137 l 335 120 l 316 120 l 321 134 m 848 88 b 859 84 851 86 854 84 b 869 88 863 84 866 86 b 873 99 872 91 873 95 b 869 110 873 103 872 107 b 859 114 866 113 863 114 b 848 110 854 114 851 113 b 844 99 845 107 844 103 b 848 88 844 95 845 91 "},"9":{"ha":1217,"x_min":0,"x_max":0,"o":"m 38 314 l 38 476 l 485 476 l 485 478 l 485 490 b 485 491 485 491 485 491 l 485 493 b 486 499 485 495 486 497 b 487 505 487 501 487 503 b 487 509 487 506 487 507 b 489 514 487 510 488 512 b 540 591 497 545 514 571 b 628 621 565 611 595 621 b 700 602 654 621 678 615 b 752 550 722 589 739 571 b 771 478 765 528 771 504 l 771 476 l 1217 476 l 1217 314 m 695 361 b 743 410 715 373 731 389 b 761 476 755 430 761 452 b 743 542 761 500 755 522 b 695 590 731 562 715 578 b 629 607 675 601 653 607 b 562 590 605 607 583 601 b 514 542 542 578 526 562 b 497 476 502 522 497 500 b 514 409 497 452 502 430 b 562 361 526 389 542 373 b 629 343 583 349 605 343 b 695 361 653 343 675 349 m 697 570 b 706 564 700 568 703 566 l 548 564 b 566 577 552 568 558 573 b 585 585 574 581 581 584 b 628 594 596 591 611 594 b 672 585 642 594 657 591 l 689 575 b 697 570 692 573 694 572 m 745 476 b 739 435 745 461 743 448 b 718 399 736 425 729 413 l 563 399 l 716 555 b 745 476 736 529 745 503 m 539 395 b 516 433 529 408 521 421 b 509 476 511 447 509 461 b 510 494 509 484 509 490 b 517 517 511 503 513 510 b 537 550 521 530 528 541 l 694 550 l 539 395 m 90 423 l 90 347 l 119 347 l 119 423 l 145 423 l 145 450 l 64 450 l 64 423 m 196 379 l 208 356 b 220 347 211 350 215 347 l 246 347 l 228 379 b 210 389 222 386 216 389 l 213 389 b 228 397 218 389 223 392 b 236 414 233 401 236 407 b 225 439 236 424 232 433 b 199 450 218 446 209 450 l 157 450 l 157 347 l 187 347 l 187 379 m 286 450 l 257 450 l 257 347 l 286 347 m 296 347 l 320 347 b 333 357 325 347 329 350 l 336 364 l 371 364 l 376 357 b 388 347 379 350 383 347 l 411 347 l 367 450 l 341 450 m 487 347 l 487 374 l 450 374 l 450 450 l 422 450 l 422 347 m 809 435 b 795 397 799 425 795 412 b 809 359 795 381 799 369 b 847 344 819 349 832 344 b 886 359 863 344 876 349 b 901 397 896 369 901 381 b 886 435 901 412 896 425 b 847 450 876 445 863 450 b 809 435 832 450 819 445 m 980 412 b 983 392 980 404 981 398 l 951 438 b 946 445 950 442 948 444 b 939 447 945 447 942 447 l 914 447 l 914 346 l 945 346 l 945 386 b 942 405 945 389 944 396 l 976 352 b 989 346 980 348 984 346 l 1010 346 l 1010 447 l 980 447 l 980 412 m 1095 346 l 1095 373 l 1059 373 l 1059 447 l 1030 447 l 1030 346 m 1153 376 b 1155 386 1153 380 1154 384 l 1192 447 l 1164 447 b 1153 441 1159 447 1155 445 l 1141 421 b 1139 412 1140 418 1139 415 b 1136 405 1138 409 1137 407 b 1133 421 1136 410 1135 416 l 1122 441 b 1110 447 1119 445 1115 447 l 1083 447 l 1120 386 b 1122 376 1121 384 1122 381 l 1122 346 l 1153 346 l 1153 376 m 197 421 b 205 414 202 421 205 419 b 203 408 205 412 204 410 b 198 406 201 407 200 406 l 187 406 l 187 421 l 197 421 m 830 379 b 823 397 825 384 823 390 b 830 414 823 403 825 409 b 847 421 835 419 840 421 b 864 414 854 421 859 419 b 870 397 868 409 870 403 b 864 379 870 390 868 384 b 847 373 859 375 854 373 b 830 379 840 373 835 375 m 349 398 b 352 405 350 399 351 401 b 353 417 353 409 353 413 l 355 417 b 358 398 355 408 356 402 l 364 385 l 344 385 l 349 398 m 706 386 b 689 373 696 378 690 374 b 681 369 687 372 684 371 b 672 364 678 366 675 365 b 662 362 669 364 666 363 b 649 359 658 361 653 360 b 628 356 642 357 635 356 b 586 364 612 356 598 359 b 550 386 574 369 562 377 m 50 218 l 50 247 l 78 247 l 78 254 l 50 254 l 50 277 l 84 277 l 84 285 l 43 285 l 43 218 m 108 230 b 102 244 104 233 102 238 l 102 285 l 95 285 l 95 244 b 102 224 95 236 97 229 b 121 217 107 219 113 217 b 141 224 129 217 136 219 b 149 244 146 230 149 236 l 149 285 l 140 285 l 140 244 b 135 229 140 238 138 233 b 121 224 132 226 127 224 b 108 230 115 224 111 226 m 202 218 l 202 225 l 174 225 l 174 285 l 166 285 l 166 218 m 254 218 l 254 225 l 223 225 l 223 285 l 217 285 l 217 218 m 343 284 b 342 282 342 284 342 283 l 321 233 b 320 226 321 231 320 228 l 319 226 b 318 233 319 228 319 231 l 296 282 b 291 285 296 284 295 285 l 286 285 l 316 218 l 323 218 l 351 285 l 346 285 b 343 284 345 285 344 285 m 403 225 l 368 225 l 368 248 l 397 248 l 397 256 l 368 256 l 368 277 l 403 277 l 403 285 l 362 285 l 362 218 l 403 218 m 435 246 l 455 221 b 463 218 458 219 460 218 l 467 218 l 447 245 b 444 247 447 246 446 247 l 444 247 b 455 253 448 248 451 250 b 461 265 459 256 461 260 b 455 279 461 271 459 275 b 441 285 451 283 446 285 l 417 285 l 417 218 l 426 218 l 426 246 m 482 220 b 493 217 486 218 489 217 b 509 222 500 217 505 218 b 514 237 512 226 514 231 b 495 257 514 247 508 253 b 484 268 488 260 484 264 b 494 278 484 275 487 278 b 506 275 498 278 502 277 b 510 277 507 274 509 275 l 511 279 b 494 285 508 283 502 285 b 481 281 489 285 484 284 b 475 268 477 278 475 274 b 493 250 475 261 481 255 b 508 237 503 246 508 242 b 504 227 508 233 506 230 b 493 224 501 225 497 224 b 479 230 488 225 484 227 b 476 230 479 230 478 231 b 473 228 475 230 474 229 l 472 227 b 482 220 474 224 478 222 m 536 285 l 530 285 l 530 218 l 536 218 m 561 275 b 551 251 554 268 551 260 b 561 227 551 241 554 233 b 586 217 568 220 576 217 b 611 226 596 217 604 220 b 621 251 617 233 621 241 b 611 276 621 261 617 269 b 586 285 604 282 596 285 b 561 275 576 285 568 282 m 680 235 b 681 230 680 233 681 231 l 646 283 b 640 285 644 284 642 285 l 634 285 l 634 218 l 642 218 l 642 270 l 641 275 l 680 220 b 682 218 680 219 681 218 l 689 218 l 689 285 l 680 285 l 680 235 m 567 232 b 558 251 561 238 558 244 b 566 270 558 258 561 265 b 586 278 572 275 579 278 b 605 270 593 278 599 275 b 613 251 610 265 613 258 b 605 232 613 244 610 238 b 586 224 599 227 593 224 b 567 232 579 224 573 227 m 441 277 b 449 274 444 277 446 276 b 453 265 451 271 453 269 b 449 257 453 262 451 259 b 441 254 446 255 444 254 l 426 254 l 426 277 l 441 277 m 1178 273 l 1176 270 b 1177 264 1174 268 1174 266 l 1186 255 l 727 255 l 727 248 l 1185 248 l 1177 239 b 1176 233 1175 237 1175 235 l 1178 230 l 1196 248 b 1198 252 1197 248 1198 250 b 1196 256 1198 253 1197 255 m 479 170 b 464 134 469 161 464 149 b 478 99 464 120 469 108 b 514 84 487 89 499 84 b 551 99 529 84 541 89 b 566 134 561 108 566 120 b 551 170 566 148 561 160 b 514 184 541 179 529 184 b 479 170 500 184 488 179 m 800 84 b 826 93 811 84 819 87 b 836 116 832 99 836 107 b 806 149 836 134 826 145 b 796 155 799 151 796 153 b 800 158 796 157 797 158 b 806 157 801 158 803 158 b 812 155 809 156 811 155 b 825 163 818 155 822 158 l 830 172 b 817 181 827 176 822 179 b 800 184 811 183 805 184 b 776 176 791 184 782 181 b 767 155 770 171 767 164 b 775 136 767 147 769 141 b 800 123 780 132 788 127 b 806 116 804 122 806 119 b 800 111 806 113 804 111 b 791 113 797 111 794 111 b 786 116 788 114 787 115 b 778 118 784 117 781 118 b 765 111 774 118 769 116 l 761 100 b 800 84 773 90 786 84 m 897 99 b 932 84 906 89 918 84 b 954 90 940 84 947 86 b 969 104 961 94 966 98 l 963 113 b 953 117 960 116 957 117 b 944 114 949 117 946 116 b 931 111 939 112 935 111 b 916 117 925 111 920 113 b 910 134 912 122 910 127 b 916 151 910 141 912 146 b 931 158 920 155 925 158 b 939 156 934 158 937 157 b 944 154 941 155 943 154 b 952 151 946 152 949 151 b 963 155 957 151 960 152 l 969 164 b 954 178 966 170 961 174 b 932 184 947 182 940 184 b 897 170 918 184 906 179 b 883 134 887 160 883 148 b 897 99 883 120 887 108 m 991 170 b 976 134 981 161 976 149 b 991 99 976 120 981 108 b 1027 84 1000 89 1013 84 b 1063 99 1042 84 1054 89 b 1078 134 1073 108 1078 120 b 1063 170 1078 149 1073 161 b 1027 184 1054 179 1042 184 b 991 170 1013 184 1000 179 m 116 113 l 89 113 b 75 108 84 113 79 111 l 113 158 b 116 170 115 161 116 165 l 116 183 l 41 183 l 41 157 l 69 157 b 78 161 73 157 76 158 l 43 111 b 38 106 41 109 39 107 b 37 99 38 104 37 102 l 37 85 l 116 85 m 196 113 l 157 113 l 157 122 l 189 122 l 189 146 l 157 146 l 157 157 l 196 157 l 196 183 l 130 183 l 130 85 l 196 85 m 228 157 l 228 85 l 256 85 l 256 157 l 279 157 l 279 183 l 202 183 l 202 157 m 270 85 l 292 85 b 299 88 295 85 297 86 b 304 96 301 90 303 93 l 307 102 l 342 102 l 345 96 b 351 88 346 93 348 90 b 358 85 353 86 356 85 l 380 85 l 338 183 l 313 183 m 417 85 l 417 119 l 449 119 l 449 143 l 417 143 l 417 157 l 455 157 l 455 183 l 388 183 l 388 85 m 640 149 b 643 131 640 141 641 135 l 614 174 b 609 181 612 177 611 180 b 601 183 608 182 605 183 l 579 183 l 579 85 l 608 85 l 608 125 b 604 142 608 131 607 137 l 605 142 l 638 91 b 649 85 641 87 644 85 l 669 85 l 669 183 l 640 183 l 640 149 m 704 157 l 704 85 l 733 85 l 733 157 l 759 157 l 759 183 l 680 183 l 680 157 m 1153 139 b 1150 128 1151 136 1150 133 l 1148 128 b 1145 139 1148 133 1147 136 l 1129 174 b 1123 180 1127 176 1125 179 b 1116 183 1122 182 1119 183 l 1092 183 l 1092 85 l 1120 85 l 1120 128 b 1116 143 1120 132 1119 137 l 1118 143 l 1136 102 b 1150 94 1138 97 1143 94 b 1161 102 1154 94 1158 97 l 1180 143 b 1178 136 1179 141 1179 138 b 1178 128 1178 133 1178 131 l 1178 85 l 1205 85 l 1205 183 l 1181 183 b 1170 174 1177 183 1173 180 m 498 117 b 492 134 494 122 492 127 b 498 151 492 141 494 146 b 514 158 503 155 508 158 b 530 151 521 158 526 155 b 536 134 534 147 536 141 b 530 117 536 127 534 122 b 514 111 526 113 521 111 b 498 117 508 111 503 113 m 1011 117 b 1005 134 1007 122 1005 127 b 1011 151 1005 141 1007 147 b 1027 158 1016 155 1021 158 b 1044 151 1033 158 1039 155 b 1051 134 1048 146 1051 141 b 1044 117 1051 127 1048 122 b 1027 111 1039 113 1033 111 b 1011 117 1021 111 1016 113 m 321 134 b 324 152 323 139 324 145 l 326 152 b 329 134 326 143 327 137 l 335 120 l 316 120 l 321 134 m 848 88 b 859 84 851 86 854 84 b 869 88 863 84 866 86 b 873 99 872 91 873 95 b 869 110 873 103 872 107 b 859 114 866 113 863 114 b 848 110 854 114 851 113 b 844 99 845 107 844 103 b 848 88 844 95 845 91 "},"":{"ha":716,"x_min":0,"x_max":0,"o":"m 133 -265 l 133 1167 l 587 1167 l 587 -265 m 240 1024 l 334 1024 l 334 971 l 239 971 l 239 924 l 477 924 l 477 971 l 382 971 l 382 1024 l 477 1024 l 477 1071 l 240 1071 m 239 738 l 477 738 l 477 786 l 382 786 l 382 886 l 239 886 m 287 786 l 287 838 l 334 838 l 334 786 m 239 652 l 334 652 l 334 599 l 239 599 l 239 551 l 382 551 l 382 652 l 477 652 l 477 699 l 239 699 m 429 518 l 239 518 l 239 470 l 477 470 l 477 613 l 429 613 m 334 358 l 382 358 l 382 391 l 429 391 l 429 323 l 287 323 l 287 438 l 239 438 l 239 276 l 477 276 l 477 438 l 334 438 m 239 28 l 477 28 l 477 190 l 239 190 m 287 75 l 287 143 l 429 143 l 429 75 m 239 -52 l 340 -52 l 239 -119 l 239 -167 l 477 -167 l 477 -119 l 331 -119 l 431 -52 l 477 -52 l 477 -4 l 239 -4 "},"":{"ha":716,"x_min":0,"x_max":0,"o":"m 587 -265 l 587 1167 l 133 1167 l 133 -265 m 240 1071 l 477 1071 l 477 1024 l 382 1024 l 382 971 l 477 971 l 477 924 l 239 924 l 239 971 l 334 971 l 334 1024 l 240 1024 m 239 886 l 382 886 l 382 786 l 477 786 l 477 738 l 239 738 m 334 786 l 334 838 l 287 838 l 287 786 m 239 699 l 477 699 l 477 652 l 382 652 l 382 551 l 239 551 l 239 599 l 334 599 l 334 652 l 239 652 m 429 613 l 477 613 l 477 470 l 239 470 l 239 518 l 429 518 m 334 438 l 477 438 l 477 276 l 239 276 l 239 438 l 287 438 l 287 323 l 429 323 l 429 391 l 382 391 l 382 358 l 334 358 m 239 190 l 477 190 l 477 28 l 239 28 m 429 75 l 429 143 l 287 143 l 287 75 m 239 -4 l 477 -4 l 477 -52 l 431 -52 l 331 -119 l 477 -119 l 477 -167 l 239 -167 l 239 -119 l 340 -52 l 239 -52 "},"":{"ha":716,"x_min":0,"x_max":0,"o":"m 133 -265 l 133 1167 l 587 1167 l 587 -265 m 240 1024 l 334 1024 l 334 971 l 239 971 l 239 924 l 477 924 l 477 971 l 382 971 l 382 1024 l 477 1024 l 477 1071 l 240 1071 m 239 738 l 477 738 l 477 786 l 382 786 l 382 886 l 239 886 m 287 786 l 287 838 l 334 838 l 334 786 m 239 652 l 334 652 l 334 599 l 239 599 l 239 551 l 382 551 l 382 652 l 477 652 l 477 699 l 239 699 m 429 518 l 239 518 l 239 470 l 477 470 l 477 613 l 429 613 m 334 358 l 382 358 l 382 391 l 429 391 l 429 323 l 287 323 l 287 438 l 239 438 l 239 276 l 477 276 l 477 438 l 334 438 m 239 28 l 477 28 l 477 190 l 239 190 m 287 75 l 287 143 l 429 143 l 429 75 m 239 -52 l 340 -52 l 239 -119 l 239 -167 l 477 -167 l 477 -119 l 331 -119 l 431 -52 l 477 -52 l 477 -4 l 239 -4 "},"":{"ha":716,"x_min":0,"x_max":0,"o":"m 587 -265 l 587 1167 l 133 1167 l 133 -265 m 240 1071 l 477 1071 l 477 1024 l 382 1024 l 382 971 l 477 971 l 477 924 l 239 924 l 239 971 l 334 971 l 334 1024 l 240 1024 m 239 886 l 382 886 l 382 786 l 477 786 l 477 738 l 239 738 m 334 786 l 334 838 l 287 838 l 287 786 m 239 699 l 477 699 l 477 652 l 382 652 l 382 551 l 239 551 l 239 599 l 334 599 l 334 652 l 239 652 m 429 613 l 477 613 l 477 470 l 239 470 l 239 518 l 429 518 m 334 438 l 477 438 l 477 276 l 239 276 l 239 438 l 287 438 l 287 323 l 429 323 l 429 391 l 382 391 l 382 358 l 334 358 m 239 190 l 477 190 l 477 28 l 239 28 m 429 75 l 429 143 l 287 143 l 287 75 m 239 -4 l 477 -4 l 477 -52 l 431 -52 l 331 -119 l 477 -119 l 477 -167 l 239 -167 l 239 -119 l 340 -52 l 239 -52 "},"":{"ha":716,"x_min":0,"x_max":0,"o":"m 133 -265 l 133 1167 l 587 1167 l 587 -265 m 240 1024 l 334 1024 l 334 971 l 239 971 l 239 924 l 477 924 l 477 971 l 382 971 l 382 1024 l 477 1024 l 477 1071 l 240 1071 m 239 738 l 477 738 l 477 786 l 382 786 l 382 886 l 239 886 m 287 786 l 287 838 l 334 838 l 334 786 m 239 652 l 334 652 l 334 599 l 239 599 l 239 551 l 382 551 l 382 652 l 477 652 l 477 699 l 239 699 m 429 518 l 239 518 l 239 470 l 477 470 l 477 613 l 429 613 m 334 358 l 382 358 l 382 391 l 429 391 l 429 323 l 287 323 l 287 438 l 239 438 l 239 276 l 477 276 l 477 438 l 334 438 m 239 28 l 477 28 l 477 190 l 239 190 m 287 75 l 287 143 l 429 143 l 429 75 m 239 -52 l 340 -52 l 239 -119 l 239 -167 l 477 -167 l 477 -119 l 331 -119 l 431 -52 l 477 -52 l 477 -4 l 239 -4 "},"":{"ha":716,"x_min":0,"x_max":0,"o":"m 587 -265 l 587 1167 l 133 1167 l 133 -265 m 240 1071 l 477 1071 l 477 1024 l 382 1024 l 382 971 l 477 971 l 477 924 l 239 924 l 239 971 l 334 971 l 334 1024 l 240 1024 m 239 886 l 382 886 l 382 786 l 477 786 l 477 738 l 239 738 m 334 786 l 334 838 l 287 838 l 287 786 m 239 699 l 477 699 l 477 652 l 382 652 l 382 551 l 239 551 l 239 599 l 334 599 l 334 652 l 239 652 m 429 613 l 477 613 l 477 470 l 239 470 l 239 518 l 429 518 m 334 438 l 477 438 l 477 276 l 239 276 l 239 438 l 287 438 l 287 323 l 429 323 l 429 391 l 382 391 l 382 358 l 334 358 m 239 190 l 477 190 l 477 28 l 239 28 m 429 75 l 429 143 l 287 143 l 287 75 m 239 -4 l 477 -4 l 477 -52 l 431 -52 l 331 -119 l 477 -119 l 477 -167 l 239 -167 l 239 -119 l 340 -52 l 239 -52 "},"":{"ha":716,"x_min":0,"x_max":0,"o":"m 133 -265 l 133 1167 l 587 1167 l 587 -265 m 240 1024 l 334 1024 l 334 971 l 239 971 l 239 924 l 477 924 l 477 971 l 382 971 l 382 1024 l 477 1024 l 477 1071 l 240 1071 m 239 738 l 477 738 l 477 786 l 382 786 l 382 886 l 239 886 m 287 786 l 287 838 l 334 838 l 334 786 m 239 652 l 334 652 l 334 599 l 239 599 l 239 551 l 382 551 l 382 652 l 477 652 l 477 699 l 239 699 m 429 518 l 239 518 l 239 470 l 477 470 l 477 613 l 429 613 m 334 358 l 382 358 l 382 391 l 429 391 l 429 323 l 287 323 l 287 438 l 239 438 l 239 276 l 477 276 l 477 438 l 334 438 m 239 28 l 477 28 l 477 190 l 239 190 m 287 75 l 287 143 l 429 143 l 429 75 m 239 -52 l 340 -52 l 239 -119 l 239 -167 l 477 -167 l 477 -119 l 331 -119 l 431 -52 l 477 -52 l 477 -4 l 239 -4 "},"":{"ha":716,"x_min":0,"x_max":0,"o":"m 587 -265 l 587 1167 l 133 1167 l 133 -265 m 240 1071 l 477 1071 l 477 1024 l 382 1024 l 382 971 l 477 971 l 477 924 l 239 924 l 239 971 l 334 971 l 334 1024 l 240 1024 m 239 886 l 382 886 l 382 786 l 477 786 l 477 738 l 239 738 m 334 786 l 334 838 l 287 838 l 287 786 m 239 699 l 477 699 l 477 652 l 382 652 l 382 551 l 239 551 l 239 599 l 334 599 l 334 652 l 239 652 m 429 613 l 477 613 l 477 470 l 239 470 l 239 518 l 429 518 m 334 438 l 477 438 l 477 276 l 239 276 l 239 438 l 287 438 l 287 323 l 429 323 l 429 391 l 382 391 l 382 358 l 334 358 m 239 190 l 477 190 l 477 28 l 239 28 m 429 75 l 429 143 l 287 143 l 287 75 m 239 -4 l 477 -4 l 477 -52 l 431 -52 l 331 -119 l 477 -119 l 477 -167 l 239 -167 l 239 -119 l 340 -52 l 239 -52 "},"":{"ha":716,"x_min":0,"x_max":0,"o":"m 133 -265 l 133 1167 l 587 1167 l 587 -265 m 240 1024 l 334 1024 l 334 971 l 239 971 l 239 924 l 477 924 l 477 971 l 382 971 l 382 1024 l 477 1024 l 477 1071 l 240 1071 m 239 738 l 477 738 l 477 786 l 382 786 l 382 886 l 239 886 m 287 786 l 287 838 l 334 838 l 334 786 m 239 652 l 334 652 l 334 599 l 239 599 l 239 551 l 382 551 l 382 652 l 477 652 l 477 699 l 239 699 m 429 518 l 239 518 l 239 470 l 477 470 l 477 613 l 429 613 m 334 358 l 382 358 l 382 391 l 429 391 l 429 323 l 287 323 l 287 438 l 239 438 l 239 276 l 477 276 l 477 438 l 334 438 m 239 28 l 477 28 l 477 190 l 239 190 m 287 75 l 287 143 l 429 143 l 429 75 m 239 -52 l 340 -52 l 239 -119 l 239 -167 l 477 -167 l 477 -119 l 331 -119 l 431 -52 l 477 -52 l 477 -4 l 239 -4 "},"":{"ha":716,"x_min":0,"x_max":0,"o":"m 587 -265 l 587 1167 l 133 1167 l 133 -265 m 240 1071 l 477 1071 l 477 1024 l 382 1024 l 382 971 l 477 971 l 477 924 l 239 924 l 239 971 l 334 971 l 334 1024 l 240 1024 m 239 886 l 382 886 l 382 786 l 477 786 l 477 738 l 239 738 m 334 786 l 334 838 l 287 838 l 287 786 m 239 699 l 477 699 l 477 652 l 382 652 l 382 551 l 239 551 l 239 599 l 334 599 l 334 652 l 239 652 m 429 613 l 477 613 l 477 470 l 239 470 l 239 518 l 429 518 m 334 438 l 477 438 l 477 276 l 239 276 l 239 438 l 287 438 l 287 323 l 429 323 l 429 391 l 382 391 l 382 358 l 334 358 m 239 190 l 477 190 l 477 28 l 239 28 m 429 75 l 429 143 l 287 143 l 287 75 m 239 -4 l 477 -4 l 477 -52 l 431 -52 l 331 -119 l 477 -119 l 477 -167 l 239 -167 l 239 -119 l 340 -52 l 239 -52 "},"":{"ha":716,"x_min":0,"x_max":0,"o":"m 133 -265 l 133 1167 l 587 1167 l 587 -265 m 240 1024 l 334 1024 l 334 971 l 239 971 l 239 924 l 477 924 l 477 971 l 382 971 l 382 1024 l 477 1024 l 477 1071 l 240 1071 m 239 738 l 477 738 l 477 786 l 382 786 l 382 886 l 239 886 m 287 786 l 287 838 l 334 838 l 334 786 m 239 652 l 334 652 l 334 599 l 239 599 l 239 551 l 382 551 l 382 652 l 477 652 l 477 699 l 239 699 m 429 518 l 239 518 l 239 470 l 477 470 l 477 613 l 429 613 m 334 358 l 382 358 l 382 391 l 429 391 l 429 323 l 287 323 l 287 438 l 239 438 l 239 276 l 477 276 l 477 438 l 334 438 m 239 28 l 477 28 l 477 190 l 239 190 m 287 75 l 287 143 l 429 143 l 429 75 m 239 -52 l 340 -52 l 239 -119 l 239 -167 l 477 -167 l 477 -119 l 331 -119 l 431 -52 l 477 -52 l 477 -4 l 239 -4 "},"":{"ha":716,"x_min":0,"x_max":0,"o":"m 587 -265 l 587 1167 l 133 1167 l 133 -265 m 240 1071 l 477 1071 l 477 1024 l 382 1024 l 382 971 l 477 971 l 477 924 l 239 924 l 239 971 l 334 971 l 334 1024 l 240 1024 m 239 886 l 382 886 l 382 786 l 477 786 l 477 738 l 239 738 m 334 786 l 334 838 l 287 838 l 287 786 m 239 699 l 477 699 l 477 652 l 382 652 l 382 551 l 239 551 l 239 599 l 334 599 l 334 652 l 239 652 m 429 613 l 477 613 l 477 470 l 239 470 l 239 518 l 429 518 m 334 438 l 477 438 l 477 276 l 239 276 l 239 438 l 287 438 l 287 323 l 429 323 l 429 391 l 382 391 l 382 358 l 334 358 m 239 190 l 477 190 l 477 28 l 239 28 m 429 75 l 429 143 l 287 143 l 287 75 m 239 -4 l 477 -4 l 477 -52 l 431 -52 l 331 -119 l 477 -119 l 477 -167 l 239 -167 l 239 -119 l 340 -52 l 239 -52 "},"":{"ha":716,"x_min":0,"x_max":0,"o":"m 133 -265 l 133 1167 l 587 1167 l 587 -265 m 240 1024 l 334 1024 l 334 971 l 239 971 l 239 924 l 477 924 l 477 971 l 382 971 l 382 1024 l 477 1024 l 477 1071 l 240 1071 m 239 738 l 477 738 l 477 786 l 382 786 l 382 886 l 239 886 m 287 786 l 287 838 l 334 838 l 334 786 m 239 652 l 334 652 l 334 599 l 239 599 l 239 551 l 382 551 l 382 652 l 477 652 l 477 699 l 239 699 m 429 518 l 239 518 l 239 470 l 477 470 l 477 613 l 429 613 m 334 358 l 382 358 l 382 391 l 429 391 l 429 323 l 287 323 l 287 438 l 239 438 l 239 276 l 477 276 l 477 438 l 334 438 m 239 28 l 477 28 l 477 190 l 239 190 m 287 75 l 287 143 l 429 143 l 429 75 m 239 -52 l 340 -52 l 239 -119 l 239 -167 l 477 -167 l 477 -119 l 331 -119 l 431 -52 l 477 -52 l 477 -4 l 239 -4 "},"":{"ha":716,"x_min":0,"x_max":0,"o":"m 587 -265 l 587 1167 l 133 1167 l 133 -265 m 240 1071 l 477 1071 l 477 1024 l 382 1024 l 382 971 l 477 971 l 477 924 l 239 924 l 239 971 l 334 971 l 334 1024 l 240 1024 m 239 886 l 382 886 l 382 786 l 477 786 l 477 738 l 239 738 m 334 786 l 334 838 l 287 838 l 287 786 m 239 699 l 477 699 l 477 652 l 382 652 l 382 551 l 239 551 l 239 599 l 334 599 l 334 652 l 239 652 m 429 613 l 477 613 l 477 470 l 239 470 l 239 518 l 429 518 m 334 438 l 477 438 l 477 276 l 239 276 l 239 438 l 287 438 l 287 323 l 429 323 l 429 391 l 382 391 l 382 358 l 334 358 m 239 190 l 477 190 l 477 28 l 239 28 m 429 75 l 429 143 l 287 143 l 287 75 m 239 -4 l 477 -4 l 477 -52 l 431 -52 l 331 -119 l 477 -119 l 477 -167 l 239 -167 l 239 -119 l 340 -52 l 239 -52 "},"":{"ha":716,"x_min":0,"x_max":0,"o":"m 133 -265 l 133 1167 l 587 1167 l 587 -265 m 240 1024 l 334 1024 l 334 971 l 239 971 l 239 924 l 477 924 l 477 971 l 382 971 l 382 1024 l 477 1024 l 477 1071 l 240 1071 m 239 738 l 477 738 l 477 786 l 382 786 l 382 886 l 239 886 m 287 786 l 287 838 l 334 838 l 334 786 m 239 652 l 334 652 l 334 599 l 239 599 l 239 551 l 382 551 l 382 652 l 477 652 l 477 699 l 239 699 m 429 518 l 239 518 l 239 470 l 477 470 l 477 613 l 429 613 m 334 358 l 382 358 l 382 391 l 429 391 l 429 323 l 287 323 l 287 438 l 239 438 l 239 276 l 477 276 l 477 438 l 334 438 m 239 28 l 477 28 l 477 190 l 239 190 m 287 75 l 287 143 l 429 143 l 429 75 m 239 -52 l 340 -52 l 239 -119 l 239 -167 l 477 -167 l 477 -119 l 331 -119 l 431 -52 l 477 -52 l 477 -4 l 239 -4 "},"":{"ha":716,"x_min":0,"x_max":0,"o":"m 587 -265 l 587 1167 l 133 1167 l 133 -265 m 240 1071 l 477 1071 l 477 1024 l 382 1024 l 382 971 l 477 971 l 477 924 l 239 924 l 239 971 l 334 971 l 334 1024 l 240 1024 m 239 886 l 382 886 l 382 786 l 477 786 l 477 738 l 239 738 m 334 786 l 334 838 l 287 838 l 287 786 m 239 699 l 477 699 l 477 652 l 382 652 l 382 551 l 239 551 l 239 599 l 334 599 l 334 652 l 239 652 m 429 613 l 477 613 l 477 470 l 239 470 l 239 518 l 429 518 m 334 438 l 477 438 l 477 276 l 239 276 l 239 438 l 287 438 l 287 323 l 429 323 l 429 391 l 382 391 l 382 358 l 334 358 m 239 190 l 477 190 l 477 28 l 239 28 m 429 75 l 429 143 l 287 143 l 287 75 m 239 -4 l 477 -4 l 477 -52 l 431 -52 l 331 -119 l 477 -119 l 477 -167 l 239 -167 l 239 -119 l 340 -52 l 239 -52 "},"":{"ha":716,"x_min":0,"x_max":0,"o":"m 133 -265 l 133 1167 l 587 1167 l 587 -265 m 240 1024 l 334 1024 l 334 971 l 239 971 l 239 924 l 477 924 l 477 971 l 382 971 l 382 1024 l 477 1024 l 477 1071 l 240 1071 m 239 738 l 477 738 l 477 786 l 382 786 l 382 886 l 239 886 m 287 786 l 287 838 l 334 838 l 334 786 m 239 652 l 334 652 l 334 599 l 239 599 l 239 551 l 382 551 l 382 652 l 477 652 l 477 699 l 239 699 m 429 518 l 239 518 l 239 470 l 477 470 l 477 613 l 429 613 m 334 358 l 382 358 l 382 391 l 429 391 l 429 323 l 287 323 l 287 438 l 239 438 l 239 276 l 477 276 l 477 438 l 334 438 m 239 28 l 477 28 l 477 190 l 239 190 m 287 75 l 287 143 l 429 143 l 429 75 m 239 -52 l 340 -52 l 239 -119 l 239 -167 l 477 -167 l 477 -119 l 331 -119 l 431 -52 l 477 -52 l 477 -4 l 239 -4 "},"":{"ha":716,"x_min":0,"x_max":0,"o":"m 587 -265 l 587 1167 l 133 1167 l 133 -265 m 240 1071 l 477 1071 l 477 1024 l 382 1024 l 382 971 l 477 971 l 477 924 l 239 924 l 239 971 l 334 971 l 334 1024 l 240 1024 m 239 886 l 382 886 l 382 786 l 477 786 l 477 738 l 239 738 m 334 786 l 334 838 l 287 838 l 287 786 m 239 699 l 477 699 l 477 652 l 382 652 l 382 551 l 239 551 l 239 599 l 334 599 l 334 652 l 239 652 m 429 613 l 477 613 l 477 470 l 239 470 l 239 518 l 429 518 m 334 438 l 477 438 l 477 276 l 239 276 l 239 438 l 287 438 l 287 323 l 429 323 l 429 391 l 382 391 l 382 358 l 334 358 m 239 190 l 477 190 l 477 28 l 239 28 m 429 75 l 429 143 l 287 143 l 287 75 m 239 -4 l 477 -4 l 477 -52 l 431 -52 l 331 -119 l 477 -119 l 477 -167 l 239 -167 l 239 -119 l 340 -52 l 239 -52 "},"":{"ha":716,"x_min":0,"x_max":0,"o":"m 133 -265 l 133 1167 l 587 1167 l 587 -265 m 240 1024 l 334 1024 l 334 971 l 239 971 l 239 924 l 477 924 l 477 971 l 382 971 l 382 1024 l 477 1024 l 477 1071 l 240 1071 m 239 738 l 477 738 l 477 786 l 382 786 l 382 886 l 239 886 m 287 786 l 287 838 l 334 838 l 334 786 m 239 652 l 334 652 l 334 599 l 239 599 l 239 551 l 382 551 l 382 652 l 477 652 l 477 699 l 239 699 m 429 518 l 239 518 l 239 470 l 477 470 l 477 613 l 429 613 m 334 358 l 382 358 l 382 391 l 429 391 l 429 323 l 287 323 l 287 438 l 239 438 l 239 276 l 477 276 l 477 438 l 334 438 m 239 28 l 477 28 l 477 190 l 239 190 m 287 75 l 287 143 l 429 143 l 429 75 m 239 -52 l 340 -52 l 239 -119 l 239 -167 l 477 -167 l 477 -119 l 331 -119 l 431 -52 l 477 -52 l 477 -4 l 239 -4 "},"":{"ha":716,"x_min":0,"x_max":0,"o":"m 587 -265 l 587 1167 l 133 1167 l 133 -265 m 240 1071 l 477 1071 l 477 1024 l 382 1024 l 382 971 l 477 971 l 477 924 l 239 924 l 239 971 l 334 971 l 334 1024 l 240 1024 m 239 886 l 382 886 l 382 786 l 477 786 l 477 738 l 239 738 m 334 786 l 334 838 l 287 838 l 287 786 m 239 699 l 477 699 l 477 652 l 382 652 l 382 551 l 239 551 l 239 599 l 334 599 l 334 652 l 239 652 m 429 613 l 477 613 l 477 470 l 239 470 l 239 518 l 429 518 m 334 438 l 477 438 l 477 276 l 239 276 l 239 438 l 287 438 l 287 323 l 429 323 l 429 391 l 382 391 l 382 358 l 334 358 m 239 190 l 477 190 l 477 28 l 239 28 m 429 75 l 429 143 l 287 143 l 287 75 m 239 -4 l 477 -4 l 477 -52 l 431 -52 l 331 -119 l 477 -119 l 477 -167 l 239 -167 l 239 -119 l 340 -52 l 239 -52 "},"":{"ha":716,"x_min":0,"x_max":0,"o":"m 133 -265 l 133 1167 l 587 1167 l 587 -265 m 240 1024 l 334 1024 l 334 971 l 239 971 l 239 924 l 477 924 l 477 971 l 382 971 l 382 1024 l 477 1024 l 477 1071 l 240 1071 m 239 738 l 477 738 l 477 786 l 382 786 l 382 886 l 239 886 m 287 786 l 287 838 l 334 838 l 334 786 m 239 652 l 334 652 l 334 599 l 239 599 l 239 551 l 382 551 l 382 652 l 477 652 l 477 699 l 239 699 m 429 518 l 239 518 l 239 470 l 477 470 l 477 613 l 429 613 m 334 358 l 382 358 l 382 391 l 429 391 l 429 323 l 287 323 l 287 438 l 239 438 l 239 276 l 477 276 l 477 438 l 334 438 m 239 28 l 477 28 l 477 190 l 239 190 m 287 75 l 287 143 l 429 143 l 429 75 m 239 -52 l 340 -52 l 239 -119 l 239 -167 l 477 -167 l 477 -119 l 331 -119 l 431 -52 l 477 -52 l 477 -4 l 239 -4 "},"":{"ha":716,"x_min":0,"x_max":0,"o":"m 587 -265 l 587 1167 l 133 1167 l 133 -265 m 240 1071 l 477 1071 l 477 1024 l 382 1024 l 382 971 l 477 971 l 477 924 l 239 924 l 239 971 l 334 971 l 334 1024 l 240 1024 m 239 886 l 382 886 l 382 786 l 477 786 l 477 738 l 239 738 m 334 786 l 334 838 l 287 838 l 287 786 m 239 699 l 477 699 l 477 652 l 382 652 l 382 551 l 239 551 l 239 599 l 334 599 l 334 652 l 239 652 m 429 613 l 477 613 l 477 470 l 239 470 l 239 518 l 429 518 m 334 438 l 477 438 l 477 276 l 239 276 l 239 438 l 287 438 l 287 323 l 429 323 l 429 391 l 382 391 l 382 358 l 334 358 m 239 190 l 477 190 l 477 28 l 239 28 m 429 75 l 429 143 l 287 143 l 287 75 m 239 -4 l 477 -4 l 477 -52 l 431 -52 l 331 -119 l 477 -119 l 477 -167 l 239 -167 l 239 -119 l 340 -52 l 239 -52 "},"":{"ha":716,"x_min":0,"x_max":0,"o":"m 133 -265 l 133 1167 l 587 1167 l 587 -265 m 240 1024 l 334 1024 l 334 971 l 239 971 l 239 924 l 477 924 l 477 971 l 382 971 l 382 1024 l 477 1024 l 477 1071 l 240 1071 m 239 738 l 477 738 l 477 786 l 382 786 l 382 886 l 239 886 m 287 786 l 287 838 l 334 838 l 334 786 m 239 652 l 334 652 l 334 599 l 239 599 l 239 551 l 382 551 l 382 652 l 477 652 l 477 699 l 239 699 m 429 518 l 239 518 l 239 470 l 477 470 l 477 613 l 429 613 m 334 358 l 382 358 l 382 391 l 429 391 l 429 323 l 287 323 l 287 438 l 239 438 l 239 276 l 477 276 l 477 438 l 334 438 m 239 28 l 477 28 l 477 190 l 239 190 m 287 75 l 287 143 l 429 143 l 429 75 m 239 -52 l 340 -52 l 239 -119 l 239 -167 l 477 -167 l 477 -119 l 331 -119 l 431 -52 l 477 -52 l 477 -4 l 239 -4 "},"":{"ha":716,"x_min":0,"x_max":0,"o":"m 587 -265 l 587 1167 l 133 1167 l 133 -265 m 240 1071 l 477 1071 l 477 1024 l 382 1024 l 382 971 l 477 971 l 477 924 l 239 924 l 239 971 l 334 971 l 334 1024 l 240 1024 m 239 886 l 382 886 l 382 786 l 477 786 l 477 738 l 239 738 m 334 786 l 334 838 l 287 838 l 287 786 m 239 699 l 477 699 l 477 652 l 382 652 l 382 551 l 239 551 l 239 599 l 334 599 l 334 652 l 239 652 m 429 613 l 477 613 l 477 470 l 239 470 l 239 518 l 429 518 m 334 438 l 477 438 l 477 276 l 239 276 l 239 438 l 287 438 l 287 323 l 429 323 l 429 391 l 382 391 l 382 358 l 334 358 m 239 190 l 477 190 l 477 28 l 239 28 m 429 75 l 429 143 l 287 143 l 287 75 m 239 -4 l 477 -4 l 477 -52 l 431 -52 l 331 -119 l 477 -119 l 477 -167 l 239 -167 l 239 -119 l 340 -52 l 239 -52 "},"":{"ha":716,"x_min":0,"x_max":0,"o":"m 133 -265 l 133 1167 l 587 1167 l 587 -265 m 240 1024 l 334 1024 l 334 971 l 239 971 l 239 924 l 477 924 l 477 971 l 382 971 l 382 1024 l 477 1024 l 477 1071 l 240 1071 m 239 738 l 477 738 l 477 786 l 382 786 l 382 886 l 239 886 m 287 786 l 287 838 l 334 838 l 334 786 m 239 652 l 334 652 l 334 599 l 239 599 l 239 551 l 382 551 l 382 652 l 477 652 l 477 699 l 239 699 m 429 518 l 239 518 l 239 470 l 477 470 l 477 613 l 429 613 m 334 358 l 382 358 l 382 391 l 429 391 l 429 323 l 287 323 l 287 438 l 239 438 l 239 276 l 477 276 l 477 438 l 334 438 m 239 28 l 477 28 l 477 190 l 239 190 m 287 75 l 287 143 l 429 143 l 429 75 m 239 -52 l 340 -52 l 239 -119 l 239 -167 l 477 -167 l 477 -119 l 331 -119 l 431 -52 l 477 -52 l 477 -4 l 239 -4 "},"":{"ha":716,"x_min":0,"x_max":0,"o":"m 587 -265 l 587 1167 l 133 1167 l 133 -265 m 240 1071 l 477 1071 l 477 1024 l 382 1024 l 382 971 l 477 971 l 477 924 l 239 924 l 239 971 l 334 971 l 334 1024 l 240 1024 m 239 886 l 382 886 l 382 786 l 477 786 l 477 738 l 239 738 m 334 786 l 334 838 l 287 838 l 287 786 m 239 699 l 477 699 l 477 652 l 382 652 l 382 551 l 239 551 l 239 599 l 334 599 l 334 652 l 239 652 m 429 613 l 477 613 l 477 470 l 239 470 l 239 518 l 429 518 m 334 438 l 477 438 l 477 276 l 239 276 l 239 438 l 287 438 l 287 323 l 429 323 l 429 391 l 382 391 l 382 358 l 334 358 m 239 190 l 477 190 l 477 28 l 239 28 m 429 75 l 429 143 l 287 143 l 287 75 m 239 -4 l 477 -4 l 477 -52 l 431 -52 l 331 -119 l 477 -119 l 477 -167 l 239 -167 l 239 -119 l 340 -52 l 239 -52 "},"":{"ha":716,"x_min":0,"x_max":0,"o":"m 133 -265 l 133 1167 l 587 1167 l 587 -265 m 240 1024 l 334 1024 l 334 971 l 239 971 l 239 924 l 477 924 l 477 971 l 382 971 l 382 1024 l 477 1024 l 477 1071 l 240 1071 m 239 738 l 477 738 l 477 786 l 382 786 l 382 886 l 239 886 m 287 786 l 287 838 l 334 838 l 334 786 m 239 652 l 334 652 l 334 599 l 239 599 l 239 551 l 382 551 l 382 652 l 477 652 l 477 699 l 239 699 m 429 518 l 239 518 l 239 470 l 477 470 l 477 613 l 429 613 m 334 358 l 382 358 l 382 391 l 429 391 l 429 323 l 287 323 l 287 438 l 239 438 l 239 276 l 477 276 l 477 438 l 334 438 m 239 28 l 477 28 l 477 190 l 239 190 m 287 75 l 287 143 l 429 143 l 429 75 m 239 -52 l 340 -52 l 239 -119 l 239 -167 l 477 -167 l 477 -119 l 331 -119 l 431 -52 l 477 -52 l 477 -4 l 239 -4 "},"":{"ha":716,"x_min":0,"x_max":0,"o":"m 587 -265 l 587 1167 l 133 1167 l 133 -265 m 240 1071 l 477 1071 l 477 1024 l 382 1024 l 382 971 l 477 971 l 477 924 l 239 924 l 239 971 l 334 971 l 334 1024 l 240 1024 m 239 886 l 382 886 l 382 786 l 477 786 l 477 738 l 239 738 m 334 786 l 334 838 l 287 838 l 287 786 m 239 699 l 477 699 l 477 652 l 382 652 l 382 551 l 239 551 l 239 599 l 334 599 l 334 652 l 239 652 m 429 613 l 477 613 l 477 470 l 239 470 l 239 518 l 429 518 m 334 438 l 477 438 l 477 276 l 239 276 l 239 438 l 287 438 l 287 323 l 429 323 l 429 391 l 382 391 l 382 358 l 334 358 m 239 190 l 477 190 l 477 28 l 239 28 m 429 75 l 429 143 l 287 143 l 287 75 m 239 -4 l 477 -4 l 477 -52 l 431 -52 l 331 -119 l 477 -119 l 477 -167 l 239 -167 l 239 -119 l 340 -52 l 239 -52 "},"":{"ha":716,"x_min":0,"x_max":0,"o":"m 133 -265 l 133 1167 l 587 1167 l 587 -265 m 240 1024 l 334 1024 l 334 971 l 239 971 l 239 924 l 477 924 l 477 971 l 382 971 l 382 1024 l 477 1024 l 477 1071 l 240 1071 m 239 738 l 477 738 l 477 786 l 382 786 l 382 886 l 239 886 m 287 786 l 287 838 l 334 838 l 334 786 m 239 652 l 334 652 l 334 599 l 239 599 l 239 551 l 382 551 l 382 652 l 477 652 l 477 699 l 239 699 m 429 518 l 239 518 l 239 470 l 477 470 l 477 613 l 429 613 m 334 358 l 382 358 l 382 391 l 429 391 l 429 323 l 287 323 l 287 438 l 239 438 l 239 276 l 477 276 l 477 438 l 334 438 m 239 28 l 477 28 l 477 190 l 239 190 m 287 75 l 287 143 l 429 143 l 429 75 m 239 -52 l 340 -52 l 239 -119 l 239 -167 l 477 -167 l 477 -119 l 331 -119 l 431 -52 l 477 -52 l 477 -4 l 239 -4 "},"":{"ha":716,"x_min":0,"x_max":0,"o":"m 587 -265 l 587 1167 l 133 1167 l 133 -265 m 240 1071 l 477 1071 l 477 1024 l 382 1024 l 382 971 l 477 971 l 477 924 l 239 924 l 239 971 l 334 971 l 334 1024 l 240 1024 m 239 886 l 382 886 l 382 786 l 477 786 l 477 738 l 239 738 m 334 786 l 334 838 l 287 838 l 287 786 m 239 699 l 477 699 l 477 652 l 382 652 l 382 551 l 239 551 l 239 599 l 334 599 l 334 652 l 239 652 m 429 613 l 477 613 l 477 470 l 239 470 l 239 518 l 429 518 m 334 438 l 477 438 l 477 276 l 239 276 l 239 438 l 287 438 l 287 323 l 429 323 l 429 391 l 382 391 l 382 358 l 334 358 m 239 190 l 477 190 l 477 28 l 239 28 m 429 75 l 429 143 l 287 143 l 287 75 m 239 -4 l 477 -4 l 477 -52 l 431 -52 l 331 -119 l 477 -119 l 477 -167 l 239 -167 l 239 -119 l 340 -52 l 239 -52 "},"":{"ha":716,"x_min":0,"x_max":0,"o":"m 133 -265 l 133 1167 l 587 1167 l 587 -265 m 240 1024 l 334 1024 l 334 971 l 239 971 l 239 924 l 477 924 l 477 971 l 382 971 l 382 1024 l 477 1024 l 477 1071 l 240 1071 m 239 738 l 477 738 l 477 786 l 382 786 l 382 886 l 239 886 m 287 786 l 287 838 l 334 838 l 334 786 m 239 652 l 334 652 l 334 599 l 239 599 l 239 551 l 382 551 l 382 652 l 477 652 l 477 699 l 239 699 m 429 518 l 239 518 l 239 470 l 477 470 l 477 613 l 429 613 m 334 358 l 382 358 l 382 391 l 429 391 l 429 323 l 287 323 l 287 438 l 239 438 l 239 276 l 477 276 l 477 438 l 334 438 m 239 28 l 477 28 l 477 190 l 239 190 m 287 75 l 287 143 l 429 143 l 429 75 m 239 -52 l 340 -52 l 239 -119 l 239 -167 l 477 -167 l 477 -119 l 331 -119 l 431 -52 l 477 -52 l 477 -4 l 239 -4 "},"":{"ha":716,"x_min":0,"x_max":0,"o":"m 587 -265 l 587 1167 l 133 1167 l 133 -265 m 240 1071 l 477 1071 l 477 1024 l 382 1024 l 382 971 l 477 971 l 477 924 l 239 924 l 239 971 l 334 971 l 334 1024 l 240 1024 m 239 886 l 382 886 l 382 786 l 477 786 l 477 738 l 239 738 m 334 786 l 334 838 l 287 838 l 287 786 m 239 699 l 477 699 l 477 652 l 382 652 l 382 551 l 239 551 l 239 599 l 334 599 l 334 652 l 239 652 m 429 613 l 477 613 l 477 470 l 239 470 l 239 518 l 429 518 m 334 438 l 477 438 l 477 276 l 239 276 l 239 438 l 287 438 l 287 323 l 429 323 l 429 391 l 382 391 l 382 358 l 334 358 m 239 190 l 477 190 l 477 28 l 239 28 m 429 75 l 429 143 l 287 143 l 287 75 m 239 -4 l 477 -4 l 477 -52 l 431 -52 l 331 -119 l 477 -119 l 477 -167 l 239 -167 l 239 -119 l 340 -52 l 239 -52 "},"":{"ha":716,"x_min":0,"x_max":0,"o":"m 133 -265 l 133 1167 l 587 1167 l 587 -265 m 240 1024 l 334 1024 l 334 971 l 239 971 l 239 924 l 477 924 l 477 971 l 382 971 l 382 1024 l 477 1024 l 477 1071 l 240 1071 m 239 738 l 477 738 l 477 786 l 382 786 l 382 886 l 239 886 m 287 786 l 287 838 l 334 838 l 334 786 m 239 652 l 334 652 l 334 599 l 239 599 l 239 551 l 382 551 l 382 652 l 477 652 l 477 699 l 239 699 m 429 518 l 239 518 l 239 470 l 477 470 l 477 613 l 429 613 m 334 358 l 382 358 l 382 391 l 429 391 l 429 323 l 287 323 l 287 438 l 239 438 l 239 276 l 477 276 l 477 438 l 334 438 m 239 28 l 477 28 l 477 190 l 239 190 m 287 75 l 287 143 l 429 143 l 429 75 m 239 -52 l 340 -52 l 239 -119 l 239 -167 l 477 -167 l 477 -119 l 331 -119 l 431 -52 l 477 -52 l 477 -4 l 239 -4 "},"":{"ha":716,"x_min":0,"x_max":0,"o":"m 587 -265 l 587 1167 l 133 1167 l 133 -265 m 240 1071 l 477 1071 l 477 1024 l 382 1024 l 382 971 l 477 971 l 477 924 l 239 924 l 239 971 l 334 971 l 334 1024 l 240 1024 m 239 886 l 382 886 l 382 786 l 477 786 l 477 738 l 239 738 m 334 786 l 334 838 l 287 838 l 287 786 m 239 699 l 477 699 l 477 652 l 382 652 l 382 551 l 239 551 l 239 599 l 334 599 l 334 652 l 239 652 m 429 613 l 477 613 l 477 470 l 239 470 l 239 518 l 429 518 m 334 438 l 477 438 l 477 276 l 239 276 l 239 438 l 287 438 l 287 323 l 429 323 l 429 391 l 382 391 l 382 358 l 334 358 m 239 190 l 477 190 l 477 28 l 239 28 m 429 75 l 429 143 l 287 143 l 287 75 m 239 -4 l 477 -4 l 477 -52 l 431 -52 l 331 -119 l 477 -119 l 477 -167 l 239 -167 l 239 -119 l 340 -52 l 239 -52 "},"":{"ha":716,"x_min":0,"x_max":0,"o":"m 133 -265 l 133 1167 l 587 1167 l 587 -265 m 240 1024 l 334 1024 l 334 971 l 239 971 l 239 924 l 477 924 l 477 971 l 382 971 l 382 1024 l 477 1024 l 477 1071 l 240 1071 m 239 738 l 477 738 l 477 786 l 382 786 l 382 886 l 239 886 m 287 786 l 287 838 l 334 838 l 334 786 m 239 652 l 334 652 l 334 599 l 239 599 l 239 551 l 382 551 l 382 652 l 477 652 l 477 699 l 239 699 m 429 518 l 239 518 l 239 470 l 477 470 l 477 613 l 429 613 m 334 358 l 382 358 l 382 391 l 429 391 l 429 323 l 287 323 l 287 438 l 239 438 l 239 276 l 477 276 l 477 438 l 334 438 m 239 28 l 477 28 l 477 190 l 239 190 m 287 75 l 287 143 l 429 143 l 429 75 m 239 -52 l 340 -52 l 239 -119 l 239 -167 l 477 -167 l 477 -119 l 331 -119 l 431 -52 l 477 -52 l 477 -4 l 239 -4 "},"":{"ha":716,"x_min":0,"x_max":0,"o":"m 587 -265 l 587 1167 l 133 1167 l 133 -265 m 240 1071 l 477 1071 l 477 1024 l 382 1024 l 382 971 l 477 971 l 477 924 l 239 924 l 239 971 l 334 971 l 334 1024 l 240 1024 m 239 886 l 382 886 l 382 786 l 477 786 l 477 738 l 239 738 m 334 786 l 334 838 l 287 838 l 287 786 m 239 699 l 477 699 l 477 652 l 382 652 l 382 551 l 239 551 l 239 599 l 334 599 l 334 652 l 239 652 m 429 613 l 477 613 l 477 470 l 239 470 l 239 518 l 429 518 m 334 438 l 477 438 l 477 276 l 239 276 l 239 438 l 287 438 l 287 323 l 429 323 l 429 391 l 382 391 l 382 358 l 334 358 m 239 190 l 477 190 l 477 28 l 239 28 m 429 75 l 429 143 l 287 143 l 287 75 m 239 -4 l 477 -4 l 477 -52 l 431 -52 l 331 -119 l 477 -119 l 477 -167 l 239 -167 l 239 -119 l 340 -52 l 239 -52 "},"":{"ha":716,"x_min":0,"x_max":0,"o":"m 133 -265 l 133 1167 l 587 1167 l 587 -265 m 240 1024 l 334 1024 l 334 971 l 239 971 l 239 924 l 477 924 l 477 971 l 382 971 l 382 1024 l 477 1024 l 477 1071 l 240 1071 m 239 738 l 477 738 l 477 786 l 382 786 l 382 886 l 239 886 m 287 786 l 287 838 l 334 838 l 334 786 m 239 652 l 334 652 l 334 599 l 239 599 l 239 551 l 382 551 l 382 652 l 477 652 l 477 699 l 239 699 m 429 518 l 239 518 l 239 470 l 477 470 l 477 613 l 429 613 m 334 358 l 382 358 l 382 391 l 429 391 l 429 323 l 287 323 l 287 438 l 239 438 l 239 276 l 477 276 l 477 438 l 334 438 m 239 28 l 477 28 l 477 190 l 239 190 m 287 75 l 287 143 l 429 143 l 429 75 m 239 -52 l 340 -52 l 239 -119 l 239 -167 l 477 -167 l 477 -119 l 331 -119 l 431 -52 l 477 -52 l 477 -4 l 239 -4 "},"":{"ha":716,"x_min":0,"x_max":0,"o":"m 587 -265 l 587 1167 l 133 1167 l 133 -265 m 240 1071 l 477 1071 l 477 1024 l 382 1024 l 382 971 l 477 971 l 477 924 l 239 924 l 239 971 l 334 971 l 334 1024 l 240 1024 m 239 886 l 382 886 l 382 786 l 477 786 l 477 738 l 239 738 m 334 786 l 334 838 l 287 838 l 287 786 m 239 699 l 477 699 l 477 652 l 382 652 l 382 551 l 239 551 l 239 599 l 334 599 l 334 652 l 239 652 m 429 613 l 477 613 l 477 470 l 239 470 l 239 518 l 429 518 m 334 438 l 477 438 l 477 276 l 239 276 l 239 438 l 287 438 l 287 323 l 429 323 l 429 391 l 382 391 l 382 358 l 334 358 m 239 190 l 477 190 l 477 28 l 239 28 m 429 75 l 429 143 l 287 143 l 287 75 m 239 -4 l 477 -4 l 477 -52 l 431 -52 l 331 -119 l 477 -119 l 477 -167 l 239 -167 l 239 -119 l 340 -52 l 239 -52 "},"":{"ha":716,"x_min":0,"x_max":0,"o":"m 133 -265 l 133 1167 l 587 1167 l 587 -265 m 240 1024 l 334 1024 l 334 971 l 239 971 l 239 924 l 477 924 l 477 971 l 382 971 l 382 1024 l 477 1024 l 477 1071 l 240 1071 m 239 738 l 477 738 l 477 786 l 382 786 l 382 886 l 239 886 m 287 786 l 287 838 l 334 838 l 334 786 m 239 652 l 334 652 l 334 599 l 239 599 l 239 551 l 382 551 l 382 652 l 477 652 l 477 699 l 239 699 m 429 518 l 239 518 l 239 470 l 477 470 l 477 613 l 429 613 m 334 358 l 382 358 l 382 391 l 429 391 l 429 323 l 287 323 l 287 438 l 239 438 l 239 276 l 477 276 l 477 438 l 334 438 m 239 28 l 477 28 l 477 190 l 239 190 m 287 75 l 287 143 l 429 143 l 429 75 m 239 -52 l 340 -52 l 239 -119 l 239 -167 l 477 -167 l 477 -119 l 331 -119 l 431 -52 l 477 -52 l 477 -4 l 239 -4 "},"":{"ha":716,"x_min":0,"x_max":0,"o":"m 587 -265 l 587 1167 l 133 1167 l 133 -265 m 240 1071 l 477 1071 l 477 1024 l 382 1024 l 382 971 l 477 971 l 477 924 l 239 924 l 239 971 l 334 971 l 334 1024 l 240 1024 m 239 886 l 382 886 l 382 786 l 477 786 l 477 738 l 239 738 m 334 786 l 334 838 l 287 838 l 287 786 m 239 699 l 477 699 l 477 652 l 382 652 l 382 551 l 239 551 l 239 599 l 334 599 l 334 652 l 239 652 m 429 613 l 477 613 l 477 470 l 239 470 l 239 518 l 429 518 m 334 438 l 477 438 l 477 276 l 239 276 l 239 438 l 287 438 l 287 323 l 429 323 l 429 391 l 382 391 l 382 358 l 334 358 m 239 190 l 477 190 l 477 28 l 239 28 m 429 75 l 429 143 l 287 143 l 287 75 m 239 -4 l 477 -4 l 477 -52 l 431 -52 l 331 -119 l 477 -119 l 477 -167 l 239 -167 l 239 -119 l 340 -52 l 239 -52 "},"":{"ha":716,"x_min":0,"x_max":0,"o":"m 133 -265 l 133 1167 l 587 1167 l 587 -265 m 240 1024 l 334 1024 l 334 971 l 239 971 l 239 924 l 477 924 l 477 971 l 382 971 l 382 1024 l 477 1024 l 477 1071 l 240 1071 m 239 738 l 477 738 l 477 786 l 382 786 l 382 886 l 239 886 m 287 786 l 287 838 l 334 838 l 334 786 m 239 652 l 334 652 l 334 599 l 239 599 l 239 551 l 382 551 l 382 652 l 477 652 l 477 699 l 239 699 m 429 518 l 239 518 l 239 470 l 477 470 l 477 613 l 429 613 m 334 358 l 382 358 l 382 391 l 429 391 l 429 323 l 287 323 l 287 438 l 239 438 l 239 276 l 477 276 l 477 438 l 334 438 m 239 28 l 477 28 l 477 190 l 239 190 m 287 75 l 287 143 l 429 143 l 429 75 m 239 -52 l 340 -52 l 239 -119 l 239 -167 l 477 -167 l 477 -119 l 331 -119 l 431 -52 l 477 -52 l 477 -4 l 239 -4 "},"":{"ha":716,"x_min":0,"x_max":0,"o":"m 587 -265 l 587 1167 l 133 1167 l 133 -265 m 240 1071 l 477 1071 l 477 1024 l 382 1024 l 382 971 l 477 971 l 477 924 l 239 924 l 239 971 l 334 971 l 334 1024 l 240 1024 m 239 886 l 382 886 l 382 786 l 477 786 l 477 738 l 239 738 m 334 786 l 334 838 l 287 838 l 287 786 m 239 699 l 477 699 l 477 652 l 382 652 l 382 551 l 239 551 l 239 599 l 334 599 l 334 652 l 239 652 m 429 613 l 477 613 l 477 470 l 239 470 l 239 518 l 429 518 m 334 438 l 477 438 l 477 276 l 239 276 l 239 438 l 287 438 l 287 323 l 429 323 l 429 391 l 382 391 l 382 358 l 334 358 m 239 190 l 477 190 l 477 28 l 239 28 m 429 75 l 429 143 l 287 143 l 287 75 m 239 -4 l 477 -4 l 477 -52 l 431 -52 l 331 -119 l 477 -119 l 477 -167 l 239 -167 l 239 -119 l 340 -52 l 239 -52 "},"":{"ha":716,"x_min":0,"x_max":0,"o":"m 133 -265 l 133 1167 l 587 1167 l 587 -265 m 240 1024 l 334 1024 l 334 971 l 239 971 l 239 924 l 477 924 l 477 971 l 382 971 l 382 1024 l 477 1024 l 477 1071 l 240 1071 m 239 738 l 477 738 l 477 786 l 382 786 l 382 886 l 239 886 m 287 786 l 287 838 l 334 838 l 334 786 m 239 652 l 334 652 l 334 599 l 239 599 l 239 551 l 382 551 l 382 652 l 477 652 l 477 699 l 239 699 m 429 518 l 239 518 l 239 470 l 477 470 l 477 613 l 429 613 m 334 358 l 382 358 l 382 391 l 429 391 l 429 323 l 287 323 l 287 438 l 239 438 l 239 276 l 477 276 l 477 438 l 334 438 m 239 28 l 477 28 l 477 190 l 239 190 m 287 75 l 287 143 l 429 143 l 429 75 m 239 -52 l 340 -52 l 239 -119 l 239 -167 l 477 -167 l 477 -119 l 331 -119 l 431 -52 l 477 -52 l 477 -4 l 239 -4 "},"":{"ha":716,"x_min":0,"x_max":0,"o":"m 587 -265 l 587 1167 l 133 1167 l 133 -265 m 240 1071 l 477 1071 l 477 1024 l 382 1024 l 382 971 l 477 971 l 477 924 l 239 924 l 239 971 l 334 971 l 334 1024 l 240 1024 m 239 886 l 382 886 l 382 786 l 477 786 l 477 738 l 239 738 m 334 786 l 334 838 l 287 838 l 287 786 m 239 699 l 477 699 l 477 652 l 382 652 l 382 551 l 239 551 l 239 599 l 334 599 l 334 652 l 239 652 m 429 613 l 477 613 l 477 470 l 239 470 l 239 518 l 429 518 m 334 438 l 477 438 l 477 276 l 239 276 l 239 438 l 287 438 l 287 323 l 429 323 l 429 391 l 382 391 l 382 358 l 334 358 m 239 190 l 477 190 l 477 28 l 239 28 m 429 75 l 429 143 l 287 143 l 287 75 m 239 -4 l 477 -4 l 477 -52 l 431 -52 l 331 -119 l 477 -119 l 477 -167 l 239 -167 l 239 -119 l 340 -52 l 239 -52 "},"":{"ha":716,"x_min":0,"x_max":0,"o":"m 133 -265 l 133 1167 l 587 1167 l 587 -265 m 240 1024 l 334 1024 l 334 971 l 239 971 l 239 924 l 477 924 l 477 971 l 382 971 l 382 1024 l 477 1024 l 477 1071 l 240 1071 m 239 738 l 477 738 l 477 786 l 382 786 l 382 886 l 239 886 m 287 786 l 287 838 l 334 838 l 334 786 m 239 652 l 334 652 l 334 599 l 239 599 l 239 551 l 382 551 l 382 652 l 477 652 l 477 699 l 239 699 m 429 518 l 239 518 l 239 470 l 477 470 l 477 613 l 429 613 m 334 358 l 382 358 l 382 391 l 429 391 l 429 323 l 287 323 l 287 438 l 239 438 l 239 276 l 477 276 l 477 438 l 334 438 m 239 28 l 477 28 l 477 190 l 239 190 m 287 75 l 287 143 l 429 143 l 429 75 m 239 -52 l 340 -52 l 239 -119 l 239 -167 l 477 -167 l 477 -119 l 331 -119 l 431 -52 l 477 -52 l 477 -4 l 239 -4 "},"":{"ha":716,"x_min":0,"x_max":0,"o":"m 587 -265 l 587 1167 l 133 1167 l 133 -265 m 240 1071 l 477 1071 l 477 1024 l 382 1024 l 382 971 l 477 971 l 477 924 l 239 924 l 239 971 l 334 971 l 334 1024 l 240 1024 m 239 886 l 382 886 l 382 786 l 477 786 l 477 738 l 239 738 m 334 786 l 334 838 l 287 838 l 287 786 m 239 699 l 477 699 l 477 652 l 382 652 l 382 551 l 239 551 l 239 599 l 334 599 l 334 652 l 239 652 m 429 613 l 477 613 l 477 470 l 239 470 l 239 518 l 429 518 m 334 438 l 477 438 l 477 276 l 239 276 l 239 438 l 287 438 l 287 323 l 429 323 l 429 391 l 382 391 l 382 358 l 334 358 m 239 190 l 477 190 l 477 28 l 239 28 m 429 75 l 429 143 l 287 143 l 287 75 m 239 -4 l 477 -4 l 477 -52 l 431 -52 l 331 -119 l 477 -119 l 477 -167 l 239 -167 l 239 -119 l 340 -52 l 239 -52 "},"":{"ha":716,"x_min":0,"x_max":0,"o":"m 133 -265 l 133 1167 l 587 1167 l 587 -265 m 240 1024 l 334 1024 l 334 971 l 239 971 l 239 924 l 477 924 l 477 971 l 382 971 l 382 1024 l 477 1024 l 477 1071 l 240 1071 m 239 738 l 477 738 l 477 786 l 382 786 l 382 886 l 239 886 m 287 786 l 287 838 l 334 838 l 334 786 m 239 652 l 334 652 l 334 599 l 239 599 l 239 551 l 382 551 l 382 652 l 477 652 l 477 699 l 239 699 m 429 518 l 239 518 l 239 470 l 477 470 l 477 613 l 429 613 m 334 358 l 382 358 l 382 391 l 429 391 l 429 323 l 287 323 l 287 438 l 239 438 l 239 276 l 477 276 l 477 438 l 334 438 m 239 28 l 477 28 l 477 190 l 239 190 m 287 75 l 287 143 l 429 143 l 429 75 m 239 -52 l 340 -52 l 239 -119 l 239 -167 l 477 -167 l 477 -119 l 331 -119 l 431 -52 l 477 -52 l 477 -4 l 239 -4 "},"":{"ha":716,"x_min":0,"x_max":0,"o":"m 587 -265 l 587 1167 l 133 1167 l 133 -265 m 240 1071 l 477 1071 l 477 1024 l 382 1024 l 382 971 l 477 971 l 477 924 l 239 924 l 239 971 l 334 971 l 334 1024 l 240 1024 m 239 886 l 382 886 l 382 786 l 477 786 l 477 738 l 239 738 m 334 786 l 334 838 l 287 838 l 287 786 m 239 699 l 477 699 l 477 652 l 382 652 l 382 551 l 239 551 l 239 599 l 334 599 l 334 652 l 239 652 m 429 613 l 477 613 l 477 470 l 239 470 l 239 518 l 429 518 m 334 438 l 477 438 l 477 276 l 239 276 l 239 438 l 287 438 l 287 323 l 429 323 l 429 391 l 382 391 l 382 358 l 334 358 m 239 190 l 477 190 l 477 28 l 239 28 m 429 75 l 429 143 l 287 143 l 287 75 m 239 -4 l 477 -4 l 477 -52 l 431 -52 l 331 -119 l 477 -119 l 477 -167 l 239 -167 l 239 -119 l 340 -52 l 239 -52 "},"":{"ha":716,"x_min":0,"x_max":0,"o":"m 133 -265 l 133 1167 l 587 1167 l 587 -265 m 240 1024 l 334 1024 l 334 971 l 239 971 l 239 924 l 477 924 l 477 971 l 382 971 l 382 1024 l 477 1024 l 477 1071 l 240 1071 m 239 738 l 477 738 l 477 786 l 382 786 l 382 886 l 239 886 m 287 786 l 287 838 l 334 838 l 334 786 m 239 652 l 334 652 l 334 599 l 239 599 l 239 551 l 382 551 l 382 652 l 477 652 l 477 699 l 239 699 m 429 518 l 239 518 l 239 470 l 477 470 l 477 613 l 429 613 m 334 358 l 382 358 l 382 391 l 429 391 l 429 323 l 287 323 l 287 438 l 239 438 l 239 276 l 477 276 l 477 438 l 334 438 m 239 28 l 477 28 l 477 190 l 239 190 m 287 75 l 287 143 l 429 143 l 429 75 m 239 -52 l 340 -52 l 239 -119 l 239 -167 l 477 -167 l 477 -119 l 331 -119 l 431 -52 l 477 -52 l 477 -4 l 239 -4 "},"":{"ha":716,"x_min":0,"x_max":0,"o":"m 587 -265 l 587 1167 l 133 1167 l 133 -265 m 240 1071 l 477 1071 l 477 1024 l 382 1024 l 382 971 l 477 971 l 477 924 l 239 924 l 239 971 l 334 971 l 334 1024 l 240 1024 m 239 886 l 382 886 l 382 786 l 477 786 l 477 738 l 239 738 m 334 786 l 334 838 l 287 838 l 287 786 m 239 699 l 477 699 l 477 652 l 382 652 l 382 551 l 239 551 l 239 599 l 334 599 l 334 652 l 239 652 m 429 613 l 477 613 l 477 470 l 239 470 l 239 518 l 429 518 m 334 438 l 477 438 l 477 276 l 239 276 l 239 438 l 287 438 l 287 323 l 429 323 l 429 391 l 382 391 l 382 358 l 334 358 m 239 190 l 477 190 l 477 28 l 239 28 m 429 75 l 429 143 l 287 143 l 287 75 m 239 -4 l 477 -4 l 477 -52 l 431 -52 l 331 -119 l 477 -119 l 477 -167 l 239 -167 l 239 -119 l 340 -52 l 239 -52 "},"":{"ha":716,"x_min":0,"x_max":0,"o":"m 133 -265 l 133 1167 l 587 1167 l 587 -265 m 240 1024 l 334 1024 l 334 971 l 239 971 l 239 924 l 477 924 l 477 971 l 382 971 l 382 1024 l 477 1024 l 477 1071 l 240 1071 m 239 738 l 477 738 l 477 786 l 382 786 l 382 886 l 239 886 m 287 786 l 287 838 l 334 838 l 334 786 m 239 652 l 334 652 l 334 599 l 239 599 l 239 551 l 382 551 l 382 652 l 477 652 l 477 699 l 239 699 m 429 518 l 239 518 l 239 470 l 477 470 l 477 613 l 429 613 m 334 358 l 382 358 l 382 391 l 429 391 l 429 323 l 287 323 l 287 438 l 239 438 l 239 276 l 477 276 l 477 438 l 334 438 m 239 28 l 477 28 l 477 190 l 239 190 m 287 75 l 287 143 l 429 143 l 429 75 m 239 -52 l 340 -52 l 239 -119 l 239 -167 l 477 -167 l 477 -119 l 331 -119 l 431 -52 l 477 -52 l 477 -4 l 239 -4 "},"":{"ha":716,"x_min":0,"x_max":0,"o":"m 587 -265 l 587 1167 l 133 1167 l 133 -265 m 240 1071 l 477 1071 l 477 1024 l 382 1024 l 382 971 l 477 971 l 477 924 l 239 924 l 239 971 l 334 971 l 334 1024 l 240 1024 m 239 886 l 382 886 l 382 786 l 477 786 l 477 738 l 239 738 m 334 786 l 334 838 l 287 838 l 287 786 m 239 699 l 477 699 l 477 652 l 382 652 l 382 551 l 239 551 l 239 599 l 334 599 l 334 652 l 239 652 m 429 613 l 477 613 l 477 470 l 239 470 l 239 518 l 429 518 m 334 438 l 477 438 l 477 276 l 239 276 l 239 438 l 287 438 l 287 323 l 429 323 l 429 391 l 382 391 l 382 358 l 334 358 m 239 190 l 477 190 l 477 28 l 239 28 m 429 75 l 429 143 l 287 143 l 287 75 m 239 -4 l 477 -4 l 477 -52 l 431 -52 l 331 -119 l 477 -119 l 477 -167 l 239 -167 l 239 -119 l 340 -52 l 239 -52 "},"":{"ha":716,"x_min":0,"x_max":0,"o":"m 133 -265 l 133 1167 l 587 1167 l 587 -265 m 240 1024 l 334 1024 l 334 971 l 239 971 l 239 924 l 477 924 l 477 971 l 382 971 l 382 1024 l 477 1024 l 477 1071 l 240 1071 m 239 738 l 477 738 l 477 786 l 382 786 l 382 886 l 239 886 m 287 786 l 287 838 l 334 838 l 334 786 m 239 652 l 334 652 l 334 599 l 239 599 l 239 551 l 382 551 l 382 652 l 477 652 l 477 699 l 239 699 m 429 518 l 239 518 l 239 470 l 477 470 l 477 613 l 429 613 m 334 358 l 382 358 l 382 391 l 429 391 l 429 323 l 287 323 l 287 438 l 239 438 l 239 276 l 477 276 l 477 438 l 334 438 m 239 28 l 477 28 l 477 190 l 239 190 m 287 75 l 287 143 l 429 143 l 429 75 m 239 -52 l 340 -52 l 239 -119 l 239 -167 l 477 -167 l 477 -119 l 331 -119 l 431 -52 l 477 -52 l 477 -4 l 239 -4 "},"":{"ha":716,"x_min":0,"x_max":0,"o":"m 587 -265 l 587 1167 l 133 1167 l 133 -265 m 240 1071 l 477 1071 l 477 1024 l 382 1024 l 382 971 l 477 971 l 477 924 l 239 924 l 239 971 l 334 971 l 334 1024 l 240 1024 m 239 886 l 382 886 l 382 786 l 477 786 l 477 738 l 239 738 m 334 786 l 334 838 l 287 838 l 287 786 m 239 699 l 477 699 l 477 652 l 382 652 l 382 551 l 239 551 l 239 599 l 334 599 l 334 652 l 239 652 m 429 613 l 477 613 l 477 470 l 239 470 l 239 518 l 429 518 m 334 438 l 477 438 l 477 276 l 239 276 l 239 438 l 287 438 l 287 323 l 429 323 l 429 391 l 382 391 l 382 358 l 334 358 m 239 190 l 477 190 l 477 28 l 239 28 m 429 75 l 429 143 l 287 143 l 287 75 m 239 -4 l 477 -4 l 477 -52 l 431 -52 l 331 -119 l 477 -119 l 477 -167 l 239 -167 l 239 -119 l 340 -52 l 239 -52 "},"":{"ha":716,"x_min":0,"x_max":0,"o":"m 133 -265 l 133 1167 l 587 1167 l 587 -265 m 240 1024 l 334 1024 l 334 971 l 239 971 l 239 924 l 477 924 l 477 971 l 382 971 l 382 1024 l 477 1024 l 477 1071 l 240 1071 m 239 738 l 477 738 l 477 786 l 382 786 l 382 886 l 239 886 m 287 786 l 287 838 l 334 838 l 334 786 m 239 652 l 334 652 l 334 599 l 239 599 l 239 551 l 382 551 l 382 652 l 477 652 l 477 699 l 239 699 m 429 518 l 239 518 l 239 470 l 477 470 l 477 613 l 429 613 m 334 358 l 382 358 l 382 391 l 429 391 l 429 323 l 287 323 l 287 438 l 239 438 l 239 276 l 477 276 l 477 438 l 334 438 m 239 28 l 477 28 l 477 190 l 239 190 m 287 75 l 287 143 l 429 143 l 429 75 m 239 -52 l 340 -52 l 239 -119 l 239 -167 l 477 -167 l 477 -119 l 331 -119 l 431 -52 l 477 -52 l 477 -4 l 239 -4 "},"":{"ha":716,"x_min":0,"x_max":0,"o":"m 587 -265 l 587 1167 l 133 1167 l 133 -265 m 240 1071 l 477 1071 l 477 1024 l 382 1024 l 382 971 l 477 971 l 477 924 l 239 924 l 239 971 l 334 971 l 334 1024 l 240 1024 m 239 886 l 382 886 l 382 786 l 477 786 l 477 738 l 239 738 m 334 786 l 334 838 l 287 838 l 287 786 m 239 699 l 477 699 l 477 652 l 382 652 l 382 551 l 239 551 l 239 599 l 334 599 l 334 652 l 239 652 m 429 613 l 477 613 l 477 470 l 239 470 l 239 518 l 429 518 m 334 438 l 477 438 l 477 276 l 239 276 l 239 438 l 287 438 l 287 323 l 429 323 l 429 391 l 382 391 l 382 358 l 334 358 m 239 190 l 477 190 l 477 28 l 239 28 m 429 75 l 429 143 l 287 143 l 287 75 m 239 -4 l 477 -4 l 477 -52 l 431 -52 l 331 -119 l 477 -119 l 477 -167 l 239 -167 l 239 -119 l 340 -52 l 239 -52 "},"":{"ha":716,"x_min":0,"x_max":0,"o":"m 133 -265 l 133 1167 l 587 1167 l 587 -265 m 240 1024 l 334 1024 l 334 971 l 239 971 l 239 924 l 477 924 l 477 971 l 382 971 l 382 1024 l 477 1024 l 477 1071 l 240 1071 m 239 738 l 477 738 l 477 786 l 382 786 l 382 886 l 239 886 m 287 786 l 287 838 l 334 838 l 334 786 m 239 652 l 334 652 l 334 599 l 239 599 l 239 551 l 382 551 l 382 652 l 477 652 l 477 699 l 239 699 m 429 518 l 239 518 l 239 470 l 477 470 l 477 613 l 429 613 m 334 358 l 382 358 l 382 391 l 429 391 l 429 323 l 287 323 l 287 438 l 239 438 l 239 276 l 477 276 l 477 438 l 334 438 m 239 28 l 477 28 l 477 190 l 239 190 m 287 75 l 287 143 l 429 143 l 429 75 m 239 -52 l 340 -52 l 239 -119 l 239 -167 l 477 -167 l 477 -119 l 331 -119 l 431 -52 l 477 -52 l 477 -4 l 239 -4 "},"":{"ha":716,"x_min":0,"x_max":0,"o":"m 587 -265 l 587 1167 l 133 1167 l 133 -265 m 240 1071 l 477 1071 l 477 1024 l 382 1024 l 382 971 l 477 971 l 477 924 l 239 924 l 239 971 l 334 971 l 334 1024 l 240 1024 m 239 886 l 382 886 l 382 786 l 477 786 l 477 738 l 239 738 m 334 786 l 334 838 l 287 838 l 287 786 m 239 699 l 477 699 l 477 652 l 382 652 l 382 551 l 239 551 l 239 599 l 334 599 l 334 652 l 239 652 m 429 613 l 477 613 l 477 470 l 239 470 l 239 518 l 429 518 m 334 438 l 477 438 l 477 276 l 239 276 l 239 438 l 287 438 l 287 323 l 429 323 l 429 391 l 382 391 l 382 358 l 334 358 m 239 190 l 477 190 l 477 28 l 239 28 m 429 75 l 429 143 l 287 143 l 287 75 m 239 -4 l 477 -4 l 477 -52 l 431 -52 l 331 -119 l 477 -119 l 477 -167 l 239 -167 l 239 -119 l 340 -52 l 239 -52 "},"":{"ha":716,"x_min":0,"x_max":0,"o":"m 133 -265 l 133 1167 l 587 1167 l 587 -265 m 240 1024 l 334 1024 l 334 971 l 239 971 l 239 924 l 477 924 l 477 971 l 382 971 l 382 1024 l 477 1024 l 477 1071 l 240 1071 m 239 738 l 477 738 l 477 786 l 382 786 l 382 886 l 239 886 m 287 786 l 287 838 l 334 838 l 334 786 m 239 652 l 334 652 l 334 599 l 239 599 l 239 551 l 382 551 l 382 652 l 477 652 l 477 699 l 239 699 m 429 518 l 239 518 l 239 470 l 477 470 l 477 613 l 429 613 m 334 358 l 382 358 l 382 391 l 429 391 l 429 323 l 287 323 l 287 438 l 239 438 l 239 276 l 477 276 l 477 438 l 334 438 m 239 28 l 477 28 l 477 190 l 239 190 m 287 75 l 287 143 l 429 143 l 429 75 m 239 -52 l 340 -52 l 239 -119 l 239 -167 l 477 -167 l 477 -119 l 331 -119 l 431 -52 l 477 -52 l 477 -4 l 239 -4 "},"":{"ha":716,"x_min":0,"x_max":0,"o":"m 587 -265 l 587 1167 l 133 1167 l 133 -265 m 240 1071 l 477 1071 l 477 1024 l 382 1024 l 382 971 l 477 971 l 477 924 l 239 924 l 239 971 l 334 971 l 334 1024 l 240 1024 m 239 886 l 382 886 l 382 786 l 477 786 l 477 738 l 239 738 m 334 786 l 334 838 l 287 838 l 287 786 m 239 699 l 477 699 l 477 652 l 382 652 l 382 551 l 239 551 l 239 599 l 334 599 l 334 652 l 239 652 m 429 613 l 477 613 l 477 470 l 239 470 l 239 518 l 429 518 m 334 438 l 477 438 l 477 276 l 239 276 l 239 438 l 287 438 l 287 323 l 429 323 l 429 391 l 382 391 l 382 358 l 334 358 m 239 190 l 477 190 l 477 28 l 239 28 m 429 75 l 429 143 l 287 143 l 287 75 m 239 -4 l 477 -4 l 477 -52 l 431 -52 l 331 -119 l 477 -119 l 477 -167 l 239 -167 l 239 -119 l 340 -52 l 239 -52 "},"":{"ha":716,"x_min":0,"x_max":0,"o":"m 133 -265 l 133 1167 l 587 1167 l 587 -265 m 240 1024 l 334 1024 l 334 971 l 239 971 l 239 924 l 477 924 l 477 971 l 382 971 l 382 1024 l 477 1024 l 477 1071 l 240 1071 m 239 738 l 477 738 l 477 786 l 382 786 l 382 886 l 239 886 m 287 786 l 287 838 l 334 838 l 334 786 m 239 652 l 334 652 l 334 599 l 239 599 l 239 551 l 382 551 l 382 652 l 477 652 l 477 699 l 239 699 m 429 518 l 239 518 l 239 470 l 477 470 l 477 613 l 429 613 m 334 358 l 382 358 l 382 391 l 429 391 l 429 323 l 287 323 l 287 438 l 239 438 l 239 276 l 477 276 l 477 438 l 334 438 m 239 28 l 477 28 l 477 190 l 239 190 m 287 75 l 287 143 l 429 143 l 429 75 m 239 -52 l 340 -52 l 239 -119 l 239 -167 l 477 -167 l 477 -119 l 331 -119 l 431 -52 l 477 -52 l 477 -4 l 239 -4 "},"":{"ha":716,"x_min":0,"x_max":0,"o":"m 587 -265 l 587 1167 l 133 1167 l 133 -265 m 240 1071 l 477 1071 l 477 1024 l 382 1024 l 382 971 l 477 971 l 477 924 l 239 924 l 239 971 l 334 971 l 334 1024 l 240 1024 m 239 886 l 382 886 l 382 786 l 477 786 l 477 738 l 239 738 m 334 786 l 334 838 l 287 838 l 287 786 m 239 699 l 477 699 l 477 652 l 382 652 l 382 551 l 239 551 l 239 599 l 334 599 l 334 652 l 239 652 m 429 613 l 477 613 l 477 470 l 239 470 l 239 518 l 429 518 m 334 438 l 477 438 l 477 276 l 239 276 l 239 438 l 287 438 l 287 323 l 429 323 l 429 391 l 382 391 l 382 358 l 334 358 m 239 190 l 477 190 l 477 28 l 239 28 m 429 75 l 429 143 l 287 143 l 287 75 m 239 -4 l 477 -4 l 477 -52 l 431 -52 l 331 -119 l 477 -119 l 477 -167 l 239 -167 l 239 -119 l 340 -52 l 239 -52 "},"":{"ha":716,"x_min":0,"x_max":0,"o":"m 133 -265 l 133 1167 l 587 1167 l 587 -265 m 240 1024 l 334 1024 l 334 971 l 239 971 l 239 924 l 477 924 l 477 971 l 382 971 l 382 1024 l 477 1024 l 477 1071 l 240 1071 m 239 738 l 477 738 l 477 786 l 382 786 l 382 886 l 239 886 m 287 786 l 287 838 l 334 838 l 334 786 m 239 652 l 334 652 l 334 599 l 239 599 l 239 551 l 382 551 l 382 652 l 477 652 l 477 699 l 239 699 m 429 518 l 239 518 l 239 470 l 477 470 l 477 613 l 429 613 m 334 358 l 382 358 l 382 391 l 429 391 l 429 323 l 287 323 l 287 438 l 239 438 l 239 276 l 477 276 l 477 438 l 334 438 m 239 28 l 477 28 l 477 190 l 239 190 m 287 75 l 287 143 l 429 143 l 429 75 m 239 -52 l 340 -52 l 239 -119 l 239 -167 l 477 -167 l 477 -119 l 331 -119 l 431 -52 l 477 -52 l 477 -4 l 239 -4 "},"":{"ha":716,"x_min":0,"x_max":0,"o":"m 587 -265 l 587 1167 l 133 1167 l 133 -265 m 240 1071 l 477 1071 l 477 1024 l 382 1024 l 382 971 l 477 971 l 477 924 l 239 924 l 239 971 l 334 971 l 334 1024 l 240 1024 m 239 886 l 382 886 l 382 786 l 477 786 l 477 738 l 239 738 m 334 786 l 334 838 l 287 838 l 287 786 m 239 699 l 477 699 l 477 652 l 382 652 l 382 551 l 239 551 l 239 599 l 334 599 l 334 652 l 239 652 m 429 613 l 477 613 l 477 470 l 239 470 l 239 518 l 429 518 m 334 438 l 477 438 l 477 276 l 239 276 l 239 438 l 287 438 l 287 323 l 429 323 l 429 391 l 382 391 l 382 358 l 334 358 m 239 190 l 477 190 l 477 28 l 239 28 m 429 75 l 429 143 l 287 143 l 287 75 m 239 -4 l 477 -4 l 477 -52 l 431 -52 l 331 -119 l 477 -119 l 477 -167 l 239 -167 l 239 -119 l 340 -52 l 239 -52 "},"":{"ha":716,"x_min":0,"x_max":0,"o":"m 133 -265 l 133 1167 l 587 1167 l 587 -265 m 240 1024 l 334 1024 l 334 971 l 239 971 l 239 924 l 477 924 l 477 971 l 382 971 l 382 1024 l 477 1024 l 477 1071 l 240 1071 m 239 738 l 477 738 l 477 786 l 382 786 l 382 886 l 239 886 m 287 786 l 287 838 l 334 838 l 334 786 m 239 652 l 334 652 l 334 599 l 239 599 l 239 551 l 382 551 l 382 652 l 477 652 l 477 699 l 239 699 m 429 518 l 239 518 l 239 470 l 477 470 l 477 613 l 429 613 m 334 358 l 382 358 l 382 391 l 429 391 l 429 323 l 287 323 l 287 438 l 239 438 l 239 276 l 477 276 l 477 438 l 334 438 m 239 28 l 477 28 l 477 190 l 239 190 m 287 75 l 287 143 l 429 143 l 429 75 m 239 -52 l 340 -52 l 239 -119 l 239 -167 l 477 -167 l 477 -119 l 331 -119 l 431 -52 l 477 -52 l 477 -4 l 239 -4 "},"":{"ha":716,"x_min":0,"x_max":0,"o":"m 587 -265 l 587 1167 l 133 1167 l 133 -265 m 240 1071 l 477 1071 l 477 1024 l 382 1024 l 382 971 l 477 971 l 477 924 l 239 924 l 239 971 l 334 971 l 334 1024 l 240 1024 m 239 886 l 382 886 l 382 786 l 477 786 l 477 738 l 239 738 m 334 786 l 334 838 l 287 838 l 287 786 m 239 699 l 477 699 l 477 652 l 382 652 l 382 551 l 239 551 l 239 599 l 334 599 l 334 652 l 239 652 m 429 613 l 477 613 l 477 470 l 239 470 l 239 518 l 429 518 m 334 438 l 477 438 l 477 276 l 239 276 l 239 438 l 287 438 l 287 323 l 429 323 l 429 391 l 382 391 l 382 358 l 334 358 m 239 190 l 477 190 l 477 28 l 239 28 m 429 75 l 429 143 l 287 143 l 287 75 m 239 -4 l 477 -4 l 477 -52 l 431 -52 l 331 -119 l 477 -119 l 477 -167 l 239 -167 l 239 -119 l 340 -52 l 239 -52 "},"":{"ha":716,"x_min":0,"x_max":0,"o":"m 133 -265 l 133 1167 l 587 1167 l 587 -265 m 240 1024 l 334 1024 l 334 971 l 239 971 l 239 924 l 477 924 l 477 971 l 382 971 l 382 1024 l 477 1024 l 477 1071 l 240 1071 m 239 738 l 477 738 l 477 786 l 382 786 l 382 886 l 239 886 m 287 786 l 287 838 l 334 838 l 334 786 m 239 652 l 334 652 l 334 599 l 239 599 l 239 551 l 382 551 l 382 652 l 477 652 l 477 699 l 239 699 m 429 518 l 239 518 l 239 470 l 477 470 l 477 613 l 429 613 m 334 358 l 382 358 l 382 391 l 429 391 l 429 323 l 287 323 l 287 438 l 239 438 l 239 276 l 477 276 l 477 438 l 334 438 m 239 28 l 477 28 l 477 190 l 239 190 m 287 75 l 287 143 l 429 143 l 429 75 m 239 -52 l 340 -52 l 239 -119 l 239 -167 l 477 -167 l 477 -119 l 331 -119 l 431 -52 l 477 -52 l 477 -4 l 239 -4 "},"":{"ha":716,"x_min":0,"x_max":0,"o":"m 587 -265 l 587 1167 l 133 1167 l 133 -265 m 240 1071 l 477 1071 l 477 1024 l 382 1024 l 382 971 l 477 971 l 477 924 l 239 924 l 239 971 l 334 971 l 334 1024 l 240 1024 m 239 886 l 382 886 l 382 786 l 477 786 l 477 738 l 239 738 m 334 786 l 334 838 l 287 838 l 287 786 m 239 699 l 477 699 l 477 652 l 382 652 l 382 551 l 239 551 l 239 599 l 334 599 l 334 652 l 239 652 m 429 613 l 477 613 l 477 470 l 239 470 l 239 518 l 429 518 m 334 438 l 477 438 l 477 276 l 239 276 l 239 438 l 287 438 l 287 323 l 429 323 l 429 391 l 382 391 l 382 358 l 334 358 m 239 190 l 477 190 l 477 28 l 239 28 m 429 75 l 429 143 l 287 143 l 287 75 m 239 -4 l 477 -4 l 477 -52 l 431 -52 l 331 -119 l 477 -119 l 477 -167 l 239 -167 l 239 -119 l 340 -52 l 239 -52 "},"":{"ha":716,"x_min":0,"x_max":0,"o":"m 133 -265 l 133 1167 l 587 1167 l 587 -265 m 240 1024 l 334 1024 l 334 971 l 239 971 l 239 924 l 477 924 l 477 971 l 382 971 l 382 1024 l 477 1024 l 477 1071 l 240 1071 m 239 738 l 477 738 l 477 786 l 382 786 l 382 886 l 239 886 m 287 786 l 287 838 l 334 838 l 334 786 m 239 652 l 334 652 l 334 599 l 239 599 l 239 551 l 382 551 l 382 652 l 477 652 l 477 699 l 239 699 m 429 518 l 239 518 l 239 470 l 477 470 l 477 613 l 429 613 m 334 358 l 382 358 l 382 391 l 429 391 l 429 323 l 287 323 l 287 438 l 239 438 l 239 276 l 477 276 l 477 438 l 334 438 m 239 28 l 477 28 l 477 190 l 239 190 m 287 75 l 287 143 l 429 143 l 429 75 m 239 -52 l 340 -52 l 239 -119 l 239 -167 l 477 -167 l 477 -119 l 331 -119 l 431 -52 l 477 -52 l 477 -4 l 239 -4 "},"":{"ha":716,"x_min":0,"x_max":0,"o":"m 587 -265 l 587 1167 l 133 1167 l 133 -265 m 240 1071 l 477 1071 l 477 1024 l 382 1024 l 382 971 l 477 971 l 477 924 l 239 924 l 239 971 l 334 971 l 334 1024 l 240 1024 m 239 886 l 382 886 l 382 786 l 477 786 l 477 738 l 239 738 m 334 786 l 334 838 l 287 838 l 287 786 m 239 699 l 477 699 l 477 652 l 382 652 l 382 551 l 239 551 l 239 599 l 334 599 l 334 652 l 239 652 m 429 613 l 477 613 l 477 470 l 239 470 l 239 518 l 429 518 m 334 438 l 477 438 l 477 276 l 239 276 l 239 438 l 287 438 l 287 323 l 429 323 l 429 391 l 382 391 l 382 358 l 334 358 m 239 190 l 477 190 l 477 28 l 239 28 m 429 75 l 429 143 l 287 143 l 287 75 m 239 -4 l 477 -4 l 477 -52 l 431 -52 l 331 -119 l 477 -119 l 477 -167 l 239 -167 l 239 -119 l 340 -52 l 239 -52 "},"":{"ha":716,"x_min":0,"x_max":0,"o":"m 133 -265 l 133 1167 l 587 1167 l 587 -265 m 240 1024 l 334 1024 l 334 971 l 239 971 l 239 924 l 477 924 l 477 971 l 382 971 l 382 1024 l 477 1024 l 477 1071 l 240 1071 m 239 738 l 477 738 l 477 786 l 382 786 l 382 886 l 239 886 m 287 786 l 287 838 l 334 838 l 334 786 m 239 652 l 334 652 l 334 599 l 239 599 l 239 551 l 382 551 l 382 652 l 477 652 l 477 699 l 239 699 m 429 518 l 239 518 l 239 470 l 477 470 l 477 613 l 429 613 m 334 358 l 382 358 l 382 391 l 429 391 l 429 323 l 287 323 l 287 438 l 239 438 l 239 276 l 477 276 l 477 438 l 334 438 m 239 28 l 477 28 l 477 190 l 239 190 m 287 75 l 287 143 l 429 143 l 429 75 m 239 -52 l 340 -52 l 239 -119 l 239 -167 l 477 -167 l 477 -119 l 331 -119 l 431 -52 l 477 -52 l 477 -4 l 239 -4 "},"":{"ha":716,"x_min":0,"x_max":0,"o":"m 587 -265 l 587 1167 l 133 1167 l 133 -265 m 240 1071 l 477 1071 l 477 1024 l 382 1024 l 382 971 l 477 971 l 477 924 l 239 924 l 239 971 l 334 971 l 334 1024 l 240 1024 m 239 886 l 382 886 l 382 786 l 477 786 l 477 738 l 239 738 m 334 786 l 334 838 l 287 838 l 287 786 m 239 699 l 477 699 l 477 652 l 382 652 l 382 551 l 239 551 l 239 599 l 334 599 l 334 652 l 239 652 m 429 613 l 477 613 l 477 470 l 239 470 l 239 518 l 429 518 m 334 438 l 477 438 l 477 276 l 239 276 l 239 438 l 287 438 l 287 323 l 429 323 l 429 391 l 382 391 l 382 358 l 334 358 m 239 190 l 477 190 l 477 28 l 239 28 m 429 75 l 429 143 l 287 143 l 287 75 m 239 -4 l 477 -4 l 477 -52 l 431 -52 l 331 -119 l 477 -119 l 477 -167 l 239 -167 l 239 -119 l 340 -52 l 239 -52 "},"":{"ha":716,"x_min":0,"x_max":0,"o":"m 133 -265 l 133 1167 l 587 1167 l 587 -265 m 240 1024 l 334 1024 l 334 971 l 239 971 l 239 924 l 477 924 l 477 971 l 382 971 l 382 1024 l 477 1024 l 477 1071 l 240 1071 m 239 738 l 477 738 l 477 786 l 382 786 l 382 886 l 239 886 m 287 786 l 287 838 l 334 838 l 334 786 m 239 652 l 334 652 l 334 599 l 239 599 l 239 551 l 382 551 l 382 652 l 477 652 l 477 699 l 239 699 m 429 518 l 239 518 l 239 470 l 477 470 l 477 613 l 429 613 m 334 358 l 382 358 l 382 391 l 429 391 l 429 323 l 287 323 l 287 438 l 239 438 l 239 276 l 477 276 l 477 438 l 334 438 m 239 28 l 477 28 l 477 190 l 239 190 m 287 75 l 287 143 l 429 143 l 429 75 m 239 -52 l 340 -52 l 239 -119 l 239 -167 l 477 -167 l 477 -119 l 331 -119 l 431 -52 l 477 -52 l 477 -4 l 239 -4 "},"":{"ha":716,"x_min":0,"x_max":0,"o":"m 587 -265 l 587 1167 l 133 1167 l 133 -265 m 240 1071 l 477 1071 l 477 1024 l 382 1024 l 382 971 l 477 971 l 477 924 l 239 924 l 239 971 l 334 971 l 334 1024 l 240 1024 m 239 886 l 382 886 l 382 786 l 477 786 l 477 738 l 239 738 m 334 786 l 334 838 l 287 838 l 287 786 m 239 699 l 477 699 l 477 652 l 382 652 l 382 551 l 239 551 l 239 599 l 334 599 l 334 652 l 239 652 m 429 613 l 477 613 l 477 470 l 239 470 l 239 518 l 429 518 m 334 438 l 477 438 l 477 276 l 239 276 l 239 438 l 287 438 l 287 323 l 429 323 l 429 391 l 382 391 l 382 358 l 334 358 m 239 190 l 477 190 l 477 28 l 239 28 m 429 75 l 429 143 l 287 143 l 287 75 m 239 -4 l 477 -4 l 477 -52 l 431 -52 l 331 -119 l 477 -119 l 477 -167 l 239 -167 l 239 -119 l 340 -52 l 239 -52 "},"":{"ha":716,"x_min":0,"x_max":0,"o":"m 133 -265 l 133 1167 l 587 1167 l 587 -265 m 240 1024 l 334 1024 l 334 971 l 239 971 l 239 924 l 477 924 l 477 971 l 382 971 l 382 1024 l 477 1024 l 477 1071 l 240 1071 m 239 738 l 477 738 l 477 786 l 382 786 l 382 886 l 239 886 m 287 786 l 287 838 l 334 838 l 334 786 m 239 652 l 334 652 l 334 599 l 239 599 l 239 551 l 382 551 l 382 652 l 477 652 l 477 699 l 239 699 m 429 518 l 239 518 l 239 470 l 477 470 l 477 613 l 429 613 m 334 358 l 382 358 l 382 391 l 429 391 l 429 323 l 287 323 l 287 438 l 239 438 l 239 276 l 477 276 l 477 438 l 334 438 m 239 28 l 477 28 l 477 190 l 239 190 m 287 75 l 287 143 l 429 143 l 429 75 m 239 -52 l 340 -52 l 239 -119 l 239 -167 l 477 -167 l 477 -119 l 331 -119 l 431 -52 l 477 -52 l 477 -4 l 239 -4 "},"":{"ha":716,"x_min":0,"x_max":0,"o":"m 587 -265 l 587 1167 l 133 1167 l 133 -265 m 240 1071 l 477 1071 l 477 1024 l 382 1024 l 382 971 l 477 971 l 477 924 l 239 924 l 239 971 l 334 971 l 334 1024 l 240 1024 m 239 886 l 382 886 l 382 786 l 477 786 l 477 738 l 239 738 m 334 786 l 334 838 l 287 838 l 287 786 m 239 699 l 477 699 l 477 652 l 382 652 l 382 551 l 239 551 l 239 599 l 334 599 l 334 652 l 239 652 m 429 613 l 477 613 l 477 470 l 239 470 l 239 518 l 429 518 m 334 438 l 477 438 l 477 276 l 239 276 l 239 438 l 287 438 l 287 323 l 429 323 l 429 391 l 382 391 l 382 358 l 334 358 m 239 190 l 477 190 l 477 28 l 239 28 m 429 75 l 429 143 l 287 143 l 287 75 m 239 -4 l 477 -4 l 477 -52 l 431 -52 l 331 -119 l 477 -119 l 477 -167 l 239 -167 l 239 -119 l 340 -52 l 239 -52 "},"":{"ha":716,"x_min":0,"x_max":0,"o":"m 133 -265 l 133 1167 l 587 1167 l 587 -265 m 240 1024 l 334 1024 l 334 971 l 239 971 l 239 924 l 477 924 l 477 971 l 382 971 l 382 1024 l 477 1024 l 477 1071 l 240 1071 m 239 738 l 477 738 l 477 786 l 382 786 l 382 886 l 239 886 m 287 786 l 287 838 l 334 838 l 334 786 m 239 652 l 334 652 l 334 599 l 239 599 l 239 551 l 382 551 l 382 652 l 477 652 l 477 699 l 239 699 m 429 518 l 239 518 l 239 470 l 477 470 l 477 613 l 429 613 m 334 358 l 382 358 l 382 391 l 429 391 l 429 323 l 287 323 l 287 438 l 239 438 l 239 276 l 477 276 l 477 438 l 334 438 m 239 28 l 477 28 l 477 190 l 239 190 m 287 75 l 287 143 l 429 143 l 429 75 m 239 -52 l 340 -52 l 239 -119 l 239 -167 l 477 -167 l 477 -119 l 331 -119 l 431 -52 l 477 -52 l 477 -4 l 239 -4 "},"":{"ha":716,"x_min":0,"x_max":0,"o":"m 587 -265 l 587 1167 l 133 1167 l 133 -265 m 240 1071 l 477 1071 l 477 1024 l 382 1024 l 382 971 l 477 971 l 477 924 l 239 924 l 239 971 l 334 971 l 334 1024 l 240 1024 m 239 886 l 382 886 l 382 786 l 477 786 l 477 738 l 239 738 m 334 786 l 334 838 l 287 838 l 287 786 m 239 699 l 477 699 l 477 652 l 382 652 l 382 551 l 239 551 l 239 599 l 334 599 l 334 652 l 239 652 m 429 613 l 477 613 l 477 470 l 239 470 l 239 518 l 429 518 m 334 438 l 477 438 l 477 276 l 239 276 l 239 438 l 287 438 l 287 323 l 429 323 l 429 391 l 382 391 l 382 358 l 334 358 m 239 190 l 477 190 l 477 28 l 239 28 m 429 75 l 429 143 l 287 143 l 287 75 m 239 -4 l 477 -4 l 477 -52 l 431 -52 l 331 -119 l 477 -119 l 477 -167 l 239 -167 l 239 -119 l 340 -52 l 239 -52 "},"":{"ha":716,"x_min":0,"x_max":0,"o":"m 133 -265 l 133 1167 l 587 1167 l 587 -265 m 240 1024 l 334 1024 l 334 971 l 239 971 l 239 924 l 477 924 l 477 971 l 382 971 l 382 1024 l 477 1024 l 477 1071 l 240 1071 m 239 738 l 477 738 l 477 786 l 382 786 l 382 886 l 239 886 m 287 786 l 287 838 l 334 838 l 334 786 m 239 652 l 334 652 l 334 599 l 239 599 l 239 551 l 382 551 l 382 652 l 477 652 l 477 699 l 239 699 m 429 518 l 239 518 l 239 470 l 477 470 l 477 613 l 429 613 m 334 358 l 382 358 l 382 391 l 429 391 l 429 323 l 287 323 l 287 438 l 239 438 l 239 276 l 477 276 l 477 438 l 334 438 m 239 28 l 477 28 l 477 190 l 239 190 m 287 75 l 287 143 l 429 143 l 429 75 m 239 -52 l 340 -52 l 239 -119 l 239 -167 l 477 -167 l 477 -119 l 331 -119 l 431 -52 l 477 -52 l 477 -4 l 239 -4 "},"":{"ha":716,"x_min":0,"x_max":0,"o":"m 587 -265 l 587 1167 l 133 1167 l 133 -265 m 240 1071 l 477 1071 l 477 1024 l 382 1024 l 382 971 l 477 971 l 477 924 l 239 924 l 239 971 l 334 971 l 334 1024 l 240 1024 m 239 886 l 382 886 l 382 786 l 477 786 l 477 738 l 239 738 m 334 786 l 334 838 l 287 838 l 287 786 m 239 699 l 477 699 l 477 652 l 382 652 l 382 551 l 239 551 l 239 599 l 334 599 l 334 652 l 239 652 m 429 613 l 477 613 l 477 470 l 239 470 l 239 518 l 429 518 m 334 438 l 477 438 l 477 276 l 239 276 l 239 438 l 287 438 l 287 323 l 429 323 l 429 391 l 382 391 l 382 358 l 334 358 m 239 190 l 477 190 l 477 28 l 239 28 m 429 75 l 429 143 l 287 143 l 287 75 m 239 -4 l 477 -4 l 477 -52 l 431 -52 l 331 -119 l 477 -119 l 477 -167 l 239 -167 l 239 -119 l 340 -52 l 239 -52 "},"":{"ha":716,"x_min":0,"x_max":0,"o":"m 133 -265 l 133 1167 l 587 1167 l 587 -265 m 240 1024 l 334 1024 l 334 971 l 239 971 l 239 924 l 477 924 l 477 971 l 382 971 l 382 1024 l 477 1024 l 477 1071 l 240 1071 m 239 738 l 477 738 l 477 786 l 382 786 l 382 886 l 239 886 m 287 786 l 287 838 l 334 838 l 334 786 m 239 652 l 334 652 l 334 599 l 239 599 l 239 551 l 382 551 l 382 652 l 477 652 l 477 699 l 239 699 m 429 518 l 239 518 l 239 470 l 477 470 l 477 613 l 429 613 m 334 358 l 382 358 l 382 391 l 429 391 l 429 323 l 287 323 l 287 438 l 239 438 l 239 276 l 477 276 l 477 438 l 334 438 m 239 28 l 477 28 l 477 190 l 239 190 m 287 75 l 287 143 l 429 143 l 429 75 m 239 -52 l 340 -52 l 239 -119 l 239 -167 l 477 -167 l 477 -119 l 331 -119 l 431 -52 l 477 -52 l 477 -4 l 239 -4 "},"":{"ha":716,"x_min":0,"x_max":0,"o":"m 587 -265 l 587 1167 l 133 1167 l 133 -265 m 240 1071 l 477 1071 l 477 1024 l 382 1024 l 382 971 l 477 971 l 477 924 l 239 924 l 239 971 l 334 971 l 334 1024 l 240 1024 m 239 886 l 382 886 l 382 786 l 477 786 l 477 738 l 239 738 m 334 786 l 334 838 l 287 838 l 287 786 m 239 699 l 477 699 l 477 652 l 382 652 l 382 551 l 239 551 l 239 599 l 334 599 l 334 652 l 239 652 m 429 613 l 477 613 l 477 470 l 239 470 l 239 518 l 429 518 m 334 438 l 477 438 l 477 276 l 239 276 l 239 438 l 287 438 l 287 323 l 429 323 l 429 391 l 382 391 l 382 358 l 334 358 m 239 190 l 477 190 l 477 28 l 239 28 m 429 75 l 429 143 l 287 143 l 287 75 m 239 -4 l 477 -4 l 477 -52 l 431 -52 l 331 -119 l 477 -119 l 477 -167 l 239 -167 l 239 -119 l 340 -52 l 239 -52 "},"":{"ha":716,"x_min":0,"x_max":0,"o":"m 133 -265 l 133 1167 l 587 1167 l 587 -265 m 240 1024 l 334 1024 l 334 971 l 239 971 l 239 924 l 477 924 l 477 971 l 382 971 l 382 1024 l 477 1024 l 477 1071 l 240 1071 m 239 738 l 477 738 l 477 786 l 382 786 l 382 886 l 239 886 m 287 786 l 287 838 l 334 838 l 334 786 m 239 652 l 334 652 l 334 599 l 239 599 l 239 551 l 382 551 l 382 652 l 477 652 l 477 699 l 239 699 m 429 518 l 239 518 l 239 470 l 477 470 l 477 613 l 429 613 m 334 358 l 382 358 l 382 391 l 429 391 l 429 323 l 287 323 l 287 438 l 239 438 l 239 276 l 477 276 l 477 438 l 334 438 m 239 28 l 477 28 l 477 190 l 239 190 m 287 75 l 287 143 l 429 143 l 429 75 m 239 -52 l 340 -52 l 239 -119 l 239 -167 l 477 -167 l 477 -119 l 331 -119 l 431 -52 l 477 -52 l 477 -4 l 239 -4 "},"":{"ha":716,"x_min":0,"x_max":0,"o":"m 587 -265 l 587 1167 l 133 1167 l 133 -265 m 240 1071 l 477 1071 l 477 1024 l 382 1024 l 382 971 l 477 971 l 477 924 l 239 924 l 239 971 l 334 971 l 334 1024 l 240 1024 m 239 886 l 382 886 l 382 786 l 477 786 l 477 738 l 239 738 m 334 786 l 334 838 l 287 838 l 287 786 m 239 699 l 477 699 l 477 652 l 382 652 l 382 551 l 239 551 l 239 599 l 334 599 l 334 652 l 239 652 m 429 613 l 477 613 l 477 470 l 239 470 l 239 518 l 429 518 m 334 438 l 477 438 l 477 276 l 239 276 l 239 438 l 287 438 l 287 323 l 429 323 l 429 391 l 382 391 l 382 358 l 334 358 m 239 190 l 477 190 l 477 28 l 239 28 m 429 75 l 429 143 l 287 143 l 287 75 m 239 -4 l 477 -4 l 477 -52 l 431 -52 l 331 -119 l 477 -119 l 477 -167 l 239 -167 l 239 -119 l 340 -52 l 239 -52 "},"":{"ha":716,"x_min":0,"x_max":0,"o":"m 133 -265 l 133 1167 l 587 1167 l 587 -265 m 240 1024 l 334 1024 l 334 971 l 239 971 l 239 924 l 477 924 l 477 971 l 382 971 l 382 1024 l 477 1024 l 477 1071 l 240 1071 m 239 738 l 477 738 l 477 786 l 382 786 l 382 886 l 239 886 m 287 786 l 287 838 l 334 838 l 334 786 m 239 652 l 334 652 l 334 599 l 239 599 l 239 551 l 382 551 l 382 652 l 477 652 l 477 699 l 239 699 m 429 518 l 239 518 l 239 470 l 477 470 l 477 613 l 429 613 m 334 358 l 382 358 l 382 391 l 429 391 l 429 323 l 287 323 l 287 438 l 239 438 l 239 276 l 477 276 l 477 438 l 334 438 m 239 28 l 477 28 l 477 190 l 239 190 m 287 75 l 287 143 l 429 143 l 429 75 m 239 -52 l 340 -52 l 239 -119 l 239 -167 l 477 -167 l 477 -119 l 331 -119 l 431 -52 l 477 -52 l 477 -4 l 239 -4 "},"":{"ha":716,"x_min":0,"x_max":0,"o":"m 587 -265 l 587 1167 l 133 1167 l 133 -265 m 240 1071 l 477 1071 l 477 1024 l 382 1024 l 382 971 l 477 971 l 477 924 l 239 924 l 239 971 l 334 971 l 334 1024 l 240 1024 m 239 886 l 382 886 l 382 786 l 477 786 l 477 738 l 239 738 m 334 786 l 334 838 l 287 838 l 287 786 m 239 699 l 477 699 l 477 652 l 382 652 l 382 551 l 239 551 l 239 599 l 334 599 l 334 652 l 239 652 m 429 613 l 477 613 l 477 470 l 239 470 l 239 518 l 429 518 m 334 438 l 477 438 l 477 276 l 239 276 l 239 438 l 287 438 l 287 323 l 429 323 l 429 391 l 382 391 l 382 358 l 334 358 m 239 190 l 477 190 l 477 28 l 239 28 m 429 75 l 429 143 l 287 143 l 287 75 m 239 -4 l 477 -4 l 477 -52 l 431 -52 l 331 -119 l 477 -119 l 477 -167 l 239 -167 l 239 -119 l 340 -52 l 239 -52 "},"":{"ha":716,"x_min":0,"x_max":0,"o":"m 133 -265 l 133 1167 l 587 1167 l 587 -265 m 240 1024 l 334 1024 l 334 971 l 239 971 l 239 924 l 477 924 l 477 971 l 382 971 l 382 1024 l 477 1024 l 477 1071 l 240 1071 m 239 738 l 477 738 l 477 786 l 382 786 l 382 886 l 239 886 m 287 786 l 287 838 l 334 838 l 334 786 m 239 652 l 334 652 l 334 599 l 239 599 l 239 551 l 382 551 l 382 652 l 477 652 l 477 699 l 239 699 m 429 518 l 239 518 l 239 470 l 477 470 l 477 613 l 429 613 m 334 358 l 382 358 l 382 391 l 429 391 l 429 323 l 287 323 l 287 438 l 239 438 l 239 276 l 477 276 l 477 438 l 334 438 m 239 28 l 477 28 l 477 190 l 239 190 m 287 75 l 287 143 l 429 143 l 429 75 m 239 -52 l 340 -52 l 239 -119 l 239 -167 l 477 -167 l 477 -119 l 331 -119 l 431 -52 l 477 -52 l 477 -4 l 239 -4 "},"":{"ha":716,"x_min":0,"x_max":0,"o":"m 587 -265 l 587 1167 l 133 1167 l 133 -265 m 240 1071 l 477 1071 l 477 1024 l 382 1024 l 382 971 l 477 971 l 477 924 l 239 924 l 239 971 l 334 971 l 334 1024 l 240 1024 m 239 886 l 382 886 l 382 786 l 477 786 l 477 738 l 239 738 m 334 786 l 334 838 l 287 838 l 287 786 m 239 699 l 477 699 l 477 652 l 382 652 l 382 551 l 239 551 l 239 599 l 334 599 l 334 652 l 239 652 m 429 613 l 477 613 l 477 470 l 239 470 l 239 518 l 429 518 m 334 438 l 477 438 l 477 276 l 239 276 l 239 438 l 287 438 l 287 323 l 429 323 l 429 391 l 382 391 l 382 358 l 334 358 m 239 190 l 477 190 l 477 28 l 239 28 m 429 75 l 429 143 l 287 143 l 287 75 m 239 -4 l 477 -4 l 477 -52 l 431 -52 l 331 -119 l 477 -119 l 477 -167 l 239 -167 l 239 -119 l 340 -52 l 239 -52 "},"":{"ha":716,"x_min":0,"x_max":0,"o":"m 133 -265 l 133 1167 l 587 1167 l 587 -265 m 240 1024 l 334 1024 l 334 971 l 239 971 l 239 924 l 477 924 l 477 971 l 382 971 l 382 1024 l 477 1024 l 477 1071 l 240 1071 m 239 738 l 477 738 l 477 786 l 382 786 l 382 886 l 239 886 m 287 786 l 287 838 l 334 838 l 334 786 m 239 652 l 334 652 l 334 599 l 239 599 l 239 551 l 382 551 l 382 652 l 477 652 l 477 699 l 239 699 m 429 518 l 239 518 l 239 470 l 477 470 l 477 613 l 429 613 m 334 358 l 382 358 l 382 391 l 429 391 l 429 323 l 287 323 l 287 438 l 239 438 l 239 276 l 477 276 l 477 438 l 334 438 m 239 28 l 477 28 l 477 190 l 239 190 m 287 75 l 287 143 l 429 143 l 429 75 m 239 -52 l 340 -52 l 239 -119 l 239 -167 l 477 -167 l 477 -119 l 331 -119 l 431 -52 l 477 -52 l 477 -4 l 239 -4 "},"":{"ha":716,"x_min":0,"x_max":0,"o":"m 587 -265 l 587 1167 l 133 1167 l 133 -265 m 240 1071 l 477 1071 l 477 1024 l 382 1024 l 382 971 l 477 971 l 477 924 l 239 924 l 239 971 l 334 971 l 334 1024 l 240 1024 m 239 886 l 382 886 l 382 786 l 477 786 l 477 738 l 239 738 m 334 786 l 334 838 l 287 838 l 287 786 m 239 699 l 477 699 l 477 652 l 382 652 l 382 551 l 239 551 l 239 599 l 334 599 l 334 652 l 239 652 m 429 613 l 477 613 l 477 470 l 239 470 l 239 518 l 429 518 m 334 438 l 477 438 l 477 276 l 239 276 l 239 438 l 287 438 l 287 323 l 429 323 l 429 391 l 382 391 l 382 358 l 334 358 m 239 190 l 477 190 l 477 28 l 239 28 m 429 75 l 429 143 l 287 143 l 287 75 m 239 -4 l 477 -4 l 477 -52 l 431 -52 l 331 -119 l 477 -119 l 477 -167 l 239 -167 l 239 -119 l 340 -52 l 239 -52 "},"":{"ha":716,"x_min":0,"x_max":0,"o":"m 133 -265 l 133 1167 l 587 1167 l 587 -265 m 240 1024 l 334 1024 l 334 971 l 239 971 l 239 924 l 477 924 l 477 971 l 382 971 l 382 1024 l 477 1024 l 477 1071 l 240 1071 m 239 738 l 477 738 l 477 786 l 382 786 l 382 886 l 239 886 m 287 786 l 287 838 l 334 838 l 334 786 m 239 652 l 334 652 l 334 599 l 239 599 l 239 551 l 382 551 l 382 652 l 477 652 l 477 699 l 239 699 m 429 518 l 239 518 l 239 470 l 477 470 l 477 613 l 429 613 m 334 358 l 382 358 l 382 391 l 429 391 l 429 323 l 287 323 l 287 438 l 239 438 l 239 276 l 477 276 l 477 438 l 334 438 m 239 28 l 477 28 l 477 190 l 239 190 m 287 75 l 287 143 l 429 143 l 429 75 m 239 -52 l 340 -52 l 239 -119 l 239 -167 l 477 -167 l 477 -119 l 331 -119 l 431 -52 l 477 -52 l 477 -4 l 239 -4 "},"":{"ha":716,"x_min":0,"x_max":0,"o":"m 587 -265 l 587 1167 l 133 1167 l 133 -265 m 240 1071 l 477 1071 l 477 1024 l 382 1024 l 382 971 l 477 971 l 477 924 l 239 924 l 239 971 l 334 971 l 334 1024 l 240 1024 m 239 886 l 382 886 l 382 786 l 477 786 l 477 738 l 239 738 m 334 786 l 334 838 l 287 838 l 287 786 m 239 699 l 477 699 l 477 652 l 382 652 l 382 551 l 239 551 l 239 599 l 334 599 l 334 652 l 239 652 m 429 613 l 477 613 l 477 470 l 239 470 l 239 518 l 429 518 m 334 438 l 477 438 l 477 276 l 239 276 l 239 438 l 287 438 l 287 323 l 429 323 l 429 391 l 382 391 l 382 358 l 334 358 m 239 190 l 477 190 l 477 28 l 239 28 m 429 75 l 429 143 l 287 143 l 287 75 m 239 -4 l 477 -4 l 477 -52 l 431 -52 l 331 -119 l 477 -119 l 477 -167 l 239 -167 l 239 -119 l 340 -52 l 239 -52 "},"":{"ha":716,"x_min":0,"x_max":0,"o":"m 133 -265 l 133 1167 l 587 1167 l 587 -265 m 240 1024 l 334 1024 l 334 971 l 239 971 l 239 924 l 477 924 l 477 971 l 382 971 l 382 1024 l 477 1024 l 477 1071 l 240 1071 m 239 738 l 477 738 l 477 786 l 382 786 l 382 886 l 239 886 m 287 786 l 287 838 l 334 838 l 334 786 m 239 652 l 334 652 l 334 599 l 239 599 l 239 551 l 382 551 l 382 652 l 477 652 l 477 699 l 239 699 m 429 518 l 239 518 l 239 470 l 477 470 l 477 613 l 429 613 m 334 358 l 382 358 l 382 391 l 429 391 l 429 323 l 287 323 l 287 438 l 239 438 l 239 276 l 477 276 l 477 438 l 334 438 m 239 28 l 477 28 l 477 190 l 239 190 m 287 75 l 287 143 l 429 143 l 429 75 m 239 -52 l 340 -52 l 239 -119 l 239 -167 l 477 -167 l 477 -119 l 331 -119 l 431 -52 l 477 -52 l 477 -4 l 239 -4 "},"":{"ha":716,"x_min":0,"x_max":0,"o":"m 587 -265 l 587 1167 l 133 1167 l 133 -265 m 240 1071 l 477 1071 l 477 1024 l 382 1024 l 382 971 l 477 971 l 477 924 l 239 924 l 239 971 l 334 971 l 334 1024 l 240 1024 m 239 886 l 382 886 l 382 786 l 477 786 l 477 738 l 239 738 m 334 786 l 334 838 l 287 838 l 287 786 m 239 699 l 477 699 l 477 652 l 382 652 l 382 551 l 239 551 l 239 599 l 334 599 l 334 652 l 239 652 m 429 613 l 477 613 l 477 470 l 239 470 l 239 518 l 429 518 m 334 438 l 477 438 l 477 276 l 239 276 l 239 438 l 287 438 l 287 323 l 429 323 l 429 391 l 382 391 l 382 358 l 334 358 m 239 190 l 477 190 l 477 28 l 239 28 m 429 75 l 429 143 l 287 143 l 287 75 m 239 -4 l 477 -4 l 477 -52 l 431 -52 l 331 -119 l 477 -119 l 477 -167 l 239 -167 l 239 -119 l 340 -52 l 239 -52 "},"":{"ha":716,"x_min":0,"x_max":0,"o":"m 133 -265 l 133 1167 l 587 1167 l 587 -265 m 240 1024 l 334 1024 l 334 971 l 239 971 l 239 924 l 477 924 l 477 971 l 382 971 l 382 1024 l 477 1024 l 477 1071 l 240 1071 m 239 738 l 477 738 l 477 786 l 382 786 l 382 886 l 239 886 m 287 786 l 287 838 l 334 838 l 334 786 m 239 652 l 334 652 l 334 599 l 239 599 l 239 551 l 382 551 l 382 652 l 477 652 l 477 699 l 239 699 m 429 518 l 239 518 l 239 470 l 477 470 l 477 613 l 429 613 m 334 358 l 382 358 l 382 391 l 429 391 l 429 323 l 287 323 l 287 438 l 239 438 l 239 276 l 477 276 l 477 438 l 334 438 m 239 28 l 477 28 l 477 190 l 239 190 m 287 75 l 287 143 l 429 143 l 429 75 m 239 -52 l 340 -52 l 239 -119 l 239 -167 l 477 -167 l 477 -119 l 331 -119 l 431 -52 l 477 -52 l 477 -4 l 239 -4 "},"":{"ha":716,"x_min":0,"x_max":0,"o":"m 587 -265 l 587 1167 l 133 1167 l 133 -265 m 240 1071 l 477 1071 l 477 1024 l 382 1024 l 382 971 l 477 971 l 477 924 l 239 924 l 239 971 l 334 971 l 334 1024 l 240 1024 m 239 886 l 382 886 l 382 786 l 477 786 l 477 738 l 239 738 m 334 786 l 334 838 l 287 838 l 287 786 m 239 699 l 477 699 l 477 652 l 382 652 l 382 551 l 239 551 l 239 599 l 334 599 l 334 652 l 239 652 m 429 613 l 477 613 l 477 470 l 239 470 l 239 518 l 429 518 m 334 438 l 477 438 l 477 276 l 239 276 l 239 438 l 287 438 l 287 323 l 429 323 l 429 391 l 382 391 l 382 358 l 334 358 m 239 190 l 477 190 l 477 28 l 239 28 m 429 75 l 429 143 l 287 143 l 287 75 m 239 -4 l 477 -4 l 477 -52 l 431 -52 l 331 -119 l 477 -119 l 477 -167 l 239 -167 l 239 -119 l 340 -52 l 239 -52 "},"":{"ha":716,"x_min":0,"x_max":0,"o":"m 133 -265 l 133 1167 l 587 1167 l 587 -265 m 240 1024 l 334 1024 l 334 971 l 239 971 l 239 924 l 477 924 l 477 971 l 382 971 l 382 1024 l 477 1024 l 477 1071 l 240 1071 m 239 738 l 477 738 l 477 786 l 382 786 l 382 886 l 239 886 m 287 786 l 287 838 l 334 838 l 334 786 m 239 652 l 334 652 l 334 599 l 239 599 l 239 551 l 382 551 l 382 652 l 477 652 l 477 699 l 239 699 m 429 518 l 239 518 l 239 470 l 477 470 l 477 613 l 429 613 m 334 358 l 382 358 l 382 391 l 429 391 l 429 323 l 287 323 l 287 438 l 239 438 l 239 276 l 477 276 l 477 438 l 334 438 m 239 28 l 477 28 l 477 190 l 239 190 m 287 75 l 287 143 l 429 143 l 429 75 m 239 -52 l 340 -52 l 239 -119 l 239 -167 l 477 -167 l 477 -119 l 331 -119 l 431 -52 l 477 -52 l 477 -4 l 239 -4 "},"":{"ha":716,"x_min":0,"x_max":0,"o":"m 587 -265 l 587 1167 l 133 1167 l 133 -265 m 240 1071 l 477 1071 l 477 1024 l 382 1024 l 382 971 l 477 971 l 477 924 l 239 924 l 239 971 l 334 971 l 334 1024 l 240 1024 m 239 886 l 382 886 l 382 786 l 477 786 l 477 738 l 239 738 m 334 786 l 334 838 l 287 838 l 287 786 m 239 699 l 477 699 l 477 652 l 382 652 l 382 551 l 239 551 l 239 599 l 334 599 l 334 652 l 239 652 m 429 613 l 477 613 l 477 470 l 239 470 l 239 518 l 429 518 m 334 438 l 477 438 l 477 276 l 239 276 l 239 438 l 287 438 l 287 323 l 429 323 l 429 391 l 382 391 l 382 358 l 334 358 m 239 190 l 477 190 l 477 28 l 239 28 m 429 75 l 429 143 l 287 143 l 287 75 m 239 -4 l 477 -4 l 477 -52 l 431 -52 l 331 -119 l 477 -119 l 477 -167 l 239 -167 l 239 -119 l 340 -52 l 239 -52 "},"":{"ha":716,"x_min":0,"x_max":0,"o":"m 133 -265 l 133 1167 l 587 1167 l 587 -265 m 240 1024 l 334 1024 l 334 971 l 239 971 l 239 924 l 477 924 l 477 971 l 382 971 l 382 1024 l 477 1024 l 477 1071 l 240 1071 m 239 738 l 477 738 l 477 786 l 382 786 l 382 886 l 239 886 m 287 786 l 287 838 l 334 838 l 334 786 m 239 652 l 334 652 l 334 599 l 239 599 l 239 551 l 382 551 l 382 652 l 477 652 l 477 699 l 239 699 m 429 518 l 239 518 l 239 470 l 477 470 l 477 613 l 429 613 m 334 358 l 382 358 l 382 391 l 429 391 l 429 323 l 287 323 l 287 438 l 239 438 l 239 276 l 477 276 l 477 438 l 334 438 m 239 28 l 477 28 l 477 190 l 239 190 m 287 75 l 287 143 l 429 143 l 429 75 m 239 -52 l 340 -52 l 239 -119 l 239 -167 l 477 -167 l 477 -119 l 331 -119 l 431 -52 l 477 -52 l 477 -4 l 239 -4 "},"":{"ha":716,"x_min":0,"x_max":0,"o":"m 587 -265 l 587 1167 l 133 1167 l 133 -265 m 240 1071 l 477 1071 l 477 1024 l 382 1024 l 382 971 l 477 971 l 477 924 l 239 924 l 239 971 l 334 971 l 334 1024 l 240 1024 m 239 886 l 382 886 l 382 786 l 477 786 l 477 738 l 239 738 m 334 786 l 334 838 l 287 838 l 287 786 m 239 699 l 477 699 l 477 652 l 382 652 l 382 551 l 239 551 l 239 599 l 334 599 l 334 652 l 239 652 m 429 613 l 477 613 l 477 470 l 239 470 l 239 518 l 429 518 m 334 438 l 477 438 l 477 276 l 239 276 l 239 438 l 287 438 l 287 323 l 429 323 l 429 391 l 382 391 l 382 358 l 334 358 m 239 190 l 477 190 l 477 28 l 239 28 m 429 75 l 429 143 l 287 143 l 287 75 m 239 -4 l 477 -4 l 477 -52 l 431 -52 l 331 -119 l 477 -119 l 477 -167 l 239 -167 l 239 -119 l 340 -52 l 239 -52 "},"":{"ha":716,"x_min":0,"x_max":0,"o":"m 133 -265 l 133 1167 l 587 1167 l 587 -265 m 240 1024 l 334 1024 l 334 971 l 239 971 l 239 924 l 477 924 l 477 971 l 382 971 l 382 1024 l 477 1024 l 477 1071 l 240 1071 m 239 738 l 477 738 l 477 786 l 382 786 l 382 886 l 239 886 m 287 786 l 287 838 l 334 838 l 334 786 m 239 652 l 334 652 l 334 599 l 239 599 l 239 551 l 382 551 l 382 652 l 477 652 l 477 699 l 239 699 m 429 518 l 239 518 l 239 470 l 477 470 l 477 613 l 429 613 m 334 358 l 382 358 l 382 391 l 429 391 l 429 323 l 287 323 l 287 438 l 239 438 l 239 276 l 477 276 l 477 438 l 334 438 m 239 28 l 477 28 l 477 190 l 239 190 m 287 75 l 287 143 l 429 143 l 429 75 m 239 -52 l 340 -52 l 239 -119 l 239 -167 l 477 -167 l 477 -119 l 331 -119 l 431 -52 l 477 -52 l 477 -4 l 239 -4 "},"":{"ha":716,"x_min":0,"x_max":0,"o":"m 587 -265 l 587 1167 l 133 1167 l 133 -265 m 240 1071 l 477 1071 l 477 1024 l 382 1024 l 382 971 l 477 971 l 477 924 l 239 924 l 239 971 l 334 971 l 334 1024 l 240 1024 m 239 886 l 382 886 l 382 786 l 477 786 l 477 738 l 239 738 m 334 786 l 334 838 l 287 838 l 287 786 m 239 699 l 477 699 l 477 652 l 382 652 l 382 551 l 239 551 l 239 599 l 334 599 l 334 652 l 239 652 m 429 613 l 477 613 l 477 470 l 239 470 l 239 518 l 429 518 m 334 438 l 477 438 l 477 276 l 239 276 l 239 438 l 287 438 l 287 323 l 429 323 l 429 391 l 382 391 l 382 358 l 334 358 m 239 190 l 477 190 l 477 28 l 239 28 m 429 75 l 429 143 l 287 143 l 287 75 m 239 -4 l 477 -4 l 477 -52 l 431 -52 l 331 -119 l 477 -119 l 477 -167 l 239 -167 l 239 -119 l 340 -52 l 239 -52 "},"":{"ha":716,"x_min":0,"x_max":0,"o":"m 133 -265 l 133 1167 l 587 1167 l 587 -265 m 240 1024 l 334 1024 l 334 971 l 239 971 l 239 924 l 477 924 l 477 971 l 382 971 l 382 1024 l 477 1024 l 477 1071 l 240 1071 m 239 738 l 477 738 l 477 786 l 382 786 l 382 886 l 239 886 m 287 786 l 287 838 l 334 838 l 334 786 m 239 652 l 334 652 l 334 599 l 239 599 l 239 551 l 382 551 l 382 652 l 477 652 l 477 699 l 239 699 m 429 518 l 239 518 l 239 470 l 477 470 l 477 613 l 429 613 m 334 358 l 382 358 l 382 391 l 429 391 l 429 323 l 287 323 l 287 438 l 239 438 l 239 276 l 477 276 l 477 438 l 334 438 m 239 28 l 477 28 l 477 190 l 239 190 m 287 75 l 287 143 l 429 143 l 429 75 m 239 -52 l 340 -52 l 239 -119 l 239 -167 l 477 -167 l 477 -119 l 331 -119 l 431 -52 l 477 -52 l 477 -4 l 239 -4 "},"":{"ha":716,"x_min":0,"x_max":0,"o":"m 587 -265 l 587 1167 l 133 1167 l 133 -265 m 240 1071 l 477 1071 l 477 1024 l 382 1024 l 382 971 l 477 971 l 477 924 l 239 924 l 239 971 l 334 971 l 334 1024 l 240 1024 m 239 886 l 382 886 l 382 786 l 477 786 l 477 738 l 239 738 m 334 786 l 334 838 l 287 838 l 287 786 m 239 699 l 477 699 l 477 652 l 382 652 l 382 551 l 239 551 l 239 599 l 334 599 l 334 652 l 239 652 m 429 613 l 477 613 l 477 470 l 239 470 l 239 518 l 429 518 m 334 438 l 477 438 l 477 276 l 239 276 l 239 438 l 287 438 l 287 323 l 429 323 l 429 391 l 382 391 l 382 358 l 334 358 m 239 190 l 477 190 l 477 28 l 239 28 m 429 75 l 429 143 l 287 143 l 287 75 m 239 -4 l 477 -4 l 477 -52 l 431 -52 l 331 -119 l 477 -119 l 477 -167 l 239 -167 l 239 -119 l 340 -52 l 239 -52 "}," ":{"ha":358,"x_min":0,"x_max":0,"o":""},"!":{"ha":488,"x_min":0,"x_max":0,"o":"m 129 372 b 98 402 108 372 98 382 l 98 1136 b 106 1159 98 1146 101 1153 b 129 1167 112 1164 119 1167 l 358 1167 b 381 1159 368 1167 375 1164 b 389 1136 386 1153 389 1146 l 389 402 b 358 372 389 382 379 372 m 391 31 b 359 0 391 10 380 0 l 128 0 b 98 31 108 0 98 10 l 98 253 b 128 284 98 274 108 284 l 359 284 b 391 253 380 284 391 274 "},"\"":{"ha":573,"x_min":0,"x_max":0,"o":"m 242 688 b 219 680 236 682 229 680 l 70 680 b 39 711 49 680 39 690 l 39 1018 b 70 1049 39 1039 49 1049 l 219 1049 b 242 1041 229 1049 236 1046 b 250 1018 247 1035 250 1028 l 250 711 b 242 688 250 701 247 693 m 526 688 b 503 680 521 682 513 680 l 354 680 b 331 688 344 680 336 682 b 323 711 325 693 323 701 l 323 1018 b 331 1041 323 1028 325 1035 b 354 1049 336 1046 344 1049 l 503 1049 b 526 1041 513 1049 521 1046 b 535 1018 532 1035 535 1028 l 535 711 b 526 688 535 701 532 693 "},"#":{"ha":936,"x_min":0,"x_max":0,"o":"m 104 27 b 80 36 93 27 85 30 b 75 60 75 42 73 50 l 102 226 l 37 226 b 7 258 16 226 6 237 l 10 399 b 19 421 10 408 13 416 b 42 429 25 427 32 429 l 133 429 l 161 597 l 91 597 b 60 628 70 597 60 607 l 63 768 b 72 791 64 778 67 785 b 95 799 78 796 85 799 l 193 799 l 228 1018 b 262 1045 231 1036 243 1045 l 448 1045 b 472 1037 459 1045 467 1043 b 477 1012 477 1031 479 1023 l 443 799 l 584 799 l 620 1018 b 653 1045 623 1036 634 1045 l 839 1045 b 864 1037 850 1045 858 1043 b 868 1012 869 1031 870 1023 l 833 799 l 898 799 b 929 768 919 799 929 789 l 927 628 b 919 605 927 619 925 611 b 895 597 913 599 905 597 l 800 597 l 774 429 l 845 429 b 875 399 865 429 875 419 l 873 258 b 842 226 873 237 863 226 l 741 226 l 714 55 b 680 27 711 36 700 27 l 494 27 b 471 36 484 27 476 30 b 465 60 466 42 464 50 l 493 226 l 351 226 l 324 55 b 290 27 321 36 309 27 m 552 597 l 410 597 l 383 429 l 526 429 "},"$":{"ha":904,"x_min":0,"x_max":0,"o":"m 783 116 b 594 -4 739 58 675 18 l 594 -145 b 562 -175 594 -165 583 -175 l 351 -175 b 320 -145 330 -175 320 -165 l 320 -5 b 37 167 211 21 116 78 b 28 187 31 174 28 181 b 39 211 28 196 31 204 l 195 359 b 217 370 203 366 210 370 b 239 358 224 370 231 366 b 336 289 269 327 301 304 b 445 266 371 274 407 266 b 538 317 507 266 538 283 b 530 348 538 329 535 339 b 489 379 525 356 511 367 b 385 418 467 391 432 404 b 176 532 305 442 235 480 b 87 754 116 583 87 658 b 142 944 87 825 105 888 b 320 1057 179 1000 238 1037 l 320 1223 b 351 1254 320 1244 330 1254 l 562 1254 b 594 1223 583 1254 594 1244 l 594 1052 b 822 927 677 1029 753 987 b 834 904 830 920 834 913 b 824 883 834 897 831 890 l 682 722 b 659 709 674 714 667 709 b 638 718 652 709 645 712 b 553 770 612 739 583 756 b 458 791 522 784 490 791 b 410 778 436 791 419 787 b 396 743 400 770 396 758 b 408 721 396 735 400 727 b 443 701 416 714 427 708 b 519 672 459 695 484 685 l 538 665 b 712 581 609 639 666 611 b 815 473 757 550 791 514 b 851 323 839 431 851 381 b 783 116 851 243 828 173 "},"%":{"ha":1785,"x_min":0,"x_max":0,"o":""},"&":{"ha":1182,"x_min":0,"x_max":0,"o":"m 250 22 b 100 140 185 52 135 91 b 47 299 65 190 47 243 b 78 440 47 350 57 397 b 177 546 99 483 132 518 b 112 633 148 571 126 600 b 92 748 99 665 92 704 b 132 918 92 812 105 869 b 249 1031 159 966 198 1004 b 433 1072 301 1058 362 1072 b 607 1035 499 1072 557 1059 b 724 933 656 1011 695 977 b 773 781 752 890 768 839 b 766 757 773 771 771 763 b 742 749 761 752 753 749 l 530 749 b 509 756 521 749 514 751 b 496 777 504 760 500 767 b 467 798 489 786 480 793 b 426 806 454 804 441 806 b 382 791 405 806 390 801 b 369 748 373 781 369 767 b 375 713 369 735 371 723 b 401 685 379 704 388 694 b 457 658 413 677 432 667 b 482 628 473 652 482 642 b 481 619 482 624 481 621 l 453 463 b 442 443 451 454 448 447 b 419 434 437 438 429 435 b 355 401 391 429 370 419 b 332 338 340 384 332 363 b 366 269 332 311 343 288 b 467 241 388 251 422 241 b 572 285 511 241 545 256 b 614 405 598 314 612 354 l 579 411 l 556 414 b 540 425 549 416 544 419 b 535 444 537 430 535 436 b 536 457 535 447 535 451 l 572 624 b 599 647 575 640 584 647 b 613 646 601 647 606 647 b 710 626 639 640 672 634 b 806 608 748 619 780 613 b 850 603 822 605 836 603 b 919 641 887 604 910 617 b 948 666 925 658 935 666 b 957 665 950 666 953 666 l 1152 618 b 1178 591 1169 614 1178 605 b 1177 582 1178 587 1177 584 b 1086 422 1163 515 1133 462 b 911 361 1039 381 981 361 b 894 360 906 361 900 361 b 882 358 888 359 884 358 b 825 156 878 280 859 213 b 684 24 791 99 744 55 b 474 -22 624 -7 554 -22 b 250 22 390 -22 315 -8 "},"'":{"ha":289,"x_min":0,"x_max":0,"o":"m 242 688 b 219 680 236 682 229 680 l 70 680 b 39 711 49 680 39 690 l 39 1018 b 70 1049 39 1039 49 1049 l 219 1049 b 242 1041 229 1049 236 1046 b 250 1018 247 1035 250 1028 l 250 711 b 242 688 250 701 247 693 "},"(":{"ha":520,"x_min":0,"x_max":0,"o":"m 502 -211 b 484 -235 502 -221 496 -229 l 322 -322 b 304 -326 315 -325 309 -326 b 279 -312 294 -326 286 -322 b 99 49 194 -197 134 -77 b 47 467 64 174 47 313 b 99 883 47 619 64 758 b 276 1244 133 1009 192 1129 b 302 1259 284 1254 292 1259 b 319 1254 307 1259 313 1257 l 484 1167 b 502 1142 496 1161 502 1153 b 497 1125 502 1137 500 1131 b 387 825 450 1036 413 937 b 347 467 360 714 347 595 b 386 107 347 339 360 218 b 497 -193 413 -5 449 -105 b 502 -211 500 -199 502 -205 "},")":{"ha":520,"x_min":0,"x_max":0,"o":"m 216 -326 b 198 -322 210 -326 204 -325 l 35 -235 b 17 -211 23 -229 17 -221 b 22 -192 17 -205 19 -198 b 133 107 70 -104 107 -5 b 172 467 159 218 172 339 b 133 825 172 595 159 714 b 22 1125 107 937 70 1036 b 17 1142 19 1131 17 1137 b 35 1167 17 1153 23 1161 l 200 1254 b 217 1259 206 1257 212 1259 b 243 1244 227 1259 236 1254 b 421 883 328 1129 387 1009 b 473 467 455 758 473 619 b 421 49 473 313 455 174 b 240 -312 386 -77 326 -197 b 216 -326 234 -322 226 -326 "},"*":{"ha":594,"x_min":0,"x_max":0,"o":"m 549 912 b 557 889 554 907 557 899 l 557 787 b 548 764 557 777 554 769 b 525 758 543 759 535 757 l 420 765 l 480 682 b 488 663 485 675 488 669 b 471 639 488 654 482 646 l 385 588 b 367 582 378 584 372 582 b 342 601 356 582 348 589 l 298 695 l 253 601 b 228 582 247 589 239 582 b 211 588 224 582 218 584 l 125 639 b 108 663 114 646 108 654 b 116 682 108 668 111 674 l 175 765 l 69 756 b 46 764 59 756 52 758 b 37 787 40 769 37 777 l 37 890 b 46 914 37 901 40 908 b 69 920 52 919 59 921 l 175 911 l 115 994 b 108 1013 111 1001 108 1007 b 124 1037 108 1023 114 1031 l 211 1089 b 229 1095 218 1093 224 1095 b 253 1076 239 1095 247 1088 l 297 983 l 342 1075 b 367 1094 348 1088 357 1094 b 384 1088 372 1094 377 1092 l 470 1038 b 488 1014 482 1031 488 1023 b 481 995 488 1009 485 1002 l 421 911 l 525 919 b 549 912 535 920 543 917 "},"+":{"ha":813,"x_min":0,"x_max":0,"o":"m 501 161 b 478 153 496 156 488 153 l 330 153 b 299 184 310 153 299 164 l 299 417 l 78 417 b 47 449 57 417 47 428 l 47 589 b 78 621 47 610 57 621 l 299 621 l 299 855 b 330 886 299 875 310 886 l 478 886 b 509 855 499 886 509 875 l 509 621 l 736 621 b 766 589 756 621 766 610 l 766 449 b 736 417 766 428 756 417 l 509 417 l 509 184 b 501 161 509 174 507 167 "},",":{"ha":407,"x_min":0,"x_max":0,"o":"m 166 -260 b 143 -249 158 -260 150 -256 l 95 -205 b 84 -183 87 -198 84 -191 b 95 -160 84 -176 87 -168 b 170 -72 130 -125 155 -96 b 192 -7 184 -49 192 -27 l 192 0 l 77 0 b 46 31 56 0 46 10 l 46 253 b 77 284 46 274 56 284 l 329 284 b 352 276 339 284 346 282 b 360 253 357 271 360 263 l 360 58 b 311 -109 360 -1 344 -57 b 187 -251 278 -161 237 -208 b 166 -260 180 -257 173 -260 "},"-":{"ha":720,"x_min":0,"x_max":0,"o":"m 665 345 b 641 337 659 340 651 337 l 78 337 b 47 368 57 337 47 347 l 47 544 b 78 575 47 565 57 575 l 641 575 b 665 567 651 575 659 572 b 673 544 670 561 673 554 l 673 368 b 665 345 673 358 670 350 "},".":{"ha":389,"x_min":0,"x_max":0,"o":"m 69 0 b 37 31 48 0 37 10 l 37 253 b 69 284 37 274 48 284 l 320 284 b 352 253 341 284 352 274 l 352 31 b 320 0 352 10 341 0 "},"/":{"ha":871,"x_min":0,"x_max":0,"o":"m 298 -321 b 276 -327 292 -325 284 -327 l 40 -327 b 20 -321 31 -327 25 -325 b 13 -305 15 -318 13 -312 b 16 -290 13 -300 14 -295 l 564 1025 b 578 1044 567 1034 572 1040 b 600 1049 583 1047 591 1049 l 832 1049 b 852 1043 841 1049 848 1047 b 859 1027 857 1039 859 1034 b 856 1013 859 1022 858 1017 l 311 -303 b 298 -321 308 -312 303 -318 "},":":{"ha":411,"x_min":0,"x_max":0,"o":"m 78 675 b 47 706 57 675 47 685 l 47 928 b 78 960 47 949 57 960 l 330 960 b 361 928 351 960 361 949 l 361 706 b 330 675 361 685 351 675 m 78 -2 b 47 29 57 -2 47 8 l 47 251 b 78 282 47 272 57 282 l 330 282 b 361 251 351 282 361 272 l 361 29 b 330 -2 361 8 351 -2 "},";":{"ha":392,"x_min":0,"x_max":0,"o":"m 72 675 b 49 683 62 675 54 678 b 40 706 43 689 40 696 l 40 928 b 49 951 40 938 43 946 b 72 960 54 957 62 960 l 324 960 b 355 928 344 960 355 949 l 355 706 b 324 675 355 685 344 675 m 158 -260 b 135 -249 151 -260 143 -256 l 87 -205 b 76 -183 80 -198 76 -191 b 87 -160 76 -176 80 -168 b 161 -72 122 -125 146 -96 b 184 -7 176 -49 184 -27 l 184 0 l 69 0 b 46 8 59 0 51 3 b 37 31 40 14 37 21 l 37 253 b 46 276 37 263 40 271 b 69 284 51 282 59 284 l 321 284 b 352 253 341 284 352 274 l 352 58 b 303 -108 352 -1 335 -57 b 180 -251 270 -160 229 -208 b 158 -260 172 -257 165 -260 "},"<":{"ha":809,"x_min":0,"x_max":0,"o":"m 756 346 b 762 324 760 340 762 333 l 762 128 b 757 109 762 120 761 113 b 741 102 753 104 748 102 b 725 105 735 102 730 103 l 70 410 b 47 447 55 416 47 429 l 47 565 b 70 602 47 583 55 595 l 725 904 b 741 908 730 907 735 908 b 757 901 748 908 753 906 b 762 881 761 896 762 890 l 762 687 b 738 651 762 671 754 659 l 376 505 l 738 361 b 756 346 746 357 752 352 "},"=":{"ha":812,"x_min":0,"x_max":0,"o":"m 757 582 b 734 573 752 576 744 573 l 78 573 b 47 605 57 573 47 584 l 47 767 b 78 798 47 788 57 798 l 734 798 b 757 790 744 798 752 795 b 765 767 763 785 765 777 l 765 605 b 757 582 765 595 763 587 m 78 220 b 47 252 57 220 47 231 l 47 413 b 78 444 47 434 57 444 l 734 444 b 765 413 755 444 765 434 l 765 252 b 734 220 765 231 755 220 "},">":{"ha":809,"x_min":0,"x_max":0,"o":"m 84 105 b 69 102 79 103 74 102 b 53 109 62 102 56 104 b 47 128 49 113 47 120 l 47 324 b 53 346 47 334 49 341 b 71 361 56 352 62 357 l 433 505 l 71 651 b 47 687 55 659 47 671 l 47 881 b 53 901 47 890 49 896 b 69 908 56 906 62 908 b 84 904 74 908 79 907 l 739 602 b 762 565 754 595 762 583 l 762 447 b 739 410 762 429 754 417 "},"?":{"ha":814,"x_min":0,"x_max":0,"o":"m 534 361 b 511 356 529 358 521 356 l 283 356 b 260 366 274 356 266 359 b 252 391 255 372 252 380 l 252 428 b 288 573 252 484 264 533 b 388 692 313 614 346 653 l 417 718 b 470 769 440 739 457 756 b 503 811 483 782 494 796 b 515 857 511 826 515 841 b 491 916 515 882 507 902 b 424 938 474 931 452 938 b 366 915 401 938 381 930 b 337 852 350 899 340 878 b 325 828 335 842 331 834 b 304 819 319 822 312 819 l 85 819 b 61 828 75 819 67 822 b 54 855 56 834 53 843 b 156 1102 60 962 94 1044 b 434 1188 219 1159 311 1188 b 616 1147 500 1188 561 1174 b 748 1029 671 1119 715 1080 b 797 851 780 978 797 918 b 781 742 797 808 792 772 b 741 666 771 712 757 686 b 681 606 725 646 705 625 b 607 540 650 580 625 558 b 562 476 590 522 575 501 b 543 391 549 451 543 422 l 543 375 b 534 361 543 369 540 365 m 544 31 b 513 0 544 10 534 0 l 282 0 b 252 31 262 0 252 10 l 252 253 b 282 284 252 274 262 284 l 513 284 b 544 253 534 284 544 274 "},"@":{"ha":1355,"x_min":0,"x_max":0,"o":"m 981 959 b 1218 753 1078 911 1157 842 b 1308 449 1278 664 1308 563 b 1269 260 1308 377 1295 314 b 1162 135 1243 206 1207 164 b 1008 91 1116 106 1065 91 b 795 217 914 91 843 133 b 722 162 775 193 750 174 b 626 143 694 149 662 143 b 503 177 582 143 542 154 b 411 274 465 200 434 233 b 376 417 388 316 376 363 b 410 559 376 469 387 517 b 498 656 432 600 461 633 b 618 691 536 680 575 691 b 711 674 652 691 683 686 b 785 624 739 662 764 645 l 808 658 b 845 681 815 673 827 681 l 936 681 b 967 650 957 681 967 671 l 967 366 b 988 305 967 338 974 317 b 1038 287 1001 293 1018 287 b 1086 324 1061 287 1077 300 b 1098 432 1094 349 1098 385 b 1044 640 1098 509 1080 578 b 895 784 1008 701 959 749 b 682 836 832 819 761 836 b 468 783 604 836 532 819 b 315 635 403 748 352 698 b 258 417 277 571 258 499 b 313 205 258 340 276 269 b 463 50 349 140 399 88 b 683 -7 528 12 601 -7 b 779 3 716 -7 748 -3 b 888 40 810 10 846 22 b 904 43 894 42 900 43 b 930 24 915 43 924 37 l 983 -90 b 988 -107 986 -96 988 -102 b 968 -132 988 -118 981 -126 b 825 -183 917 -156 870 -172 b 680 -199 781 -193 733 -199 b 354 -118 559 -199 451 -172 b 128 103 258 -64 183 10 b 47 411 74 196 47 298 b 133 730 47 529 76 636 b 363 952 190 825 267 899 b 677 1032 460 1005 564 1032 b 981 959 783 1032 884 1008 m 731 358 b 753 414 746 373 753 392 b 731 470 753 437 746 455 b 674 491 716 484 697 491 b 618 470 652 491 633 484 b 596 414 603 455 596 437 b 618 358 596 392 603 373 b 674 337 633 344 652 337 b 731 358 697 337 716 344 "},"A":{"ha":1078,"x_min":0,"x_max":0,"o":"m 1060 22 b 1053 6 1060 15 1058 10 b 1033 0 1049 2 1042 0 l 780 0 b 745 26 762 0 751 9 l 709 142 l 368 142 l 332 26 b 296 0 326 9 314 0 l 45 0 b 24 6 36 0 29 2 b 17 23 20 11 17 16 b 19 36 17 27 18 31 l 397 1026 b 432 1051 402 1042 414 1051 l 647 1051 b 683 1026 665 1051 677 1042 l 1057 36 b 1060 22 1059 31 1060 27 m 553 627 l 538 682 l 525 627 l 454 397 l 624 397 "},"B":{"ha":976,"x_min":0,"x_max":0,"o":"m 75 1018 b 106 1049 75 1039 85 1049 l 514 1049 b 708 1013 588 1049 652 1037 b 837 911 764 989 807 955 b 883 757 867 867 883 816 b 868 676 883 730 878 703 b 828 606 858 650 844 626 b 773 564 811 586 793 572 b 854 508 803 552 830 533 b 909 419 878 482 896 453 b 929 313 922 384 929 349 b 884 149 929 251 914 196 b 755 39 854 101 811 65 b 558 0 699 13 633 0 l 106 0 b 75 31 85 0 75 10 m 549 674 b 572 724 564 686 572 703 b 551 768 572 742 565 757 b 494 783 537 778 518 783 l 384 783 l 384 654 l 486 654 b 549 674 513 654 534 661 m 594 281 b 618 347 610 297 618 319 b 606 388 618 362 614 375 b 572 420 598 401 586 412 b 521 432 557 428 540 432 l 384 432 l 384 256 l 529 256 b 594 281 557 256 578 264 "},"C":{"ha":958,"x_min":0,"x_max":0,"o":"m 307 54 b 109 253 223 103 157 169 b 37 527 61 336 37 428 b 109 801 37 627 61 718 b 307 998 157 884 223 949 b 585 1070 391 1046 483 1070 b 761 1042 646 1070 705 1061 b 914 964 817 1024 868 998 b 927 940 923 957 927 949 b 920 920 927 933 925 926 l 777 733 b 753 720 771 724 763 720 b 733 727 747 720 741 722 b 661 761 711 741 687 753 b 585 774 636 770 610 774 b 469 741 544 774 505 763 b 383 652 433 720 404 690 b 350 526 361 614 350 572 b 383 399 350 480 361 438 b 470 309 405 361 434 331 b 585 276 506 287 544 276 b 662 286 615 276 641 280 b 735 325 684 293 708 306 b 756 332 742 330 749 332 b 780 319 765 332 773 328 l 919 131 b 928 109 925 123 928 116 b 916 89 928 102 924 95 b 762 9 870 54 819 27 b 585 -19 706 -10 646 -19 b 307 54 483 -19 391 5 "},"D":{"ha":1072,"x_min":0,"x_max":0,"o":"m 75 1018 b 106 1049 75 1039 85 1049 l 479 1049 b 760 981 581 1049 675 1026 b 961 793 845 935 912 873 b 1035 526 1010 713 1035 624 b 961 258 1035 427 1010 338 b 761 69 912 177 846 114 b 482 0 676 23 583 0 l 106 0 b 75 31 85 0 75 10 m 612 324 b 693 405 646 343 674 370 b 722 526 712 440 722 480 b 693 645 722 570 712 610 b 612 725 674 679 646 706 b 492 753 577 744 537 753 l 383 753 l 383 296 l 492 296 b 612 324 537 296 577 305 "},"E":{"ha":894,"x_min":0,"x_max":0,"o":"m 848 8 b 825 0 843 3 835 0 l 106 0 b 75 31 85 0 75 10 l 75 1018 b 106 1049 75 1039 85 1049 l 814 1049 b 837 1041 824 1049 832 1046 b 845 1018 843 1035 845 1028 l 845 803 b 814 772 845 782 835 772 l 383 772 l 383 656 l 708 656 b 731 648 718 656 726 654 b 739 625 737 643 739 635 l 739 429 b 708 397 739 408 729 397 l 383 397 l 383 277 l 825 277 b 856 246 846 277 856 267 l 856 31 b 848 8 856 21 854 14 "},"F":{"ha":822,"x_min":0,"x_max":0,"o":"m 106 0 b 75 31 85 0 75 10 l 75 1018 b 106 1049 75 1039 85 1049 l 768 1049 b 792 1041 778 1049 786 1046 b 800 1018 797 1035 800 1028 l 800 802 b 792 779 800 792 797 784 b 768 771 786 773 778 771 l 383 771 l 383 592 l 663 592 b 694 561 684 592 694 582 l 694 364 b 663 332 694 343 684 332 l 383 332 l 383 31 b 352 0 383 10 373 0 "},"G":{"ha":996,"x_min":0,"x_max":0,"o":"m 665 481 b 688 489 671 486 679 489 l 916 489 b 948 458 937 489 948 479 l 948 119 b 929 81 948 102 941 90 b 771 7 883 50 830 25 b 585 -19 711 -10 649 -19 b 307 55 483 -19 391 6 b 109 253 223 103 157 169 b 37 526 61 336 37 427 b 109 801 37 626 61 718 b 307 998 157 884 223 949 b 585 1070 391 1046 483 1070 b 762 1042 646 1070 705 1061 b 915 963 818 1024 869 998 b 928 940 924 957 928 950 b 921 920 928 933 926 926 l 778 733 b 755 720 772 724 764 720 b 735 727 749 720 742 722 b 585 774 684 758 634 774 b 469 741 544 774 505 763 b 383 652 433 720 404 690 b 350 526 361 613 350 571 b 383 397 350 479 361 437 b 470 303 405 358 434 327 b 585 268 506 280 544 268 l 622 268 b 657 270 637 268 649 269 l 657 458 b 665 481 657 468 660 475 "},"H":{"ha":1085,"x_min":0,"x_max":0,"o":"m 106 0 b 75 31 85 0 75 10 l 75 1018 b 106 1049 75 1039 85 1049 l 352 1049 b 383 1018 373 1049 383 1039 l 383 700 l 701 700 l 701 1018 b 709 1041 701 1028 704 1035 b 733 1049 715 1046 723 1049 l 979 1049 b 1002 1041 989 1049 997 1046 b 1010 1018 1008 1035 1010 1028 l 1010 31 b 1002 8 1010 21 1008 14 b 979 0 997 3 989 0 l 733 0 b 709 8 723 0 715 3 b 701 31 704 14 701 21 l 701 405 l 383 405 l 383 31 b 352 0 383 10 373 0 "},"I":{"ha":458,"x_min":0,"x_max":0,"o":"m 106 0 b 75 31 85 0 75 10 l 75 1018 b 106 1049 75 1039 85 1049 l 352 1049 b 383 1018 373 1049 383 1039 l 383 31 b 352 0 383 10 373 0 "},"J":{"ha":696,"x_min":0,"x_max":0,"o":"m 143 -4 b 16 57 98 8 56 29 b 4 80 8 64 4 71 b 11 102 4 86 6 94 l 129 303 b 151 317 135 312 142 317 b 172 308 157 317 165 314 b 266 273 211 285 242 273 b 328 355 307 273 328 301 l 328 1018 b 358 1049 328 1039 338 1049 l 605 1049 b 628 1041 615 1049 623 1046 b 636 1018 633 1035 636 1028 l 636 334 b 592 144 636 261 621 198 b 464 20 562 90 520 49 b 269 -23 409 -9 344 -23 b 143 -4 229 -23 187 -17 "},"K":{"ha":1066,"x_min":0,"x_max":0,"o":"m 1048 19 b 1041 5 1048 13 1045 9 b 1021 0 1036 2 1029 0 l 723 0 b 701 5 714 0 707 2 b 685 21 695 8 690 13 l 475 376 l 383 264 l 383 31 b 352 0 383 10 373 0 l 106 0 b 75 31 85 0 75 10 l 75 1018 b 106 1049 75 1039 85 1049 l 352 1049 b 383 1018 373 1049 383 1039 l 383 683 l 649 1031 b 687 1049 658 1043 671 1049 l 989 1049 b 1009 1044 998 1049 1004 1048 b 1016 1031 1013 1041 1016 1037 b 1007 1011 1016 1025 1013 1019 l 675 612 l 1042 37 b 1048 19 1046 31 1048 25 "},"L":{"ha":803,"x_min":0,"x_max":0,"o":"m 780 8 b 756 0 774 3 766 0 l 106 0 b 75 31 85 0 75 10 l 75 1018 b 106 1049 75 1039 85 1049 l 352 1049 b 383 1018 373 1049 383 1039 l 383 295 l 756 295 b 780 287 766 295 774 292 b 788 264 785 281 788 274 l 788 31 b 780 8 788 21 785 14 "},"M":{"ha":1343,"x_min":0,"x_max":0,"o":"m 71 0 b 47 9 60 0 53 3 b 42 33 42 14 40 22 l 173 1020 b 184 1042 174 1029 178 1037 b 207 1049 190 1047 197 1049 l 495 1049 b 529 1022 513 1049 525 1040 l 671 426 l 813 1022 b 847 1049 818 1040 829 1049 l 1136 1049 b 1160 1042 1146 1049 1154 1047 b 1170 1020 1166 1037 1169 1029 l 1302 32 b 1272 -1 1305 10 1295 -1 l 1023 -1 b 990 29 1003 -1 992 9 l 934 553 l 815 27 b 781 0 810 9 799 0 l 566 0 b 532 27 548 0 536 9 l 412 553 l 352 30 b 320 0 350 10 339 0 "},"N":{"ha":1075,"x_min":0,"x_max":0,"o":"m 366 8 b 343 0 360 3 353 0 l 106 0 b 75 31 85 0 75 10 l 75 1018 b 106 1049 75 1039 85 1049 l 359 1049 b 381 1044 368 1049 375 1048 b 397 1028 387 1041 392 1036 l 700 525 l 700 1018 b 709 1041 700 1028 703 1035 b 732 1049 714 1046 722 1049 l 969 1049 b 992 1041 979 1049 987 1046 b 1001 1018 998 1035 1001 1028 l 1001 31 b 992 8 1001 21 998 14 b 969 0 987 3 979 0 l 746 0 b 709 21 731 0 718 7 l 374 564 l 374 31 b 366 8 374 21 371 14 "},"O":{"ha":1169,"x_min":0,"x_max":0,"o":"m 307 54 b 109 253 223 103 157 169 b 37 527 61 336 37 428 b 109 801 37 627 61 718 b 307 998 157 884 223 949 b 585 1070 391 1046 483 1070 b 862 998 686 1070 778 1046 b 1059 801 945 949 1011 884 b 1131 527 1107 718 1131 627 b 1059 253 1131 428 1107 336 b 862 54 1011 169 945 103 b 585 -19 778 5 686 -19 b 307 54 483 -19 391 5 m 700 309 b 786 399 736 331 765 361 b 818 526 808 438 818 480 b 786 652 818 572 808 614 b 700 741 764 690 736 720 b 585 774 664 763 625 774 b 469 741 544 774 505 763 b 383 652 433 720 404 690 b 350 526 361 614 350 572 b 383 399 350 480 361 438 b 470 309 405 361 434 331 b 585 276 506 287 544 276 b 700 309 625 276 664 287 "},"P":{"ha":934,"x_min":0,"x_max":0,"o":"m 106 0 b 75 31 85 0 75 10 l 75 1018 b 106 1049 75 1039 85 1049 l 525 1049 b 727 1003 602 1049 669 1034 b 862 875 786 972 830 929 b 909 692 894 821 909 760 b 864 497 909 619 894 554 b 733 366 834 441 790 397 b 529 319 675 335 607 319 l 383 319 l 383 31 b 352 0 383 10 373 0 m 552 609 b 587 643 567 617 579 628 b 600 689 596 657 600 672 b 572 747 600 713 591 732 b 504 771 554 763 531 771 l 383 771 l 383 597 l 503 597 b 552 609 521 597 537 601 "},"Q":{"ha":1169,"x_min":0,"x_max":0,"o":"m 1081 295 b 941 109 1048 222 1001 160 b 735 -1 881 57 812 20 l 735 -182 b 727 -205 735 -192 732 -200 b 703 -214 721 -211 713 -214 l 457 -214 b 426 -182 437 -214 426 -203 l 426 1 b 224 112 350 24 283 61 b 86 297 165 164 119 226 b 37 527 54 369 37 446 b 109 801 37 627 61 718 b 307 998 157 884 223 949 b 585 1070 391 1046 483 1070 b 862 998 686 1070 778 1046 b 1059 801 945 949 1011 884 b 1131 527 1107 718 1131 627 b 1081 295 1131 445 1115 367 m 700 309 b 786 399 736 331 765 361 b 818 526 808 438 818 480 b 786 652 818 572 808 614 b 700 741 764 690 736 720 b 585 774 664 763 625 774 b 469 741 544 774 505 763 b 383 652 433 720 404 690 b 350 526 361 614 350 572 b 383 399 350 480 361 438 b 470 309 405 361 434 331 b 585 276 506 287 544 276 b 700 309 625 276 664 287 "},"R":{"ha":989,"x_min":0,"x_max":0,"o":"m 75 1018 b 106 1049 75 1039 85 1049 l 540 1049 b 734 1003 613 1049 677 1034 b 867 874 791 972 835 929 b 914 687 898 820 914 757 b 768 403 914 564 865 469 l 954 37 b 959 21 957 31 959 25 b 952 6 959 14 956 9 b 931 0 947 2 940 0 l 650 0 b 614 23 633 0 621 8 l 472 324 l 451 324 l 383 324 l 383 31 b 352 0 383 10 373 0 l 106 0 b 75 31 85 0 75 10 m 575 615 b 601 686 593 634 601 658 b 575 755 601 717 592 739 b 514 778 558 770 537 778 l 383 778 l 383 585 l 511 585 b 575 615 537 585 558 595 "}}}
